<svg width="818" height="818" viewBox="0 0 818 818" fill="none" xmlns="http://www.w3.org/2000/svg">
<circle cx="409.123" cy="408.959" r="408.213" fill="#EE2915"/>
<path fill-rule="evenodd" clip-rule="evenodd" d="M306.288 334.551L328.995 307.683L511.941 462.345L489.234 489.213L306.288 334.551ZM491.584 567.754C490.346 553.029 492.14 538.752 496.445 525.515L269.268 333.475C256.946 339.95 243.171 344.075 228.446 345.331C169.239 350.281 117.225 306.302 112.275 247.096C111.253 235.168 112.257 223.528 114.965 212.461C116.58 215.421 118.786 218.165 121.548 220.443L173.634 263.202C185.256 272.798 202.582 271.094 212.142 259.453L241.36 223.922C250.902 212.3 249.216 194.974 237.575 185.414L185.507 142.601C183.403 140.891 181.149 139.534 178.745 138.529C188.61 134.494 199.282 131.857 210.492 130.907C269.681 125.956 321.695 169.935 326.663 229.124C327.901 243.831 326.107 258.126 321.802 271.363L548.961 463.403C561.283 456.946 575.058 452.803 589.783 451.547C648.99 446.615 701.004 490.576 705.972 549.782C706.905 560.992 706.098 571.915 703.748 582.336C702.361 580.136 700.645 578.133 698.601 576.328L647.734 532.133C636.363 522.251 619.001 523.452 609.118 534.824L578.95 569.548C569.067 580.883 570.269 598.263 581.64 608.146L632.507 652.376C635.197 654.725 638.246 656.429 641.439 657.559C631 662.043 619.7 664.967 607.755 665.971C548.549 670.922 496.534 626.961 491.584 567.754Z" fill="white"/>
<path fill-rule="evenodd" clip-rule="evenodd" d="M260.481 548.043L270.328 556.384C273.664 559.2 274.687 563.486 272.642 565.925L198.046 654.17C195.966 656.61 191.571 656.305 188.235 653.489L178.389 645.166C175.07 642.35 174.03 638.064 176.075 635.624L250.688 547.362C252.751 544.923 257.145 545.245 260.481 548.043ZM292.084 574.75L301.931 583.09C305.267 585.888 306.308 590.193 304.227 592.632L229.632 680.877C227.569 683.316 223.175 683.011 219.838 680.195L209.992 671.873C206.674 669.057 205.615 664.77 207.678 662.331L282.291 574.068C284.354 571.611 288.748 571.952 292.084 574.75ZM427.967 374.101L547.438 232.766L562.182 183.227L638.481 123.93L656.094 138.835L610.896 224.407L564.549 246.72L444.63 388.557L427.967 374.101ZM302.738 463.529L331.687 487.976L387.378 422.115L404.794 435.675L348.529 502.235L378.571 527.632L366.375 542.071C355.398 535.972 343.166 536.439 336.835 543.9C330.521 551.379 332.135 563.504 339.973 573.315L332.422 582.229L328.423 586.982L241.667 689.612C234.546 698.006 219.336 696.947 207.839 687.226L173.797 658.457C162.3 648.736 158.713 633.903 165.833 625.491L252.59 522.879L256.589 518.126L264.051 509.302C275.171 515.723 287.744 515.418 294.165 507.813C300.586 500.208 298.81 487.779 290.632 477.878L302.738 463.529Z" fill="white"/>
</svg>
