<svg width="817" height="818" viewBox="0 0 817 818" fill="none" xmlns="http://www.w3.org/2000/svg">
<ellipse cx="408.679" cy="408.959" rx="408.222" ry="408.213" fill="#EE2915"/>
<path fill-rule="evenodd" clip-rule="evenodd" d="M328.918 657.862C367.373 666.059 443.277 661.216 485.265 660.266L485.66 565.367C493.408 544.776 482.503 566.873 492.458 556.345C541.943 443.994 619.157 406.113 589.025 292.095C526.159 54.2643 161.773 152.697 230.037 387.693C244.045 435.869 276.115 464.8 298.965 502.698C337.635 566.873 324.542 575.68 328.918 657.862Z" fill="white"/>
<path fill-rule="evenodd" clip-rule="evenodd" d="M398.08 554.625L396.806 453.251C376.915 436.714 356.791 430.203 358.603 399.013C361.885 342.497 455.313 333.062 458.362 398.78C460.246 439.225 440.157 436.84 419.316 453.664L420.266 553.89L472.657 554.571C483.957 538.752 489.678 518.484 500.691 501.176C538.715 441.395 581.385 400.986 577.78 328.901C567.502 123.409 250.933 117.06 240.064 329.278C235.042 427.19 308.902 455.977 341.581 554.087L398.08 554.625Z" fill="#FEFEFE"/>
<path fill-rule="evenodd" clip-rule="evenodd" d="M398.079 554.625L420.266 553.89L419.315 453.664C440.157 436.84 460.245 439.225 458.362 398.78C455.313 333.062 361.884 342.497 358.602 399.013C356.791 430.203 376.915 436.714 396.806 453.251L398.079 554.625Z" fill="#FF3624"/>
<path fill-rule="evenodd" clip-rule="evenodd" d="M469.142 571.486L348.254 571.109L348.344 597.26L468.747 597.637L469.142 571.486Z" fill="#FF3624"/>
</svg>
