<svg width="817" height="818" viewBox="0 0 817 818" fill="none" xmlns="http://www.w3.org/2000/svg">
<circle cx="408.275" cy="408.959" r="408.213" fill="#EE2915"/>
<path fill-rule="evenodd" clip-rule="evenodd" d="M516.797 377.687H526.859V515.148C530.249 547.2 556.346 563.055 584.631 562.75V574.875C536.867 573.96 516.797 549.944 516.797 506.198V377.687Z" fill="white"/>
<path fill-rule="evenodd" clip-rule="evenodd" d="M476.602 406.404H486.646V543.883C490.036 575.916 516.132 591.772 544.417 591.485V603.609C496.672 602.677 476.602 578.66 476.602 534.933V406.404Z" fill="white"/>
<path fill-rule="evenodd" clip-rule="evenodd" d="M434.953 448.051H445.015V585.512C448.405 617.563 474.502 633.418 502.787 633.114V645.238C455.023 644.324 434.953 620.307 434.953 576.562V448.051Z" fill="white"/>
<path fill-rule="evenodd" clip-rule="evenodd" d="M337.636 406.404H327.592V543.883C324.184 575.916 298.105 591.772 269.82 591.485V603.609C317.566 602.677 337.636 578.66 337.636 534.933V406.404Z" fill="white"/>
<path fill-rule="evenodd" clip-rule="evenodd" d="M390.761 448.051H380.699V585.512C377.309 617.563 351.212 633.418 322.945 633.114V645.238C370.691 644.324 390.761 620.307 390.761 576.562V448.051Z" fill="white"/>
<path fill-rule="evenodd" clip-rule="evenodd" d="M295.988 377.687H285.926V515.148C282.536 547.2 256.439 563.055 228.172 562.75V574.875C275.917 573.96 295.988 549.944 295.988 506.198V377.687Z" fill="white"/>
<path fill-rule="evenodd" clip-rule="evenodd" d="M176.963 499.186H194.505L182.111 511.58C178.793 514.916 178.793 520.351 182.111 523.651C185.429 526.987 190.846 526.987 194.164 523.651L206.576 511.257V528.78C206.576 533.498 210.414 537.336 215.095 537.336C219.794 537.336 223.633 533.498 223.633 528.78V511.257L236.026 523.651C239.362 526.987 244.779 526.987 248.097 523.651C251.415 520.351 251.415 514.916 248.097 511.58L235.703 499.186H253.245C257.926 499.186 261.782 495.348 261.782 490.631C261.782 485.967 257.926 482.129 253.245 482.129H235.703L248.097 469.7C251.415 466.417 251.415 460.983 248.097 457.665C244.779 454.346 239.362 454.346 236.026 457.665L223.633 470.058V452.499C223.633 447.836 219.794 443.997 215.095 443.997C210.414 443.997 206.576 447.836 206.576 452.499V470.058L194.164 457.665C190.846 454.346 185.429 454.346 182.111 457.665C178.793 460.983 178.793 466.417 182.111 469.7L194.505 482.129H176.963C172.264 482.129 168.426 485.967 168.426 490.631C168.426 495.348 172.264 499.186 176.963 499.186Z" fill="white"/>
<path fill-rule="evenodd" clip-rule="evenodd" d="M560.381 499.186H577.923L565.511 511.58C562.211 514.916 562.211 520.351 565.511 523.651C568.847 526.987 574.264 526.987 577.582 523.651L589.993 511.257V528.78C589.993 533.498 593.832 537.336 598.513 537.336C603.212 537.336 607.051 533.498 607.051 528.78V511.257L619.444 523.651C622.78 526.987 628.197 526.987 631.515 523.651C634.833 520.351 634.833 514.916 631.515 511.58L619.121 499.186H636.645C641.362 499.186 645.2 495.348 645.2 490.631C645.2 485.967 641.362 482.129 636.645 482.129H619.121L631.515 469.7C634.833 466.417 634.833 460.983 631.515 457.665C628.197 454.346 622.78 454.346 619.444 457.665L607.051 470.058V452.499C607.051 447.836 603.212 443.997 598.513 443.997C593.832 443.997 589.993 447.836 589.993 452.499V470.058L577.582 457.665C574.264 454.346 568.847 454.346 565.511 457.665C562.211 460.983 562.211 466.417 565.511 469.7L577.923 482.129H560.381C555.682 482.129 551.844 485.967 551.844 490.631C551.844 495.348 555.682 499.186 560.381 499.186Z" fill="white"/>
<path fill-rule="evenodd" clip-rule="evenodd" d="M281.693 377.239L541.764 366.549C551.88 367.823 562.373 367.572 572.955 365.599C627.516 355.321 663.424 302.805 653.164 248.244C640.807 182.562 569.224 147.516 510.072 176.572C503.758 118.28 449.287 77.6192 391.551 88.4525C342.299 97.7254 308.239 141.453 309.638 190.024C290.123 179.567 267.058 175.442 243.615 179.836C189.054 190.078 153.147 242.648 163.406 297.209C173.665 351.77 226.2 387.678 280.761 377.418L281.693 377.239Z" fill="white"/>
<path fill-rule="evenodd" clip-rule="evenodd" d="M373.702 693.038H391.243L378.831 705.414C375.513 708.768 375.513 714.202 378.831 717.502C382.149 720.838 387.584 720.838 390.902 717.502L403.296 705.109V722.614C403.296 727.331 407.134 731.188 411.833 731.188C416.533 731.188 420.371 727.331 420.371 722.614V705.109L432.765 717.502C436.083 720.838 441.517 720.838 444.835 717.502C448.154 714.202 448.154 708.768 444.835 705.414L432.424 693.038H449.965C454.664 693.038 458.503 689.199 458.503 684.482C458.503 679.819 454.664 675.981 449.965 675.981H432.424L444.835 663.551C448.154 660.251 448.154 654.834 444.835 651.516C441.517 648.198 436.083 648.198 432.765 651.516L420.371 663.91V646.351C420.371 641.687 416.533 637.849 411.833 637.849C407.134 637.849 403.296 641.687 403.296 646.351V663.91L390.902 651.516C387.584 648.198 382.149 648.198 378.831 651.516C375.513 654.834 375.513 660.251 378.831 663.551L391.243 675.981H373.702C369.002 675.981 365.164 679.819 365.164 684.482C365.164 689.199 369.002 693.038 373.702 693.038Z" fill="white"/>
<path fill-rule="evenodd" clip-rule="evenodd" d="M373.702 385.739H391.243L378.831 398.115C375.513 401.451 375.513 406.886 378.831 410.204C382.149 413.522 387.584 413.522 390.902 410.204L403.296 397.81V415.316C403.296 420.033 407.134 423.871 411.833 423.871C416.533 423.871 420.371 420.033 420.371 415.316V397.792L432.765 410.204C436.083 413.522 441.517 413.522 444.835 410.204C448.154 406.886 448.154 401.451 444.835 398.115L432.424 385.739H449.965C454.664 385.739 458.503 381.901 458.503 377.184C458.503 372.521 454.664 368.682 449.965 368.682H432.424L444.835 356.253C448.154 352.952 448.154 347.518 444.835 344.218C441.517 340.882 436.083 340.882 432.765 344.218L420.371 356.611V339.034C420.371 334.371 416.533 330.533 411.833 330.533C407.134 330.533 403.296 334.371 403.296 339.034V356.611L390.902 344.218C387.584 340.882 382.149 340.882 378.831 344.218C375.513 347.518 375.513 352.952 378.831 356.253L391.243 368.682H373.702C369.002 368.682 365.164 372.521 365.164 377.184C365.164 381.901 369.002 385.739 373.702 385.739Z" fill="white"/>
</svg>
