<svg width="817" height="818" viewBox="0 0 817 818" fill="none" xmlns="http://www.w3.org/2000/svg">
<circle cx="408.506" cy="408.959" r="408.213" fill="#EE2915"/>
<path d="M147.297 246.393L233.658 296.686" stroke="white" stroke-width="53.8078"/>
<path d="M253.604 141.254L302.927 228.172" stroke="white" stroke-width="53.8078"/>
<path d="M398.364 103.911L397.252 203.832" stroke="white" stroke-width="53.8078"/>
<path d="M542.28 144.448L491.037 230.254" stroke="white" stroke-width="53.8078"/>
<path d="M646.239 251.92L558.783 300.293" stroke="white" stroke-width="53.8078"/>
<path d="M682.003 397.074L582.082 394.868" stroke="white" stroke-width="53.8078"/>
<path d="M381.504 419.388C407.744 417.595 434.773 426.778 452.655 446.812C471.022 433.97 494.356 429.092 516.543 432.087C520.991 419.119 523.448 405.237 523.448 390.745C523.448 319.916 466.018 262.485 395.189 262.485C329.615 262.485 275.646 311.701 267.951 375.194C309.15 358.622 363.191 373.329 381.504 419.388Z" stroke="white" stroke-width="35.8719"/>
<path d="M314.802 565.367C315.896 501.587 370.224 474.037 417.341 482.7C423.332 466.809 433.555 454.595 446.039 445.986C428.175 427.601 402.275 419.261 377.111 420.929C349.992 352.755 244.529 353.185 218.45 422.256C171.332 413.611 116.986 441.161 115.91 504.923C116.771 555.753 151.477 583.572 189.358 588.379L317.689 587.518C315.985 580.684 314.945 573.331 314.802 565.367Z" stroke="white" stroke-width="35.8719"/>
<path d="M604.305 649.095C638.85 641.49 668.713 614.174 669.503 567.056C668.498 508.082 621.954 480.102 577.706 483.062C550.587 414.852 445.124 415.336 419.045 484.371C371.928 475.744 317.6 503.294 316.523 567.056C317.384 617.886 352.072 645.705 389.953 650.512L604.305 649.095Z" stroke="white" stroke-width="35.8719"/>
</svg>
