<svg width="379" height="273" viewBox="0 0 379 273" fill="none" xmlns="http://www.w3.org/2000/svg">
<path d="M123.791 0.683397C129.997 0.683397 136.09 1.1856 142.068 2.19001V45.6667C137.046 44.6862 131.904 44.19 126.643 44.178C78.8081 44.178 39.8333 85.7894 39.8333 136.835C39.8333 187.863 78.8081 229.474 126.643 229.474C131.904 229.462 137.046 228.966 142.068 227.985V271.48C136.09 272.473 129.997 272.969 123.791 272.969C55.8322 272.969 0.410156 211.843 0.410156 136.835C0.410156 61.8449 55.8322 0.683397 123.791 0.683397ZM359.918 0.683397C366.124 0.683397 372.21 1.1856 378.177 2.19001V45.6667C373.155 44.6862 368.013 44.19 362.752 44.178C319.939 44.178 284.192 77.5747 277.197 121.177H354.178V159.596H278.632C288.174 199.7 322.288 229.474 362.752 229.474C368.013 229.462 373.155 228.966 378.177 227.985V271.48C372.198 272.473 366.112 272.969 359.918 272.969C291.941 272.969 236.519 211.843 236.519 136.835C236.519 61.8449 291.941 0.683397 359.918 0.683397Z" fill="#191618"/>
</svg>
