<svg width="93" height="38" viewBox="0 0 93 38" fill="none" xmlns="http://www.w3.org/2000/svg">
<path fill-rule="evenodd" clip-rule="evenodd" d="M7.9043 32.5312C7.91992 32.9427 7.9668 33.2917 8.1543 33.8542C8.60221 35.2187 9.56576 36.1146 10.821 36.7448C12.071 37.375 13.9928 37.7448 15.3835 37.7448H16.597C17.1543 37.7396 17.6647 37.7239 18.3783 37.6667C21.446 37.4323 25.1283 36.4375 28.0293 35.4739C29.1022 35.1146 30.2272 34.6667 31.2689 34.2656C31.4564 34.1927 31.6022 34.1302 31.7793 34.0573L35.1283 32.5625C35.2428 32.5104 35.3574 32.5156 35.3574 32.3958V29.8698C35.3574 29.6771 35.2324 29.8177 35.0189 29.9271C34.873 30.0052 34.7428 30.0781 34.6022 30.1614C34.4616 30.2344 34.3314 30.3073 34.1751 30.3854C34.0085 30.4687 33.9095 30.5312 33.7585 30.6146C32.097 31.5052 29.1751 32.7864 27.4616 33.3854C27.2845 33.4479 27.1387 33.4948 26.9772 33.5521C24.8678 34.3333 20.7012 35.3802 18.4095 34.8646C17.6803 34.6979 16.8991 34.4323 16.4512 33.7864C15.5605 32.4948 16.3939 30.8021 17.0814 29.651C17.5293 28.8958 18.0449 28.3021 18.5762 27.6406C18.6491 27.5469 18.6387 27.6094 18.6699 27.4844H9.20638C9.05013 27.776 8.89909 28.0885 8.76888 28.4167C8.64388 28.7239 8.48242 29.0781 8.37826 29.401C8.19076 29.9948 7.9043 31.0312 7.9043 31.6719V32.5312ZM21.6335 13.3229C22.3053 13.3229 24.571 13.3698 25.1803 13.3281C25.373 13.3177 25.972 12.8021 26.1647 12.6614C26.3939 12.4948 26.5762 12.3542 26.8105 12.1927L30.097 10.0156C30.7845 9.58853 32.222 8.73957 32.873 8.41665C33.6543 8.03123 34.9876 7.27082 35.7428 6.97915C35.9772 6.89061 36.248 6.75519 36.498 6.64582L39.6022 5.43228C40.7949 5.0104 41.696 4.77082 42.9199 4.47915C45.1283 3.95311 47.7741 3.70832 50.0085 4.3229C51.2168 4.65624 52.3262 5.31769 53.0553 6.48957C54.4408 8.70311 53.4303 11.3125 53.4199 11.8385H57.6491C57.8574 11.8385 58.3835 9.96352 58.4251 9.78123C58.8105 8.20311 58.8314 7.97915 58.8314 6.39582C58.8314 4.93748 58.2012 3.53123 57.3522 2.53644C56.847 1.94269 56.0449 1.43748 55.3887 1.12498C55.0345 0.953109 54.5918 0.776025 54.2012 0.66665C52.9095 0.312484 52.1387 0.239568 51.1335 0.234359H49.8366C48.4876 0.234359 46.7376 0.567692 45.4616 0.822902C44.3418 1.04165 43.0866 1.41665 41.9876 1.7604C41.8158 1.81769 41.6699 1.88019 41.4876 1.93228C40.847 2.11978 38.4095 3.06248 37.7741 3.35415C37.0033 3.70832 35.8783 4.18228 35.1439 4.56769L33.8314 5.22394C33.6751 5.30207 33.5658 5.36978 33.4147 5.4479C32.2533 6.06769 30.4564 7.06248 29.2793 7.81248C29.1283 7.90623 29.0449 7.97394 28.8835 8.06769C27.8783 8.66144 26.3366 9.74998 25.3626 10.4375L22.722 12.4062C22.5866 12.5156 22.472 12.5833 22.347 12.6875C22.1439 12.8594 21.6751 13.1771 21.6335 13.3229ZM45.8053 25.1354H47.9251C48.0345 25.1354 48.0762 24.9219 48.1647 24.7187C48.2324 24.5573 48.2897 24.3906 48.3574 24.2187L50.0137 20.1146C50.1491 19.5521 50.3522 18.1875 50.4824 17.5L50.5814 17.0052C50.6022 16.9635 50.6022 16.9687 50.6126 16.9479L50.8626 19C50.9043 19.3229 50.946 19.7135 50.9928 20.0364C51.2168 21.5469 51.373 23.1614 51.5814 24.6719C51.623 24.9687 51.6022 25.1354 51.722 25.1354H55.3053C55.4147 25.1354 55.4303 24.9844 55.4668 24.8802C55.5085 24.7604 55.5553 24.6614 55.6022 24.5625C55.6855 24.3542 55.7689 24.1614 55.8522 23.9479L56.597 22.0937C56.6908 21.8802 56.748 21.6979 56.8418 21.4739C56.9251 21.2656 57.0085 21.0521 57.097 20.8594C57.1855 20.6614 57.2533 20.4479 57.3366 20.2396L59.3366 15.276H57.2168C56.9876 15.7448 56.2741 17.5885 56.0345 18.1875L55.0345 20.6823C54.9824 20.8177 54.9147 20.9739 54.8626 21.1042C54.7689 21.3385 54.5814 21.7396 54.5293 21.9687L53.4251 15.276H49.748L47.7689 20.1979C47.4408 21.026 47.1126 21.8125 46.7793 22.6406L46.0345 24.4948C45.9772 24.6302 45.8105 24.9948 45.8053 25.1354ZM81.2585 23.9114C81.2585 24.7187 81.9043 24.9167 82.6699 25.0729C84.3001 25.4062 87.3366 25.3125 88.7168 24.7344C89.8522 24.2604 90.0553 23.4739 90.4668 22.4271L91.0553 20.9792C91.1543 20.7239 91.2428 20.5052 91.3418 20.25L92.222 18.0833C92.347 17.8021 92.7585 16.8281 92.7585 16.5573V16.4948C92.7585 16.1771 92.7428 15.9167 92.3939 15.6719C92.2272 15.5625 91.8783 15.4375 91.6595 15.3906C90.4147 15.125 89.498 15.1823 88.222 15.1823C87.8835 15.1823 87.623 15.2344 87.3262 15.2448C87.0658 15.25 86.6855 15.3021 86.446 15.3542C85.3991 15.5833 84.5605 15.8229 84.0345 16.8542L81.7637 22.4375C81.6387 22.7604 81.2585 23.5937 81.2585 23.9114ZM85.472 24.3594C85.1751 24.3594 84.9512 24.3802 84.6751 24.2292C84.4355 24.0989 84.4251 23.9896 84.4251 23.7917C84.4251 23.7031 85.9199 20.026 86.1074 19.5833C86.1699 19.4167 86.2428 19.25 86.3105 19.0729L86.7428 18.0104C86.821 17.8229 86.8783 17.651 86.9564 17.4739L87.3783 16.4323C87.4772 16.1719 87.7585 15.5521 87.8001 15.3646C87.9199 15.3958 88.123 15.6771 88.2168 15.7917C89.5814 17.4687 89.4824 16.8542 88.972 18.2396L88.1803 20.1979C88.0501 20.5312 87.9251 20.8385 87.7845 21.1719L86.7949 23.6198C86.5918 24.0989 85.9408 24.3594 85.472 24.3594ZM69.0137 25.1354H72.0605L72.3001 24.5052C72.7168 23.5521 73.1543 22.3854 73.571 21.3854L73.946 20.4479C73.9928 20.3385 74.0501 20.2604 74.0605 20.1146C74.196 20.151 74.1543 20.1771 74.3001 20.3594C74.373 20.4531 74.4303 20.5312 74.5033 20.6302L75.123 21.4427C75.5137 21.9635 75.6491 22 75.6491 22.6562C75.6491 23 74.9355 24.1302 75.0293 24.8229C75.0501 24.9687 75.0085 25.1354 75.1387 25.1354H78.0345C78.1699 25.1354 78.097 25.0521 78.097 24.9583C78.097 23.9062 78.2272 24.0677 78.5553 23.1458C78.9303 22.0781 79.4876 21.5156 78.4824 21.0104C78.2741 20.9062 77.8001 20.7135 77.498 20.7135C77.5814 20.5989 77.4616 20.6927 77.8001 20.625C77.9095 20.6042 77.9928 20.5781 78.1074 20.5469C78.3053 20.4844 78.5085 20.401 78.6751 20.3073C79.0345 20.1094 79.3366 19.9375 79.6126 19.6614C79.748 19.5208 79.873 19.4219 79.9876 19.2604C80.2897 18.8646 80.3678 18.6667 80.5501 18.2083C81.1647 16.6614 81.6178 15.7708 79.6283 15.4427C79.4147 15.4114 79.1647 15.3802 78.9199 15.3489L73.0449 15.276C72.9355 15.276 72.8418 15.6406 72.7585 15.8489C72.6699 16.0677 72.5918 16.25 72.498 16.4635L71.5085 18.9375C71.0814 20.0677 70.472 21.4792 70.0137 22.6406L69.0137 25.1354ZM74.1543 19.9948C74.1699 19.7656 75.6439 16.3125 75.8574 15.7239C75.8939 15.6354 75.9303 15.5156 75.9772 15.4219L77.0553 16.8489C77.7793 17.8073 77.7533 17.5677 77.2324 18.8333C76.9251 19.5937 76.4095 19.9219 75.5553 19.9687C75.0866 19.9896 74.6491 19.9948 74.1543 19.9948ZM34.9303 23.9427C34.9303 25.125 36.7376 25.2239 37.623 25.2239C39.196 25.2239 41.9147 25.4114 43.0137 24.0104C43.2793 23.6719 43.4303 23.4687 43.623 23.0104L45.498 18.375C45.7116 17.8437 45.9043 17.3646 46.1126 16.8385C46.1751 16.6823 46.722 15.3958 46.7324 15.276H43.6855L42.696 17.7187C42.498 18.2135 42.2012 18.8854 42.0293 19.3854L40.847 22.2969C40.8001 22.401 40.7689 22.5052 40.7168 22.6146L40.3574 23.5104C40.3105 23.625 40.2585 23.7292 40.2272 23.8229C40.1387 24.0469 40.0658 24.2292 39.9772 24.4427C39.9043 24.6302 39.7897 24.8698 39.7428 25.0781C39.6074 24.9844 38.6335 23.5885 38.4564 23.3489C38.1178 22.901 38.4199 22.4531 38.6543 21.8646L40.9251 16.2448C41.0033 16.0469 41.2793 15.4479 41.2949 15.276H38.248L37.821 16.3385C37.6751 16.7083 37.5553 17.0521 37.3939 17.4062L35.2428 22.7292C35.1074 23.0781 34.9303 23.4687 34.9303 23.9427ZM25.5241 19.3698C25.5241 19.8333 25.748 20.0156 26.097 20.2292C26.9824 20.7708 29.6751 20.651 29.8158 21.4114C29.8418 21.5469 29.7324 21.8698 29.6908 21.9792L28.6803 24.4687C28.6439 24.5677 28.623 24.625 28.5814 24.7292C28.5397 24.8437 28.5085 24.8594 28.4824 24.9844C28.4251 24.9427 26.8366 22.7917 26.8366 22.7135C26.8366 22.6302 26.9355 22.4062 26.9668 22.3333C27.0085 22.2292 27.0814 22.0677 27.1074 21.9687H24.3314L23.946 22.8958C23.8158 23.2656 23.6439 23.5104 23.6439 23.9687C23.6439 24.3958 23.7376 24.5729 23.998 24.75C24.7428 25.2292 26.222 25.2552 27.1647 25.2552C28.2012 25.2552 29.6491 25.1875 30.5918 24.7917C31.8262 24.2812 32.3991 23.0156 32.8001 21.8073C33.0918 20.9375 33.3366 20.3021 32.3053 19.875L32.0189 19.776C31.8991 19.7292 31.821 19.7135 31.696 19.6771C31.2064 19.5364 30.2168 19.3646 29.6908 19.2604C28.9772 19.1198 28.4616 18.9896 28.7793 18.2031L29.696 15.8958C29.748 15.7708 29.8001 15.625 29.8522 15.5104C29.9251 15.5625 29.9251 15.5937 29.9772 15.6614L30.2324 16.0052C30.2845 16.0833 30.3105 16.1042 30.3626 16.1719L30.8678 16.8333C30.9928 17.0208 31.4564 17.4948 31.4303 17.7135C31.4043 17.9062 31.2116 18.2448 31.2012 18.3802H33.9147C33.9355 18.3073 33.9772 18.2135 34.0085 18.1458L34.4772 16.9687C34.5658 16.7448 34.6074 16.625 34.6074 16.3489C34.6074 15.3125 33.222 15.3073 32.4408 15.1979C32.2637 15.1719 32.0814 15.1927 31.9043 15.1667C31.2949 15.0729 29.1074 15.2448 28.6855 15.3021C27.2585 15.4948 26.6178 16.2604 26.1126 17.5364C25.9408 17.9635 25.5241 18.9219 25.5241 19.3698ZM57.9616 25.1354H60.8626C60.9876 25.1354 61.1699 24.5 61.2689 24.2917L62.3522 21.6094C64.0658 21.6094 66.2689 21.7864 67.6491 20.75C68.5866 20.0521 68.9147 19 69.3678 17.8646C69.748 16.901 70.0762 15.9635 68.7168 15.5104C68.248 15.3489 67.4772 15.276 66.8314 15.276H61.9043C61.8105 15.276 61.8001 15.3802 61.7428 15.5312C61.7012 15.6614 61.6647 15.7239 61.6126 15.8489L61.248 16.7708C61.2064 16.8854 61.1647 16.9635 61.1178 17.0833C61.0658 17.2031 61.0345 17.2864 60.9876 17.4062L60.3626 18.9583C60.1699 19.3854 60.0293 19.8281 59.8522 20.2135L57.972 24.875C57.9512 24.9219 57.9199 24.9844 57.9043 25.026C57.8835 25.0937 57.8574 25.1354 57.9616 25.1354ZM62.9199 20.2344L64.3574 16.651C64.4355 16.4583 64.821 15.5573 64.8314 15.4219C64.9251 15.4844 64.9876 15.5781 65.0553 15.6823L66.3158 17.4062C66.5762 17.7604 66.3991 18.0677 66.2793 18.3646C66.0605 18.9114 65.9303 19.4062 65.498 19.8229C64.9668 20.3385 63.946 20.2344 62.9199 20.2344Z" fill="white"/>
<path fill-rule="evenodd" clip-rule="evenodd" d="M54.6185 20.8646H54.6758C54.7174 20.6823 55.7331 18.2239 55.806 18.0469L56.8737 15.401C56.9049 15.3333 56.9466 15.276 56.8268 15.276H53.7227C53.7227 15.4896 54.4154 19.4948 54.4987 20.1458C54.5299 20.3646 54.5977 20.6406 54.6185 20.8646Z" fill="white"/>
<path d="M5.29492 21.0573L3.56576 25.2344H0.544922L2.14909 21.2031L0.341797 15.0312H3.43034L5.29492 21.0573ZM4.82096 15.0208L10.3105 15.0312L6.4043 19.9792L4.82096 15.0208ZM14.972 19.125L16.498 15.3073L13.3939 15.2708L9.45117 25.2552H12.4616L14.3001 20.7969H16.5033L18.3887 19.125H14.972ZM19.998 15.276L15.9668 25.2656H19.0605L23.2637 15.276H19.998Z" fill="white"/>
<path fill-rule="evenodd" clip-rule="evenodd" d="M50.2057 30.9896L49.8464 29.6823C49.7891 29.4791 49.7318 29.2448 49.6693 29.026L49.4922 28.3385H48.2734C48.2214 28.4427 48.1328 28.8385 48.1016 28.9687C47.888 29.75 47.8464 29.6875 47.9193 30.3333C47.9453 30.5417 48.0078 30.8646 48.0078 31.0781C47.9557 31.0052 47.8516 30.5 47.8359 30.4167C47.7839 30.1719 47.7318 29.9531 47.6745 29.7135L47.3516 28.3385H46.2786C46.2839 28.4583 46.362 28.7916 46.3932 28.9062C46.4349 29.0989 46.4661 29.3021 46.513 29.4739C46.5547 29.6666 46.5964 29.8594 46.6328 30.0364L46.9922 31.7344C47.0651 32.1042 46.9141 32.0052 48.1224 32.0052C48.2214 31.5781 48.362 31.1719 48.4714 30.7396C48.513 30.5729 48.8047 29.5677 48.8099 29.4375C48.8828 29.4948 48.8516 29.4114 48.9141 29.7239L49.4609 32.0052H50.4766C50.5599 31.8281 51.0703 29.2864 51.1693 28.8229C51.2005 28.6771 51.2474 28.5312 51.2474 28.3385H50.4141C50.3151 28.7656 50.2214 29.1823 50.112 29.6146C50.0234 29.9531 50.1068 30.2604 50.1641 30.6146C50.1901 30.7656 50.2057 30.8229 50.2057 30.9896ZM50.2057 30.9896C50.2422 31.0469 50.2422 30.9219 50.2318 31.0469C50.2266 31.1146 50.2318 31.0729 50.2057 31.1094V30.9896ZM48.0078 31.1354L48.013 31.1458C48.013 31.1458 48.0026 31.1406 48.0078 31.1354ZM55.388 31.9114C55.388 31.9844 55.4089 32 55.4766 32C56.6953 32 56.5234 32.0989 56.5234 31.6146V30.1562L57.2891 30.8489C57.6224 31.2031 57.2578 31.5 57.5911 32H58.6641C58.638 31.7031 58.5391 32.0625 58.5443 30.9271C58.5495 30.6875 58.5078 30.625 58.3568 30.5208C58.2526 30.4531 58.0495 30.3646 57.8932 30.3646C57.9766 30.2448 58.0391 30.3594 58.3151 30.1042C58.612 29.8281 58.5443 29.4531 58.5443 29.0208C58.5443 28.7448 58.3932 28.5573 58.1432 28.4687C57.5391 28.2604 56.1172 28.3385 55.388 28.3385V31.9114ZM56.9974 30.0625H56.5234V28.4271C56.6172 28.4896 56.6641 28.5677 56.7526 28.6406C56.862 28.7239 56.9089 28.7812 57.0078 28.8646C57.4714 29.2552 57.4453 29.2135 57.4453 29.651C57.4453 29.9271 57.2682 30.0625 56.9974 30.0625ZM42.138 28.875V31.4375C42.138 32.2396 44.4089 32.0677 44.8359 31.901C45.0599 31.8125 45.2682 31.6719 45.2682 31.375V28.901C45.2682 28.776 45.1536 28.6198 45.0807 28.5521C44.7005 28.1979 43.2161 28.25 42.7109 28.375C42.4714 28.4323 42.138 28.5781 42.138 28.875ZM43.8099 31.6719C43.1536 31.6719 43.2995 31.5677 43.2995 30.1823V28.3958L43.9766 28.9427C44.0651 29.0104 44.1068 29.0833 44.1068 29.2292V31.4062C44.1068 31.5677 43.9557 31.6719 43.8099 31.6719ZM38.1172 31.9114C38.1172 31.9844 38.1432 32 38.2109 32H39.1641C39.2318 32 39.2526 31.9844 39.2526 31.9114V30.6927C39.9609 30.6927 41.2161 30.8177 41.2161 29.8542C41.2161 29.2656 41.3151 28.7708 40.9089 28.526C40.737 28.4271 40.4349 28.3385 40.1745 28.3385H38.1172V31.9114ZM39.7891 30.1562H39.2526V28.4271L40.0026 29.1042C40.2109 29.3073 40.1745 29.3177 40.1745 29.7083C40.1745 29.9896 40.0651 30.1562 39.7891 30.1562ZM53.2422 31.4687C53.2161 31.4323 53.2266 31.4687 53.2161 31.4062L53.2214 30.3333H54.2891L54.2786 29.8542H53.2422C53.2474 29.5 53.1536 29.5104 52.9401 29.2969C52.8672 29.2239 52.8099 29.1614 52.7318 29.0937L52.5547 28.9375C52.5182 28.901 52.5286 28.9167 52.5026 28.875H54.3203C54.4349 28.8489 54.4089 28.8177 54.4089 28.6667C54.4089 28.5573 54.4036 28.4479 54.4036 28.3385H52.112C52.112 29.4323 52.1172 30.5208 52.112 31.6146C52.112 32.1198 51.9089 32 53.3672 32H54.2005C54.388 32.0052 54.4818 32.0521 54.4974 31.8854C54.5078 31.7864 54.4974 31.5781 54.4974 31.4635L53.2422 31.4687Z" fill="white"/>
</svg>
