<svg width="543" height="330" viewBox="0 0 543 330" fill="none" xmlns="http://www.w3.org/2000/svg">
<path d="M122.254 94.373C122.254 94.373 168.69 0.263207 262.369 0.263207C262.369 0.263207 367.922 -9.56568 418.825 94.373H365.142C365.142 94.373 325.253 36.1709 246.909 48.9951V94.373H122.254Z" fill="#CF8E38"/>
<path d="M418.825 235.204C418.825 235.204 372.388 329.314 278.691 329.314C278.691 329.314 173.156 339.143 122.254 235.204H175.936C175.936 235.204 215.826 293.406 294.17 280.582V235.204H418.825Z" fill="#63913C"/>
<path d="M21.0405 161.13H30.1161C34.3729 161.13 37.3622 160.346 39.0841 158.78C40.8179 157.202 41.6848 155.193 41.6848 152.754C41.6848 150.362 40.9315 148.341 39.4248 146.691C37.9302 145.041 35.1202 144.21 30.995 144.198H21.0405V161.13ZM0.701172 128.773H39.2276C47.2389 128.773 53.2355 130.794 57.2173 134.836C61.1991 138.865 63.1959 144.611 63.2079 152.072C63.2079 159.731 61.0376 167.874 56.6792 172.196C52.3387 176.501 45.7084 178.659 36.7883 178.671H21.0405V204.66H0.701172V128.773Z" fill="#17162A"/>
<path d="M68.8945 127.912H92.0139L105.807 181.092L119.061 127.769H141.499L115.994 204.66H94.7581L68.8945 127.912Z" fill="#17162A"/>
<path d="M187.666 167.784C189.101 208.731 223.915 206.149 223.915 206.149C245.671 208.139 254.047 184.5 254.047 184.5L235.107 176.859C235.107 176.859 232.183 188.266 221.386 187.979C213.297 187.764 209.548 179.065 209.548 173.2C209.548 170.617 209.477 168.017 209.441 166.528C209.477 165.021 209.548 162.421 209.548 159.838C209.548 153.991 213.297 145.274 221.386 145.059C232.183 144.772 235.107 156.179 235.107 156.179L254.047 148.538C254.047 148.538 245.671 124.899 223.915 126.89C223.915 126.89 189.101 124.307 187.666 165.255C187.666 165.255 187.613 165.829 187.631 166.528L187.666 167.784Z" fill="#17162A"/>
<path d="M333.217 167.784C334.652 208.731 369.466 206.149 369.466 206.149C391.222 208.139 399.598 184.5 399.598 184.5L380.658 176.859C380.658 176.859 377.734 188.266 366.937 187.979C358.848 187.764 355.099 179.065 355.099 173.2C355.099 170.617 355.027 168.017 354.991 166.528C355.027 165.021 355.099 162.421 355.099 159.838C355.099 153.991 358.848 145.274 366.937 145.059C377.734 144.772 380.658 156.179 380.658 156.179L399.598 148.538C399.598 148.538 391.222 124.899 369.466 126.89C369.466 126.89 334.652 124.307 333.217 165.255C333.217 165.255 333.163 165.829 333.181 166.528L333.217 167.784Z" fill="#17162A"/>
<path d="M312.14 126.782L296.626 155.982L281.111 126.782H257.525L285.613 176.716V204.176H307.638V176.716L335.744 126.782H312.14Z" fill="#17162A"/>
<path d="M437.03 186.096V127.858H415.076V204.193H471.538V186.096H437.03Z" fill="#17162A"/>
<path d="M542.638 145.31V127.84H483.145V204.176H542.638V186.724H505.457V173.165H527.787V155.695H505.457V145.31H542.638Z" fill="#17162A"/>
<path d="M119.058 121.312H116.784L121.893 107.115H124.368L129.477 121.312H127.203L123.189 109.694H123.079L119.058 121.312ZM119.439 115.753H126.815V117.555H119.439V115.753ZM138.941 110.845C138.867 110.189 138.562 109.68 138.026 109.32C137.49 108.955 136.816 108.772 136.002 108.772C135.42 108.772 134.916 108.865 134.491 109.049C134.066 109.23 133.735 109.479 133.5 109.798C133.269 110.112 133.153 110.47 133.153 110.873C133.153 111.21 133.232 111.501 133.389 111.746C133.55 111.991 133.761 112.197 134.02 112.363C134.283 112.525 134.565 112.661 134.865 112.772C135.166 112.878 135.455 112.966 135.732 113.035L137.118 113.396C137.571 113.507 138.036 113.657 138.512 113.846C138.988 114.036 139.429 114.286 139.836 114.595C140.242 114.905 140.571 115.288 140.82 115.746C141.074 116.203 141.201 116.751 141.201 117.389C141.201 118.193 140.993 118.907 140.577 119.531C140.166 120.155 139.568 120.647 138.782 121.007C138.001 121.368 137.056 121.548 135.947 121.548C134.884 121.548 133.964 121.38 133.188 121.042C132.411 120.705 131.804 120.226 131.364 119.607C130.925 118.983 130.683 118.244 130.637 117.389H132.786C132.827 117.902 132.994 118.329 133.285 118.671C133.58 119.009 133.957 119.261 134.415 119.427C134.877 119.589 135.383 119.67 135.933 119.67C136.538 119.67 137.077 119.575 137.548 119.385C138.024 119.191 138.398 118.923 138.671 118.581C138.944 118.235 139.08 117.83 139.08 117.368C139.08 116.947 138.96 116.603 138.72 116.335C138.484 116.067 138.163 115.845 137.756 115.67C137.354 115.494 136.899 115.339 136.39 115.205L134.713 114.748C133.576 114.438 132.675 113.983 132.009 113.382C131.348 112.781 131.018 111.986 131.018 110.997C131.018 110.179 131.24 109.465 131.683 108.855C132.127 108.245 132.728 107.772 133.486 107.434C134.244 107.092 135.099 106.921 136.051 106.921C137.012 106.921 137.86 107.09 138.595 107.427C139.334 107.765 139.917 108.229 140.342 108.821C140.767 109.408 140.989 110.082 141.007 110.845H138.941ZM151.29 110.845C151.216 110.189 150.911 109.68 150.375 109.32C149.838 108.955 149.164 108.772 148.35 108.772C147.768 108.772 147.264 108.865 146.839 109.049C146.414 109.23 146.084 109.479 145.848 109.798C145.617 110.112 145.501 110.47 145.501 110.873C145.501 111.21 145.58 111.501 145.737 111.746C145.899 111.991 146.109 112.197 146.368 112.363C146.631 112.525 146.913 112.661 147.213 112.772C147.514 112.878 147.803 112.966 148.08 113.035L149.466 113.396C149.919 113.507 150.384 113.657 150.86 113.846C151.336 114.036 151.777 114.286 152.184 114.595C152.591 114.905 152.919 115.288 153.168 115.746C153.422 116.203 153.55 116.751 153.55 117.389C153.55 118.193 153.342 118.907 152.926 119.531C152.514 120.155 151.916 120.647 151.13 121.007C150.349 121.368 149.404 121.548 148.295 121.548C147.232 121.548 146.312 121.38 145.536 121.042C144.759 120.705 144.152 120.226 143.713 119.607C143.274 118.983 143.031 118.244 142.985 117.389H145.134C145.175 117.902 145.342 118.329 145.633 118.671C145.929 119.009 146.305 119.261 146.763 119.427C147.225 119.589 147.731 119.67 148.281 119.67C148.886 119.67 149.425 119.575 149.896 119.385C150.372 119.191 150.747 118.923 151.019 118.581C151.292 118.235 151.428 117.83 151.428 117.368C151.428 116.947 151.308 116.603 151.068 116.335C150.832 116.067 150.511 115.845 150.104 115.67C149.702 115.494 149.247 115.339 148.739 115.205L147.061 114.748C145.924 114.438 145.023 113.983 144.357 113.382C143.697 112.781 143.366 111.986 143.366 110.997C143.366 110.179 143.588 109.465 144.032 108.855C144.475 108.245 145.076 107.772 145.834 107.434C146.592 107.092 147.447 106.921 148.399 106.921C149.36 106.921 150.208 107.09 150.943 107.427C151.682 107.765 152.265 108.229 152.69 108.821C153.115 109.408 153.337 110.082 153.355 110.845H151.29ZM168.227 114.214C168.227 115.73 167.95 117.033 167.395 118.124C166.841 119.21 166.08 120.046 165.114 120.633C164.153 121.215 163.06 121.507 161.835 121.507C160.606 121.507 159.509 121.215 158.543 120.633C157.581 120.046 156.823 119.207 156.269 118.117C155.714 117.026 155.437 115.725 155.437 114.214C155.437 112.698 155.714 111.397 156.269 110.311C156.823 109.22 157.581 108.384 158.543 107.802C159.509 107.215 160.606 106.921 161.835 106.921C163.06 106.921 164.153 107.215 165.114 107.802C166.08 108.384 166.841 109.22 167.395 110.311C167.95 111.397 168.227 112.698 168.227 114.214ZM166.106 114.214C166.106 113.059 165.919 112.086 165.544 111.295C165.175 110.501 164.666 109.9 164.019 109.493C163.377 109.082 162.649 108.876 161.835 108.876C161.017 108.876 160.287 109.082 159.645 109.493C159.003 109.9 158.494 110.501 158.12 111.295C157.75 112.086 157.565 113.059 157.565 114.214C157.565 115.369 157.75 116.344 158.12 117.139C158.494 117.93 159.003 118.53 159.645 118.942C160.287 119.348 161.017 119.552 161.835 119.552C162.649 119.552 163.377 119.348 164.019 118.942C164.666 118.53 165.175 117.93 165.544 117.139C165.919 116.344 166.106 115.369 166.106 114.214ZM182.475 111.732H180.312C180.229 111.27 180.074 110.863 179.847 110.512C179.621 110.161 179.344 109.863 179.015 109.618C178.687 109.373 178.32 109.188 177.913 109.063C177.511 108.938 177.084 108.876 176.631 108.876C175.813 108.876 175.08 109.082 174.433 109.493C173.791 109.904 173.283 110.507 172.908 111.302C172.538 112.097 172.354 113.068 172.354 114.214C172.354 115.369 172.538 116.344 172.908 117.139C173.283 117.934 173.793 118.535 174.44 118.942C175.087 119.348 175.815 119.552 176.624 119.552C177.072 119.552 177.497 119.492 177.899 119.371C178.306 119.247 178.673 119.064 179.002 118.824C179.33 118.584 179.607 118.29 179.833 117.943C180.065 117.592 180.224 117.19 180.312 116.737L182.475 116.744C182.359 117.442 182.135 118.084 181.802 118.671C181.474 119.254 181.051 119.757 180.534 120.183C180.021 120.603 179.434 120.929 178.773 121.16C178.112 121.391 177.391 121.507 176.61 121.507C175.381 121.507 174.285 121.215 173.324 120.633C172.363 120.046 171.605 119.207 171.05 118.117C170.5 117.026 170.225 115.725 170.225 114.214C170.225 112.698 170.503 111.397 171.057 110.311C171.612 109.22 172.37 108.384 173.331 107.802C174.292 107.215 175.385 106.921 176.61 106.921C177.363 106.921 178.066 107.03 178.717 107.247C179.374 107.46 179.963 107.774 180.485 108.19C181.007 108.601 181.439 109.105 181.781 109.701C182.123 110.293 182.355 110.97 182.475 111.732ZM186.965 107.115V121.312H184.823V107.115H186.965ZM190.845 121.312H188.756L193.45 108.268H195.724L200.418 121.312H198.329L194.641 110.638H194.539L190.845 121.312ZM191.196 116.204H197.972V117.86H191.196V116.204ZM199.92 109.962V108.268H210.015V109.962H205.945V121.312H203.984V109.962H199.92ZM214.017 108.268V121.312H212.049V108.268H214.017ZM228.017 114.79C228.017 116.183 227.762 117.381 227.253 118.383C226.743 119.38 226.044 120.149 225.157 120.688C224.274 121.223 223.27 121.491 222.144 121.491C221.015 121.491 220.006 121.223 219.119 120.688C218.236 120.149 217.539 119.378 217.03 118.376C216.52 117.374 216.266 116.179 216.266 114.79C216.266 113.398 216.52 112.202 217.03 111.204C217.539 110.202 218.236 109.434 219.119 108.899C220.006 108.359 221.015 108.09 222.144 108.09C223.27 108.09 224.274 108.359 225.157 108.899C226.044 109.434 226.743 110.202 227.253 111.204C227.762 112.202 228.017 113.398 228.017 114.79ZM226.068 114.79C226.068 113.729 225.896 112.835 225.552 112.109C225.212 111.379 224.745 110.827 224.151 110.453C223.56 110.075 222.892 109.886 222.144 109.886C221.393 109.886 220.722 110.075 220.132 110.453C219.541 110.827 219.074 111.379 218.73 112.109C218.391 112.835 218.221 113.729 218.221 114.79C218.221 115.852 218.391 116.748 218.73 117.478C219.074 118.204 219.541 118.756 220.132 119.134C220.722 119.508 221.393 119.695 222.144 119.695C222.892 119.695 223.56 119.508 224.151 119.134C224.745 118.756 225.212 118.204 225.552 117.478C225.896 116.748 226.068 115.852 226.068 114.79ZM240.802 108.268V121.312H238.993L232.362 111.746H232.241V121.312H230.273V108.268H232.095L238.732 117.848H238.853V108.268H240.802Z" fill="#191618"/>
</svg>
