<svg width="413" height="401" viewBox="0 0 413 401" fill="none" xmlns="http://www.w3.org/2000/svg">
<rect width="319.976" height="319.977" rx="6" transform="matrix(1 0 0 -1 0.370117 320.238)" fill="#EE311A"/>
<path d="M181.021 277.605H193.254L187.227 258.557L181.021 277.605ZM193.307 246.881L210.669 296.043H199.19L196.177 286.429H178.151L175.013 296.043H163.803L181.308 246.881H193.307Z" fill="#B6B4AD"/>
<path d="M225.43 259.649V265.998C228.569 260.331 231.78 258.77 236.282 258.77C236.838 258.77 237.107 258.77 237.519 258.824V268.94C236.425 268.796 235.6 268.725 234.703 268.725C228.426 268.725 225.968 271.738 225.968 279.038V296.041H215.996V259.649H225.43Z" fill="#B6B4AD"/>
<path d="M248.405 248.619C249.3 245.848 253.219 245.848 254.114 248.619L259.114 270.379C259.308 270.979 259.308 271.624 259.114 272.224L254.114 293.984C253.219 296.754 249.3 296.754 248.405 293.984L243.405 272.224C243.211 271.624 243.211 270.979 243.405 270.379L248.405 248.619Z" fill="#B6B4AD"/>
<path d="M282.612 274.124C282.396 269.622 279.957 266.752 275.509 266.752C271.33 266.752 268.962 269.55 268.335 274.124H282.612ZM275.437 258.681C286.45 258.681 293.194 265.317 292.781 280.527H268.066C268.137 285.603 270.792 289.28 276.119 289.28C278.648 289.28 281.374 288.401 282.54 285.531H292.727C292.118 291.881 286.235 297.279 276.047 297.279C267.581 297.279 258.219 292.293 258.219 278.16C258.219 265.927 265.465 258.681 275.437 258.681Z" fill="#B6B4AD"/>
<path d="M310.466 289.155C311.004 289.155 311.901 289.155 312.314 289.065V296.455C310.807 296.514 309.306 296.538 307.812 296.526C300.35 296.526 297.965 292.096 297.965 287.182V246.88H307.812V285.729C307.812 288.061 308.816 289.155 310.466 289.155Z" fill="#B6B4AD"/>
<path d="M343.27 268.601H354.533C359.591 268.601 362.587 267.22 362.587 262.449C362.587 257.678 360.398 255.687 354.749 255.687H343.27V268.601ZM357.134 246.881C368.057 246.881 373.241 252.961 373.241 260.942C373.241 266.682 370.317 271.058 365.6 272.619C369.905 274.323 371.877 277.21 371.877 284.438L371.806 287.38C371.806 290.931 372.147 293.998 373.241 296.043H362.318C361.851 294.823 361.224 292.025 361.224 289.012L361.152 284.833C361.098 278.771 359.591 276.995 353.439 276.995H343.27V296.043H332.885V246.881H357.134Z" fill="#B6B4AD"/>
<path d="M402.135 274.124C401.937 269.622 399.48 266.752 395.032 266.752C390.871 266.752 388.485 269.55 387.876 274.124H402.135ZM394.978 258.681C405.955 258.681 412.735 265.317 412.322 280.527H387.607C387.66 285.603 390.315 289.28 395.642 289.28C398.171 289.28 400.915 288.401 402.081 285.531H412.251C411.623 291.881 405.758 297.279 395.588 297.279C387.104 297.279 377.76 292.293 377.76 278.16C377.76 265.927 384.988 258.681 394.978 258.681Z" fill="#B6B4AD"/>
<path fill-rule="evenodd" clip-rule="evenodd" d="M299.183 209.322C299.147 209.215 297.138 208.121 296.851 206.991C297.569 207.314 302.734 209.573 302.555 209.233C302.322 209.179 291.004 201.574 289.731 195.153C289.569 194.812 288.816 194.023 288.493 193.772C287.471 191.799 286.054 190.49 285.103 188.355C284.44 187.674 283.525 184.696 283.597 185.181C283.776 185.055 284.547 185.181 284.834 185.109C284.942 184.176 281.803 180.966 282.09 181.181C281.032 180.356 279.382 177.594 279.382 177.594C279.453 173.971 273.929 167.334 273.337 166.276C272.943 165.953 271.562 163.209 271.669 161.469C270.916 160.016 267.849 154.941 267.705 153.793C266.862 152.34 266.504 151.335 266.396 151.156C266.611 148.753 260.872 140.951 261.338 135.695C260.782 134.009 259.993 130.996 259.993 130.996C258.719 129.22 257.679 125.185 257.338 124.557L258.02 123.015C257.374 121.275 257.213 119.571 256.495 117.168C256.19 115.41 256.262 113.078 256.585 111.679C257.177 112.45 257.823 115.284 258.379 117.329C258.504 117.706 259.688 122.369 259.939 122.441C260.244 123.409 260.764 124.378 260.8 125.221C261.984 129.167 263.419 135.606 263.58 136.018C264.459 137.776 264.387 139.175 264.513 140.251C265.589 141.794 268.082 150.618 269.194 153.219C268.746 151.228 269.571 149.721 269.068 147.892C268.512 146.708 266.414 139.839 266.557 140.072C266.36 139.211 265.463 135.373 265.302 133.884C264.818 133.364 264.118 130.225 264.297 130.691C264.728 130.53 262.647 124.808 262.486 124.342C262.468 124.557 261.733 118.925 261.499 118.082C261.428 117.993 260.531 118.298 260.387 117.813C260.19 117.042 259.652 114.997 259.347 114.531C259.132 113.634 259.706 114.029 259.509 113.204C259.401 112.917 258.271 110.908 257.912 109.599C257.858 109.581 256.962 102.424 256.244 99.0523C256.137 98.9985 256.208 99.4468 256.119 99.124C255.868 97.8326 254.953 94.4607 254.809 93.5997C255.114 94.1557 254.379 89.9408 254.325 89.7614C254.379 89.5642 252.98 87.4298 252.89 86.9814C252.711 84.3448 252.119 76.5785 252.227 76.74C251.168 75.0002 250.953 72.9555 250.487 72.4533C250.056 70.4624 249.106 65.4583 248.891 64.974C248.819 64.3462 246.595 58.4453 246.595 57.9072C246.075 57.1898 245.519 53.2977 245.25 52.2215C244.55 51.5759 243.528 48.8855 243.223 47.881C243.008 47.4685 242.362 47.5223 242.218 47.4685C242.129 47.2533 240.73 42.6258 240.73 42.6258C240.497 40.7246 233.143 32.4741 230.147 30.5908C229.233 30.0707 228.802 28.9945 228.462 28.5461C226.058 26.1248 220.121 23.7572 216.337 23.9725C212.212 23.7931 211.279 24.5464 208.588 24.5464C204.84 25.497 200.374 26.0172 198.903 27.2727L195.621 29.2456C194.832 28.9048 192.303 31.7028 190.635 33.0301C189.935 34.6802 177.739 52.365 174.725 60.6335C174.725 62.3553 171.067 70.0678 170.493 70.9108C170.259 71.2336 168.699 75.4844 168.43 76.1481C167.067 78.6412 167.192 80.2375 166.242 82.1745C166.027 82.2284 165.255 82.8023 165.255 82.8023L160.718 91.6268L160.484 93.528C160.018 94.6759 156.61 102.263 156.61 102.263C156.216 103.195 155.05 104.935 154.835 105.724C154.87 105.276 146.835 123.624 143.499 130.243C142.997 132.861 139.535 136.969 139.499 136.754C138.961 137.435 138.746 138.906 138.136 139.534C137.526 140.448 134.154 144.95 133.58 146.349C133.616 146.421 132.989 147.013 133.06 147.569C131.59 149.452 129.796 151.282 127.536 153.649C127.59 153.649 124.254 157.541 123.877 157.38C122.406 159.46 117.635 163.693 117.42 163.819C115.788 164.841 114.909 166.043 113.582 166.94C113.367 167.065 110.676 169.038 110.353 169.379L108.721 171.083C108.488 171.262 107.896 172.195 108.847 171.765C109.69 171.208 113.743 168.159 113.743 168.159C113.743 168.159 117.779 165.182 117.761 165.218C120.146 163.048 124.074 160.16 126.155 157.703C127.949 156.806 131.141 151.533 132.253 150.869C132.917 150.295 134.423 148.089 134.818 147.748C134.764 147.73 139.786 140.52 139.84 140.556C140.827 139.175 144.79 132.646 145.544 131.355L145.58 131.301L145.598 131.265C146.423 129.812 149.221 124.252 149.705 123.266C150.351 121.974 151.229 119.786 152.036 117.903C153.256 114.961 160.395 102.137 160.395 102.137C160.377 102.173 159.641 106.191 159.319 106.352C158.691 108.128 156.61 112.917 156.592 113.006C156.7 112.702 153.059 120.288 153.059 120.199C152.754 120.826 152.18 123.427 151.534 124.073C150.673 124.934 149.185 128.664 148.862 129.131C149.346 128.969 146.351 133.507 146.01 134.207C145.938 134.978 144.216 137.776 144.055 138.224C143.983 138.171 141.813 140.646 141.687 141.094C141.885 140.915 137.58 146.959 137.58 146.69C136.468 148.322 136.163 149.237 135.5 149.901C134.926 151.031 132.702 151.981 132.612 152.34C132.289 153.775 129.294 157.201 127.446 158.331C127.159 158.51 126.424 159.873 126.137 160.178C126.065 160.447 122.496 163.478 122.406 163.657C121.33 165.612 112.972 171.388 110.515 172.948C109.205 173.971 96.6683 181.055 94.1214 182.58C93.7089 182.831 93.4219 183.405 93.099 183.638C93.2963 183.728 96.6683 182.293 96.453 182.687C98.1032 181.755 104.865 177.863 104.775 177.988C105.295 177.899 111.734 174.258 112.362 173.971C112.093 174.67 108.883 177.271 108.255 177.63C107.86 177.952 89.0096 189.431 77.8894 194.292C78.0687 194.525 73.4592 196.193 72.4189 196.534C71.9526 196.929 68.8138 198.597 67.6479 199.224C67.8094 199.153 72.957 198.292 72.8135 198.238C73.0646 198.328 73.4592 198.292 72.7418 198.722C72.7956 198.83 73.513 198.597 74.2125 198.22C77.441 197.144 82.6603 194.4 86.0682 192.767C86.4627 192.57 90.3548 190.992 92.4175 189.449C94.5339 187.871 95.5204 187.871 94.6774 188.696C95.072 188.481 95.3948 188.624 96.0047 188.23C96.3992 187.907 98.695 186.167 98.8385 185.952C99.269 185.719 107.035 181.845 108.004 181.163C113.187 177.863 117.904 172.428 122.46 167.962C126.46 164.052 129.957 159.855 133.347 156.178C135.41 153.775 139.015 150.367 139.302 150.116C140.199 149.076 141.096 147.981 141.687 147.085C142.279 146.17 143.535 144.233 143.822 143.928C144.037 143.802 149.687 137.202 149.992 136.7C149.167 139.3 148.288 142.296 147.05 144.036C146.656 144.592 143.069 148.789 142.871 148.968C142.226 150.116 139.661 152.573 139.697 152.609C137.508 155.138 134.531 158.438 132.433 160.842L132.325 160.77C129.975 163.37 126.281 167.173 123.052 169.738C123.16 169.756 121.169 173.415 120.433 174.042C117.528 176.535 116.218 177.558 112.739 179.907C112.685 179.997 108.99 182.759 108.363 183.279C104.865 185.503 100.381 187.62 97.1705 189.431C92.543 192.086 88.2205 195.261 82.9832 197.682L82.75 197.431C80.777 199.009 76.4724 200.48 76.3469 200.444C75.8985 201.054 72.0422 202.166 70.6074 202.668C68.6703 203.583 63.8635 205.556 63.0025 205.825C62.0699 206.435 58.7159 207.242 57.0119 207.977C56.4918 208.067 55.882 208.031 55.1107 208.336C54.9852 208.479 55.4874 208.39 54.9493 208.659C55.2004 208.641 48.6359 210.847 44.6182 212.067C44.69 212.371 35.1839 215.026 33.767 215.205C32.8522 215.582 31.2918 215.905 29.4624 216.389C29.8569 216.479 27.8302 216.909 26.4671 217.25C25.4088 217.645 25.7676 217.609 25.4447 217.734C25.9828 217.68 17.5708 219.994 17.0507 220.281C15.4006 221.017 14.5217 221.573 14.7728 221.752C16.8175 221.519 19.2927 220.945 20.6738 220.586C21.4271 220.694 24.9425 219.384 25.3012 219.689C26.6823 219.349 30.0363 219.438 31.3815 218.488C31.1483 218.523 36.2601 216.676 38.1254 216.533C40.1342 216.281 44.2954 214.721 44.7079 215.044C46.4656 214.452 48.2413 213.878 49.9631 213.537C50.3756 213.394 55.0749 211.744 55.6668 211.762C56.8864 211.762 60.0431 210.416 62.4824 209.502C62.5362 209.717 69.1546 207.314 70.9661 206.632C71.2351 206.435 72.114 206.166 72.6162 205.968C74.4636 205.179 76.7415 204.211 78.4275 203.332C78.1405 203.744 79.0552 203.152 79.1449 203.117C79.1449 203.117 90.6059 197.521 92.0408 196.642C92.2381 196.606 92.2022 197.341 92.2202 197.377C92.83 197.108 97.4754 194.149 100.166 192.57C101.762 191.817 104.614 190.167 106.049 189.216C106.694 188.553 108.076 187.476 108.076 187.476C110.802 185.701 112.004 184.983 114.192 183.333C115.931 182.167 119.77 179.011 120.272 178.58C122.496 177.091 123.734 175.406 126.496 172.966C126.89 172.733 129.222 170.473 129.348 170.366C131.751 168.016 132.63 166.832 134.818 164.518C135.464 164.249 138.495 161.398 138.692 161.254C139.32 160.393 145.58 151.551 146.189 151.049C146.423 150.851 147.122 149.667 147.409 149.237C149.095 147.408 150.368 146.134 151.893 144.107C152.144 143.444 153.776 141.004 154.135 140.897C154.655 140.09 157.094 135.857 157.902 135.588C157.094 136.987 156.987 138.816 156.467 139.57C156.485 139.821 154.278 143.569 153.453 144.018C153.328 144.305 150.889 148.286 150.099 148.878C149.364 149.99 148.449 151.084 147.606 152.25C145.777 154.779 144.772 157.864 142.513 160.052C141.759 160.752 138.656 163.801 138.244 164.447C137.078 165.433 135.374 166.043 134.854 166.904C135.015 166.742 132.504 169.756 132.128 170.348C132.128 170.348 127.769 173.827 128.182 173.612C126.908 174.939 122.675 178.652 121.294 180.105C122.066 179.549 123.716 179.585 124.218 179.011C125.031 178.473 125.88 177.869 126.765 177.199C127.07 177.109 127.536 177.002 127.984 176.625C128.02 176.571 128.935 175.549 129.132 175.388C129.437 175.172 132.773 172.661 133.545 171.226C135.015 170.33 135.069 169.809 136.988 167.657C137.49 166.868 139.428 164.913 140.324 164.07C141.221 163.729 144.234 161.021 144.952 159.263C145.92 159.066 146.584 156.537 146.727 156.142C148.037 154.438 149.364 152.663 150.476 150.995C150.763 150.887 154.799 145.219 155.337 144.054C156.269 142.977 160.717 133.848 161.74 132.162C161.865 131.821 163.498 128.754 164.089 126.943C164.233 126.548 167.354 119.41 167.82 118.854C168.753 116.486 169.434 114.639 170.511 112.307C170.6 112.253 170.941 111.428 170.995 111.141C171.156 111.087 171.533 108.02 172.25 106.693C172.25 106.747 173.165 106.37 173.291 106.28C173.524 105.635 173.936 105.168 174.187 104.505C174.331 104.003 174.941 101.94 175.012 101.814C175.479 100.738 177.81 94.6759 178.474 93.1693C178.528 93.1513 178.922 93.7073 179.03 93.3845C179.55 92.0931 183.658 81.3136 184.088 80.5244C184.231 80.2554 186.115 79.3586 186.169 79.2331C186.94 77.3318 187.711 74.0137 187.98 73.7447C189.541 71.6103 192.5 66.0501 192.572 65.9246C193.092 64.9381 197.54 56.4903 197.899 55.163C199.136 53.226 202.688 47.4506 202.688 47.4506C203.8 45.6391 205.037 44.3297 207.62 43.0563C209.916 43.7199 211.709 41.1551 214.741 43.7737C217.036 44.2042 219.494 45.5673 220.91 49.1724C221.61 50.0513 222.937 53.3515 223.906 54.4097C224.569 58.3018 226.776 62.7141 227.349 66.0143L225.269 63.6288C225.215 63.6826 223.924 61.4227 223.655 58.9654C223.511 58.6247 222.327 54.0689 221.449 53.226C221.377 52.8314 220.516 51.1633 220.516 51.1633C218.722 47.4147 216.516 45.6749 216.319 45.9619C216.157 46.1951 217.341 48.0963 219.422 51.7731C219.655 52.365 220.05 53.8896 220.157 54.2662L221.807 57.8714L223.673 64.9022C223.655 65.0637 227.045 74.5338 227.601 77.278C227.834 77.7802 230.112 85.3492 229.699 84.578C229.825 85.0264 229.789 88.8826 229.932 89.0261C229.861 88.6135 231.385 93.6715 231.421 93.7253C231.6 94.658 234.434 111.841 234.416 112.235C234.667 113.15 235.977 120.109 236.21 120.486C236.389 119.876 237.322 118.746 237.483 118.477C238.255 121.956 238.864 127.355 239.349 130.494C239.223 131.265 238.972 131.749 239.044 132.503C239.976 133.507 239.636 137.094 240.676 139.928C240.927 140.143 241.519 140.269 241.698 140.108C242.165 141.973 242.272 144.43 242.738 145.919C242.738 145.919 245.16 151.551 245.375 151.676C245.178 150.026 246.039 148.286 246.003 147.964C246.093 148.161 248.173 150.744 248.335 151.587C248.227 151.264 249.07 155.784 248.998 156.86C248.747 156.322 247.689 155.802 247.545 154.851C247.294 153.308 245.393 151.892 245.752 152.143C246.057 153.703 245.859 155.192 246.666 156.949C246.81 157.254 247.563 158.546 247.689 158.833C249.231 160.142 250.523 162.384 250.666 162.922C252.711 166.581 252.478 169.343 252.352 169.307C251.24 167.37 250.487 165.039 248.837 163.37C248.98 164.07 249.178 165.702 249.034 165.882C250.863 170.957 251.993 170.366 254.11 175.423C254.594 174.419 257.894 178.132 258.253 181.629C260.244 184.051 263.652 191.028 264.333 194.131C264.907 194.184 269.463 200.175 271.221 202.507L271.436 203.69C271.597 203.152 275.902 209.645 277.588 210.883C279.31 212.981 281.893 215.528 283.955 216.407C285.139 217.824 288.224 219.259 289.551 219.833C291.811 220.765 293.013 221.357 295.775 221.573C296.618 221.573 296.457 221.339 296.457 221.142C295.811 220.658 292.152 218.039 292.116 217.447C288.78 215.439 280.547 208.408 280.53 208.569L278.503 205.968C277.516 205.359 276.763 204.139 276.709 204.085C276.709 203.906 276.099 201.377 276.243 201.466C276.673 201.897 283.937 208.838 287.865 212.766C291.327 214.685 294.591 217.519 298.358 218.38C297.784 217.734 296.869 216.963 296.152 216.066C293.228 213.95 290.143 211.17 290.143 210.04C289.731 209.753 288.744 207.708 288.314 207.314C288.475 207.403 292.421 209.914 294.878 212.623C296.51 213.214 298.896 215.026 303.398 216.066C303.703 215.69 302.196 214.667 302.752 213.394C303.721 213.555 306.214 214.721 307.344 214.578C309.604 213.914 301.64 211.385 299.183 209.322Z" fill="#B6B4AD"/>
<path d="M25.3005 374.818L24.6907 387.176H2.30664V385.095L3.70564 384.88C4.31546 384.796 4.73995 384.671 4.97909 384.503C5.38564 384.264 5.67859 383.894 5.85795 383.391C6.03731 382.913 6.13297 382.291 6.14493 381.526V351.77C6.14493 351.113 6.06721 350.527 5.91176 350.013C5.75632 349.51 5.44543 349.104 4.97909 348.793C4.68016 348.554 4.2497 348.321 3.68771 348.093C3.12571 347.878 2.66536 347.747 2.30664 347.699V345.618H14.3955V347.699C14.0248 347.723 13.5345 347.824 12.9247 348.004C12.3268 348.171 11.8964 348.327 11.6333 348.47C11.1789 348.709 10.8621 349.11 10.6827 349.672C10.5153 350.234 10.4316 350.838 10.4316 351.483V379.392C10.4316 380.671 10.4794 381.669 10.5751 382.387C10.6468 383.104 10.8501 383.654 11.1849 384.037C11.4958 384.396 11.9562 384.629 12.566 384.736C13.1758 384.844 14.0367 384.892 15.1488 384.88L16.6913 384.826C17.2293 384.79 17.7435 384.713 18.2337 384.593C18.7001 384.485 19.1305 384.324 19.5251 384.109C19.9317 383.905 20.2246 383.648 20.404 383.337C20.954 382.441 21.5997 381.078 22.3411 379.248C23.0705 377.431 23.5787 375.954 23.8656 374.818H25.3005Z" fill="#131416"/>
<path d="M36.062 387.176H26.3586V385.239L27.3451 385.113C27.6919 385.053 27.9789 384.982 28.206 384.898C28.5887 384.719 28.8697 384.408 29.049 383.965C29.2403 383.535 29.336 382.967 29.336 382.261V348.793C29.336 348.087 29.2344 347.43 29.0311 346.82C28.8159 346.186 28.5408 345.702 28.206 345.367C27.9669 345.128 27.5245 344.913 26.8788 344.721C26.2331 344.53 25.7129 344.411 25.3184 344.363V342.497L32.8156 341.852L33.1026 342.282V381.903C33.1026 382.584 33.1863 383.146 33.3537 383.589C33.533 384.031 33.814 384.366 34.1966 384.593C34.4956 384.784 34.7885 384.934 35.0755 385.041C35.3744 385.137 35.7033 385.203 36.062 385.239V387.176Z" fill="#131416"/>
<path d="M53.8185 372.504C53.8185 371.033 53.7169 369.485 53.5136 367.859C53.3223 366.233 53.0174 364.852 52.5989 363.716C52.1804 362.52 51.6184 361.551 50.9129 360.81C50.1955 360.081 49.3345 359.716 48.3301 359.716C47.2898 359.716 46.405 360.087 45.6756 360.828C44.9462 361.569 44.3484 362.58 43.882 363.859C43.4516 365.055 43.1526 366.412 42.9852 367.931C42.8059 369.449 42.7162 370.926 42.7162 372.361C42.7162 374.226 42.8178 375.96 43.0211 377.562C43.2363 379.141 43.5711 380.557 44.0255 381.813C44.4918 383.057 45.0718 384.037 45.7653 384.754C46.4469 385.472 47.3018 385.831 48.3301 385.831C50.0161 385.831 51.3553 384.647 52.3478 382.279C53.3283 379.924 53.8185 376.665 53.8185 372.504ZM57.9976 372.45C57.9976 374.483 57.7764 376.48 57.334 378.441C56.8915 380.402 56.2578 382.064 55.4328 383.427C54.5001 384.982 53.4239 386.142 52.2043 386.907C50.9727 387.672 49.5976 388.055 48.079 388.055C46.8116 388.055 45.6039 387.708 44.456 387.014C43.3081 386.321 42.2917 385.31 41.4069 383.983C40.522 382.668 39.8225 381.072 39.3084 379.194C38.7942 377.305 38.5371 375.195 38.5371 372.863C38.5371 368.343 39.4399 364.654 41.2454 361.796C43.0629 358.927 45.4424 357.492 48.3839 357.492C51.158 357.492 53.4598 358.849 55.2893 361.563C57.0948 364.29 57.9976 367.919 57.9976 372.45Z" fill="#131416"/>
<path d="M59.3619 396.608C59.3619 395.628 59.5472 394.833 59.9179 394.223C60.2766 393.613 60.737 393.302 61.299 393.29C61.7295 393.29 62.1001 393.41 62.411 393.649C62.7219 393.888 62.9969 394.187 63.2361 394.546C63.4393 394.833 63.6546 395.233 63.8818 395.748L64.4378 396.985C65.1074 396.459 65.9085 395.09 66.8412 392.878C67.7739 390.654 68.4494 388.705 68.868 387.031L65.4063 374.619L62.142 363.284C61.8909 362.387 61.4604 361.693 60.8506 361.203C60.2527 360.701 59.6489 360.384 59.0391 360.252V358.315H68.1326V360.36C67.726 360.384 67.2418 360.503 66.6798 360.719C66.1058 360.946 65.8188 361.209 65.8188 361.508C65.8188 361.627 65.8547 361.819 65.9265 362.082L66.1238 362.925C66.6379 364.862 67.4211 367.648 68.4734 371.283C69.5136 374.918 70.3267 377.83 70.9126 380.018L72.7959 373.543C73.4416 371.295 74.171 368.658 74.9841 365.633L75.3966 364.091C75.564 363.445 75.6477 362.883 75.6477 362.405C75.6477 361.902 75.3428 361.43 74.733 360.988C74.1232 360.557 73.5433 360.288 72.9932 360.181V358.315H80.3828V360.127C79.9763 360.222 79.4442 360.557 78.7865 361.131C78.1289 361.705 77.6386 362.524 77.3158 363.588C75.7015 368.969 74.2786 373.878 73.047 378.314C71.7915 382.738 70.8409 385.996 70.1952 388.089C69.3582 390.815 68.6049 392.95 67.9353 394.492C67.2657 396.011 66.614 397.212 65.9803 398.097C65.3704 398.934 64.8085 399.484 64.2943 399.747C63.7921 400.034 63.2719 400.178 62.7339 400.178C61.6816 400.178 60.8566 399.819 60.2587 399.102C59.6608 398.372 59.3619 397.541 59.3619 396.608Z" fill="#131416"/>
<path d="M95.7168 381.579V364.683C95.5973 364.181 95.4239 363.637 95.1967 363.051C94.9576 362.453 94.6526 361.915 94.282 361.437C93.8993 360.959 93.445 360.552 92.9188 360.217C92.4047 359.894 91.7949 359.733 91.0894 359.733C90.2763 359.733 89.5289 360.038 88.8474 360.648C88.1778 361.246 87.5799 362.112 87.0538 363.248C86.5516 364.348 86.157 365.742 85.87 367.427C85.583 369.113 85.4396 370.979 85.4396 373.023C85.4396 374.674 85.5472 376.162 85.7624 377.49C85.9776 378.829 86.3423 380.072 86.8565 381.22C87.3228 382.308 87.9207 383.187 88.6501 383.857C89.3914 384.526 90.2643 384.861 91.2687 384.861C92.3449 384.861 93.2357 384.52 93.9412 383.839C94.6467 383.157 95.2386 382.404 95.7168 381.579ZM103.035 386.637L96.0576 387.283L95.7527 386.888V384.18L95.5913 384.126C94.8978 385.262 94.0368 386.188 93.0085 386.906C91.9802 387.623 90.922 387.988 89.8339 388C88.7099 388 87.6158 387.629 86.5516 386.888C85.4874 386.171 84.5727 385.142 83.8074 383.803C83.0062 382.464 82.3785 380.844 81.9241 378.942C81.4578 377.053 81.2246 374.967 81.2246 372.683C81.2246 370.59 81.4697 368.605 81.96 366.728C82.4622 364.863 83.1497 363.224 84.0226 361.814C84.8477 360.498 85.8521 359.458 87.0359 358.693C88.2316 357.904 89.4452 357.509 90.6768 357.509C91.6095 357.509 92.5183 357.682 93.4031 358.029C94.2999 358.364 95.0711 358.794 95.7168 359.32V349.258C95.7168 348.445 95.6212 347.698 95.4299 347.016C95.2505 346.347 94.9874 345.833 94.6407 345.474C94.27 345.115 93.7678 344.846 93.1341 344.667C92.4884 344.499 91.7949 344.38 91.0535 344.308V342.497L99.2143 341.851L99.5193 342.281V381.202C99.5193 381.884 99.6089 382.464 99.7883 382.942C99.9677 383.42 100.231 383.827 100.577 384.162C100.841 384.401 101.211 384.544 101.69 384.592C102.168 384.664 102.616 384.706 103.035 384.718V386.637Z" fill="#131416"/>
<path d="M110.247 345.653C110.247 346.43 110.073 347.931 109.727 350.155C109.368 352.379 108.973 355.273 108.543 358.836H107.323C106.941 355.512 106.582 352.672 106.247 350.316C105.888 347.961 105.709 346.406 105.709 345.653C105.709 344.756 105.894 343.985 106.265 343.339C106.648 342.694 107.222 342.371 107.987 342.371C108.704 342.371 109.26 342.694 109.655 343.339C110.049 343.985 110.247 344.756 110.247 345.653Z" fill="#131416"/>
<path d="M127.016 373.023C127.578 373.716 128.002 374.524 128.289 375.444C128.588 376.365 128.738 377.489 128.738 378.816C128.738 381.483 128.044 383.671 126.657 385.381C125.282 387.079 123.494 387.928 121.294 387.928C120.146 387.928 119.082 387.623 118.102 387.013C117.133 386.415 116.434 385.859 116.003 385.345L115.609 387.246H114.084L113.887 377.202H115.286C115.405 377.967 115.632 378.864 115.967 379.892C116.326 380.897 116.75 381.818 117.241 382.655C117.755 383.515 118.383 384.239 119.124 384.825C119.865 385.423 120.69 385.716 121.599 385.704C122.891 385.704 123.889 385.273 124.594 384.412C125.288 383.575 125.635 382.356 125.635 380.753C125.635 379.928 125.527 379.223 125.312 378.637C125.085 378.039 124.756 377.513 124.325 377.059C123.883 376.616 123.339 376.216 122.693 375.857C122.048 375.498 121.33 375.139 120.541 374.781C119.895 374.518 119.19 374.141 118.425 373.651C117.659 373.172 116.996 372.61 116.434 371.965C115.836 371.283 115.351 370.446 114.981 369.454C114.61 368.449 114.425 367.277 114.425 365.938C114.425 363.571 115.029 361.568 116.236 359.93C117.444 358.292 119.064 357.473 121.097 357.473C121.886 357.473 122.687 357.622 123.5 357.921C124.313 358.22 124.971 358.567 125.473 358.961L125.94 357.437H127.392L127.697 366.727H126.316C126.029 364.647 125.42 362.955 124.487 361.652C123.542 360.348 122.4 359.697 121.061 359.697C119.949 359.697 119.082 360.103 118.46 360.916C117.815 361.717 117.498 362.686 117.51 363.822C117.51 364.695 117.611 365.43 117.815 366.028C118.018 366.602 118.335 367.098 118.765 367.517C119.16 367.911 119.668 368.276 120.29 368.611C120.9 368.957 121.653 369.346 122.55 369.777C123.447 370.183 124.284 370.661 125.061 371.211C125.85 371.75 126.502 372.353 127.016 373.023Z" fill="#131416"/>
<path d="M160.072 368.107C160.682 369.075 161.131 370.145 161.417 371.317C161.704 372.477 161.848 373.828 161.848 375.371C161.848 379.03 160.909 382.055 159.032 384.446C157.167 386.838 154.847 388.027 152.073 388.016C150.793 388.016 149.514 387.729 148.235 387.155C146.955 386.581 145.855 385.881 144.934 385.056L144.056 387.19H142.441L142.154 372.967H143.786C144.133 374.725 144.528 376.309 144.97 377.72C145.425 379.143 146.022 380.465 146.764 381.684C147.469 382.844 148.288 383.765 149.221 384.446C150.154 385.128 151.242 385.469 152.485 385.469C153.406 385.469 154.213 385.295 154.907 384.948C155.6 384.59 156.162 384.088 156.593 383.442C157.023 382.796 157.346 382.043 157.561 381.182C157.765 380.297 157.866 379.293 157.866 378.169C157.866 376.495 157.543 374.946 156.898 373.523C156.252 372.088 155.289 371 154.01 370.259C153.137 369.757 152.139 369.195 151.015 368.573C149.867 367.975 148.886 367.395 148.073 366.833C146.459 365.793 145.203 364.418 144.307 362.708C143.41 360.986 142.961 358.756 142.961 356.018C142.961 354.428 143.183 352.951 143.625 351.588C144.079 350.225 144.713 349.005 145.526 347.929C146.315 346.912 147.242 346.117 148.306 345.543C149.371 344.969 150.477 344.682 151.624 344.682C152.952 344.682 154.135 344.975 155.176 345.561C156.216 346.159 157.167 346.841 158.028 347.606L158.853 345.615H160.467L160.628 359.408H158.996C158.697 357.829 158.368 356.317 158.01 354.87C157.627 353.435 157.143 352.126 156.557 350.942C155.971 349.818 155.265 348.915 154.44 348.234C153.603 347.564 152.581 347.229 151.373 347.229C150.094 347.229 149 347.827 148.091 349.023C147.194 350.207 146.746 351.659 146.746 353.381C146.746 355.175 147.033 356.664 147.607 357.847C148.193 359.031 149.036 360 150.136 360.753C151.128 361.434 152.097 362.026 153.041 362.529C153.986 363.019 154.901 363.551 155.786 364.125C156.599 364.627 157.376 365.201 158.117 365.847C158.871 366.492 159.522 367.246 160.072 368.107Z" fill="#131416"/>
<path d="M163.409 396.608C163.409 395.628 163.594 394.833 163.965 394.223C164.324 393.613 164.784 393.302 165.346 393.29C165.776 393.29 166.147 393.41 166.458 393.649C166.769 393.888 167.044 394.187 167.283 394.546C167.486 394.833 167.701 395.233 167.929 395.748L168.485 396.985C169.154 396.459 169.955 395.09 170.888 392.878C171.821 390.654 172.496 388.705 172.915 387.031L169.453 374.619L166.189 363.284C165.938 362.387 165.507 361.693 164.897 361.203C164.3 360.701 163.696 360.384 163.086 360.252V358.315H172.179V360.36C171.773 360.384 171.289 360.503 170.727 360.719C170.153 360.946 169.866 361.209 169.866 361.508C169.866 361.627 169.902 361.819 169.973 362.082L170.171 362.925C170.685 364.862 171.468 367.648 172.52 371.283C173.561 374.918 174.374 377.83 174.96 380.018L176.843 373.543C177.488 371.295 178.218 368.658 179.031 365.633L179.444 364.091C179.611 363.445 179.695 362.883 179.695 362.405C179.695 361.902 179.39 361.43 178.78 360.988C178.17 360.557 177.59 360.288 177.04 360.181V358.315H184.43V360.127C184.035 360.222 183.503 360.557 182.833 361.131C182.176 361.705 181.685 362.524 181.363 363.588C179.748 368.969 178.325 373.878 177.094 378.314C175.838 382.738 174.888 385.996 174.242 388.089C173.405 390.815 172.652 392.95 171.982 394.492C171.313 396.011 170.661 397.212 170.027 398.097C169.417 398.934 168.855 399.484 168.341 399.747C167.839 400.034 167.319 400.178 166.781 400.178C165.728 400.178 164.903 399.819 164.306 399.102C163.708 398.372 163.409 397.541 163.409 396.608Z" fill="#131416"/>
<path d="M207.263 387.176H197.524V385.239L198.546 385.131C198.917 385.083 199.222 385.006 199.461 384.898C199.844 384.719 200.125 384.408 200.304 383.965C200.483 383.535 200.573 382.967 200.573 382.261V367.41C200.573 365.366 200.238 363.787 199.569 362.675C198.911 361.563 198.098 361.007 197.129 361.007C196.424 361.007 195.772 361.169 195.174 361.492C194.577 361.802 194.05 362.197 193.596 362.675C193.142 363.13 192.789 363.608 192.538 364.11C192.263 364.624 192.072 365.043 191.964 365.366V381.956C191.964 382.626 192.054 383.176 192.233 383.607C192.436 384.037 192.723 384.366 193.094 384.593C193.369 384.784 193.674 384.934 194.009 385.041C194.331 385.137 194.672 385.203 195.031 385.239V387.176H185.274V385.239L186.224 385.131C186.559 385.083 186.846 385.006 187.085 384.898C187.468 384.719 187.749 384.408 187.928 383.965C188.108 383.535 188.197 382.967 188.197 382.261V364.451C188.197 363.793 188.102 363.183 187.91 362.621C187.719 362.071 187.444 361.617 187.085 361.258C186.834 361.019 186.535 360.852 186.189 360.756C185.83 360.649 185.453 360.571 185.059 360.523V358.604L191.677 357.958L191.964 358.371V362.442H192.054C192.376 361.964 192.783 361.402 193.273 360.756C193.752 360.099 194.206 359.566 194.636 359.16C195.139 358.694 195.73 358.299 196.412 357.976C197.106 357.665 197.883 357.51 198.744 357.51C200.657 357.51 202.074 358.377 202.995 360.11C203.915 361.832 204.376 364.128 204.376 366.998V382.028C204.376 382.698 204.453 383.248 204.609 383.678C204.776 384.085 205.057 384.414 205.452 384.665C205.775 384.856 206.05 384.994 206.277 385.077C206.516 385.149 206.845 385.203 207.263 385.239V387.176Z" fill="#131416"/>
<path d="M224.193 381.579V364.683C224.074 364.181 223.9 363.637 223.673 363.051C223.434 362.453 223.129 361.915 222.759 361.437C222.376 360.959 221.922 360.552 221.395 360.217C220.881 359.894 220.271 359.733 219.566 359.733C218.753 359.733 218.006 360.038 217.324 360.648C216.654 361.246 216.056 362.112 215.53 363.248C215.028 364.348 214.634 365.742 214.347 367.427C214.06 369.113 213.916 370.979 213.916 373.023C213.916 374.674 214.024 376.162 214.239 377.49C214.454 378.829 214.819 380.072 215.333 381.22C215.811 382.308 216.409 383.187 217.127 383.857C217.868 384.526 218.741 384.861 219.745 384.861C220.821 384.861 221.712 384.52 222.418 383.839C223.123 383.157 223.715 382.404 224.193 381.579ZM231.511 386.637L224.534 387.283L224.229 386.888V384.18L224.068 384.126C223.374 385.262 222.513 386.188 221.485 386.906C220.457 387.623 219.399 387.988 218.31 388C217.186 388 216.092 387.629 215.028 386.888C213.964 386.171 213.049 385.142 212.284 383.803C211.483 382.464 210.855 380.844 210.401 378.942C209.934 377.053 209.701 374.967 209.701 372.683C209.701 370.59 209.946 368.605 210.437 366.728C210.939 364.863 211.626 363.224 212.499 361.814C213.324 360.498 214.329 359.458 215.512 358.693C216.708 357.904 217.922 357.509 219.153 357.509C220.086 357.509 220.995 357.682 221.88 358.029C222.776 358.364 223.548 358.794 224.193 359.32V349.258C224.193 348.445 224.098 347.698 223.906 347.016C223.727 346.347 223.464 345.833 223.117 345.474C222.747 345.115 222.244 344.846 221.611 344.667C220.965 344.499 220.271 344.38 219.53 344.308V342.497L227.691 341.851L227.996 342.281V381.202C227.996 381.884 228.086 382.464 228.265 382.942C228.444 383.42 228.713 383.827 229.072 384.162C229.311 384.401 229.676 384.544 230.166 384.592C230.644 384.664 231.093 384.706 231.511 384.718V386.637Z" fill="#131416"/>
<path d="M240.568 346.567C240.568 347.679 240.317 348.647 239.815 349.473C239.312 350.31 238.691 350.728 237.949 350.728C237.256 350.728 236.658 350.333 236.156 349.544C235.653 348.743 235.402 347.84 235.402 346.836C235.402 345.76 235.653 344.821 236.156 344.02C236.658 343.219 237.256 342.818 237.949 342.818C238.715 342.818 239.342 343.195 239.833 343.948C240.311 344.702 240.556 345.574 240.568 346.567ZM243.097 387.174H233.483V385.255L234.434 385.129C234.781 385.093 235.068 385.016 235.295 384.896C235.677 384.717 235.958 384.412 236.138 383.981C236.317 383.527 236.407 382.953 236.407 382.259V364.449C236.407 363.827 236.311 363.259 236.12 362.745C235.928 362.231 235.653 361.794 235.295 361.436C235.044 361.197 234.673 360.999 234.183 360.844C233.704 360.676 233.262 360.575 232.855 360.539V358.602L239.886 357.956L240.155 358.369V381.901C240.155 382.594 240.251 383.162 240.442 383.605C240.622 384.059 240.903 384.394 241.285 384.609C241.596 384.776 241.883 384.914 242.146 385.022C242.433 385.129 242.75 385.207 243.097 385.255V387.174Z" fill="#131416"/>
<path d="M254.773 387.928C251.892 387.928 249.638 386.541 248.012 383.767C246.385 380.993 245.572 377.274 245.572 372.61C245.572 370.578 245.787 368.682 246.218 366.925C246.648 365.155 247.288 363.547 248.137 362.1C248.938 360.725 249.931 359.607 251.114 358.746C252.31 357.909 253.62 357.484 255.042 357.473C256.991 357.473 258.576 358.154 259.795 359.517C261.027 360.868 261.643 362.716 261.643 365.059C261.643 366.04 261.481 366.907 261.159 367.66C260.836 368.401 260.304 368.772 259.562 368.772C258.773 368.772 258.157 368.485 257.715 367.911C257.272 367.313 257.051 366.662 257.051 365.956C257.051 365.083 257.135 364.181 257.302 363.248C257.458 362.315 257.553 361.64 257.589 361.221C257.35 360.623 256.985 360.217 256.495 360.001C256.017 359.798 255.509 359.697 254.971 359.697C254.325 359.697 253.709 359.9 253.123 360.306C252.537 360.701 251.969 361.436 251.419 362.513C250.929 363.493 250.523 364.808 250.2 366.458C249.901 368.12 249.751 370.105 249.751 372.413C249.751 376.036 250.301 378.996 251.401 381.291C252.513 383.587 253.972 384.735 255.778 384.735C257.081 384.735 258.169 384.275 259.042 383.354C259.927 382.433 260.746 381.052 261.499 379.211L262.791 380.431C261.894 382.738 260.722 384.562 259.275 385.901C257.817 387.252 256.316 387.928 254.773 387.928Z" fill="#131416"/>
<path d="M276.154 371.176C275.007 371.655 274.002 372.133 273.141 372.611C272.28 373.089 271.479 373.675 270.738 374.369C270.068 375.038 269.536 375.828 269.141 376.736C268.759 377.645 268.568 378.727 268.568 379.983C268.568 381.597 268.861 382.787 269.446 383.552C270.032 384.317 270.774 384.7 271.67 384.7C272.627 384.7 273.47 384.365 274.199 383.696C274.917 383.026 275.527 382.225 276.029 381.292L276.154 371.176ZM283.203 386.637L281.535 387.444C281.057 387.647 280.513 387.749 279.903 387.749C278.863 387.749 278.026 387.39 277.392 386.673C276.77 385.967 276.37 384.933 276.19 383.57H276.065C275.192 384.969 274.259 386.039 273.267 386.781C272.262 387.522 271.049 387.893 269.626 387.893C268.143 387.893 266.917 387.229 265.949 385.902C264.98 384.574 264.496 382.841 264.496 380.7C264.496 379.588 264.604 378.59 264.819 377.705C265.034 376.832 265.363 376.043 265.805 375.337C266.128 374.74 266.571 374.213 267.133 373.759C267.683 373.317 268.197 372.952 268.675 372.665C269.285 372.342 270.517 371.726 272.37 370.818C274.223 369.921 275.473 369.221 276.119 368.719V365.813C276.119 365.562 276.083 365.078 276.011 364.361C275.927 363.631 275.766 362.944 275.527 362.298C275.252 361.581 274.875 360.953 274.397 360.415C273.895 359.877 273.195 359.608 272.298 359.608C271.664 359.608 271.091 359.757 270.576 360.056C270.038 360.355 269.662 360.678 269.446 361.025C269.446 361.395 269.512 361.969 269.644 362.746C269.763 363.512 269.829 364.211 269.841 364.845C269.841 365.538 269.626 366.166 269.195 366.728C268.765 367.29 268.179 367.571 267.438 367.571C266.768 367.571 266.272 367.224 265.949 366.531C265.626 365.837 265.465 365.066 265.465 364.217C265.465 363.32 265.686 362.459 266.128 361.634C266.571 360.809 267.139 360.074 267.832 359.428C268.442 358.89 269.177 358.43 270.038 358.047C270.899 357.665 271.736 357.473 272.549 357.473C273.685 357.473 274.678 357.587 275.527 357.814C276.364 358.029 277.123 358.514 277.805 359.267C278.51 359.984 279.03 360.965 279.365 362.208C279.724 363.452 279.903 365.048 279.903 366.997C279.903 369.783 279.885 372.252 279.849 374.405C279.813 376.569 279.795 378.931 279.795 381.489C279.795 382.243 279.885 382.847 280.064 383.301C280.244 383.743 280.525 384.126 280.907 384.449C281.111 384.616 281.428 384.712 281.858 384.736L283.203 384.772V386.637Z" fill="#131416"/>
<path d="M297.478 385.92C296.605 386.446 295.774 386.888 294.985 387.247C294.22 387.606 293.269 387.785 292.133 387.785C290.459 387.785 289.281 387.175 288.6 385.956C287.918 384.736 287.577 383.014 287.577 380.79V361.24H283.99V358.424H287.667V349.438H291.344V358.424H297.048V361.24H291.38V377.364C291.38 378.584 291.41 379.594 291.47 380.396C291.529 381.209 291.673 381.92 291.9 382.53C292.115 383.08 292.438 383.51 292.869 383.821C293.299 384.108 293.879 384.252 294.608 384.252C294.943 384.252 295.439 384.21 296.097 384.126C296.743 384.031 297.203 383.917 297.478 383.785V385.92Z" fill="#131416"/>
<path d="M312.689 369.364C312.689 368.264 312.624 367.098 312.492 365.867C312.373 364.611 312.169 363.571 311.882 362.746C311.571 361.849 311.147 361.114 310.609 360.54C310.071 359.978 309.377 359.697 308.528 359.697C307.117 359.697 305.946 360.552 305.013 362.261C304.056 363.959 303.548 366.327 303.488 369.364H312.689ZM317.156 380.377C316.319 382.673 315.201 384.508 313.802 385.883C312.403 387.246 310.794 387.928 308.977 387.928C307.374 387.928 305.969 387.515 304.762 386.69C303.566 385.877 302.574 384.765 301.784 383.354C301.007 381.955 300.427 380.317 300.045 378.44C299.662 376.574 299.471 374.595 299.471 372.503C299.471 370.626 299.674 368.784 300.081 366.979C300.487 365.173 301.091 363.547 301.892 362.1C302.669 360.725 303.62 359.607 304.744 358.746C305.892 357.909 307.165 357.484 308.564 357.473C310.023 357.473 311.273 357.807 312.313 358.477C313.329 359.135 314.172 360.043 314.842 361.203C315.452 362.279 315.912 363.565 316.223 365.059C316.522 366.542 316.671 368.15 316.671 369.884V371.821H303.488C303.488 373.722 303.614 375.444 303.865 376.987C304.104 378.529 304.493 379.892 305.031 381.076C305.569 382.212 306.256 383.103 307.093 383.749C307.942 384.406 308.953 384.735 310.125 384.735C311.32 384.735 312.355 384.329 313.228 383.515C314.088 382.702 314.925 381.238 315.739 379.121L317.156 380.377Z" fill="#131416"/>
<path d="M344.31 387.176H330.697V385.095C331.103 385.059 331.737 384.976 332.598 384.844C333.435 384.725 334.021 384.593 334.356 384.45C334.774 384.258 335.097 383.941 335.324 383.499C335.539 383.068 335.647 382.411 335.647 381.526V360.971H330.625V358.514H331.737C333.184 358.514 334.487 358.126 335.647 357.348C336.795 356.559 337.614 355.716 338.104 354.819H339.79L339.665 359.267L339.611 363.841V381.203C339.611 381.885 339.713 382.495 339.916 383.033C340.131 383.571 340.43 383.965 340.813 384.216C341.171 384.432 341.745 384.629 342.534 384.808C343.324 384.988 343.916 385.083 344.31 385.095V387.176Z" fill="#131416"/>
<path d="M362.785 371.75C362.785 367.182 362.271 363.607 361.242 361.024C360.214 358.429 358.857 357.132 357.171 357.132C355.581 357.132 354.289 358.136 353.297 360.145C352.316 362.142 351.826 364.898 351.826 368.414C351.826 371.57 352.322 374.105 353.315 376.018C354.331 377.932 355.676 378.888 357.35 378.888C358.402 378.888 359.365 378.613 360.238 378.063C361.111 377.513 361.924 376.616 362.677 375.373L362.713 374.906L362.749 373.92L362.767 372.915L362.785 371.75ZM367.071 372.09C367.071 375.474 366.701 378.667 365.959 381.668C365.206 384.658 364.142 387.288 362.767 389.56C361.416 391.784 359.754 393.631 357.781 395.102C355.832 396.573 353.643 397.541 351.216 398.008L350.857 395.371L352.669 394.905C355.563 393.578 357.823 391.539 359.449 388.789C361.087 386.039 362.139 382.547 362.605 378.314C361.493 379.677 360.393 380.676 359.305 381.309C358.205 381.943 356.968 382.26 355.592 382.26C353.404 382.26 351.497 381.022 349.871 378.547C348.257 376.072 347.444 372.951 347.432 369.185C347.432 365.143 348.376 361.741 350.266 358.979C352.131 356.205 354.445 354.818 357.207 354.818C360.22 354.818 362.611 356.373 364.381 359.481C366.175 362.59 367.071 366.793 367.071 372.09Z" fill="#131416"/>
<path d="M385.472 387.176H371.859V385.095C372.265 385.059 372.899 384.976 373.76 384.844C374.597 384.725 375.183 384.593 375.518 384.45C375.936 384.258 376.259 383.941 376.486 383.499C376.702 383.068 376.809 382.411 376.809 381.526V360.971H371.787V358.514H372.899C374.346 358.514 375.649 358.126 376.809 357.348C377.957 356.559 378.776 355.716 379.266 354.819H380.952L380.827 359.267L380.773 363.841V381.203C380.773 381.885 380.875 382.495 381.078 383.033C381.293 383.571 381.592 383.965 381.975 384.216C382.333 384.432 382.907 384.629 383.697 384.808C384.486 384.988 385.078 385.083 385.472 385.095V387.176Z" fill="#131416"/>
<path d="M405.74 371.463C405.74 366.811 405.196 363.212 404.108 360.665C402.996 358.106 401.502 356.827 399.624 356.827C397.711 356.827 396.205 358.106 395.104 360.665C393.992 363.212 393.442 366.811 393.454 371.463C393.454 375.887 393.98 379.432 395.033 382.099C396.097 384.789 397.615 386.134 399.588 386.134C401.561 386.134 403.08 384.789 404.144 382.099C405.208 379.42 405.74 375.875 405.74 371.463ZM407.642 359.84C408.503 361.347 409.142 363.104 409.561 365.113C409.991 367.146 410.206 369.262 410.206 371.463C410.206 374.117 409.943 376.491 409.417 378.583C408.891 380.688 408.174 382.433 407.265 383.82C406.308 385.243 405.19 386.313 403.911 387.031C402.608 387.76 401.167 388.125 399.588 388.125C397.855 388.125 396.306 387.706 394.943 386.869C393.58 386.032 392.474 384.879 391.625 383.408C390.752 381.889 390.088 380.108 389.634 378.063C389.204 376.03 388.988 373.83 388.988 371.463C388.988 369.131 389.198 366.99 389.616 365.041C390.047 363.104 390.71 361.341 391.607 359.75C392.468 358.232 393.58 357.03 394.943 356.145C396.294 355.272 397.849 354.836 399.606 354.836C401.46 354.836 403.038 355.284 404.341 356.181C405.657 357.078 406.757 358.298 407.642 359.84Z" fill="#131416"/>
</svg>
