<svg width="270" height="349" viewBox="0 0 270 349" fill="none" xmlns="http://www.w3.org/2000/svg">
<path d="M151.687 35.2981H129.231V31.7655H151.687V35.2981ZM87.5119 49.7189H79.8357C81.3423 46.9209 84.0323 44.6069 87.5119 42.7236V49.7189ZM205.405 76.3174V89.3216H195.253L195.666 84.9449L204.132 76.3174H205.405ZM91.189 182.391L84.0328 99.0789L127.76 145.192L91.189 182.391ZM186.016 94.7744V96.2446H186.877L178.196 189.332L136.405 145.299L186.016 94.7744ZM80.4805 57.7542H190.464L189.37 69.3944H186.016V85.8962L167.417 104.836V95.9403H120.245V111.329H161.031L132.101 140.78L83.1888 89.268L80.4805 57.7542ZM249.922 274.061L254.531 269.703L185.244 196.74L194.607 96.2446H212.148V69.3944H210.929L269.83 9.38059V0.61077L202.23 69.3944H197.1L198.212 57.5385C199.444 58.0527 200.778 58.3159 202.212 58.3278C207.88 58.3278 212.454 53.7363 212.454 48.0506C212.454 42.3828 207.88 37.7919 202.212 37.7919C198.912 37.7919 196.006 39.3343 194.122 41.7198C187.074 33.4693 173.031 29.6484 159.381 27.9624V35.8181C172.995 37.5579 186.644 41.4505 190.16 49.7189H100.658V38.0251C107.42 36.4109 114.81 35.496 121.536 34.9938V42.9929H159.381V24.0521H121.536V27.102C114.774 27.5504 107.528 28.3929 100.658 29.9712V29.1819H87.5119V34.2757C80.4989 37.4683 74.8853 41.9525 72.177 48.2301C71.9378 48.804 71.7524 49.3004 71.6209 49.7189H63.4422V57.4312H72.7145L74.6872 80.3175L0.00195312 1.63215V10.4217L75.5301 90.1109L84.0865 189.619L4.68408 270.438L9.20309 274.868L84.8035 197.87L87.8523 233.293C87.9958 234.943 89.5922 236.522 91.2602 236.773V248.396H105.538V236.808H159.776C163.506 243.821 170.896 248.61 179.397 248.61C191.648 248.61 201.584 238.692 201.584 226.442C201.584 225.175 201.476 223.937 201.261 222.729L249.922 274.061ZM157.211 226.442C157.211 227.339 157.265 228.223 157.373 229.096H95.2242L91.9061 190.624L132.046 149.729L177.425 197.583L176.797 204.416C165.767 205.69 157.211 215.071 157.211 226.442ZM167.864 226.442C167.864 220.075 173.03 214.891 179.397 214.891C185.765 214.891 190.93 220.075 190.93 226.442C190.93 232.809 185.765 237.974 179.397 237.974C173.03 237.974 167.864 232.809 167.864 226.442ZM171.901 226.442C171.901 230.567 175.254 233.921 179.397 233.921C183.541 233.921 186.895 230.567 186.895 226.442C186.895 222.299 183.541 218.944 179.397 218.944C175.254 218.944 171.901 222.299 171.901 226.442ZM248.397 348.334H21.4355V296.32H248.397V348.334Z" fill="#131416"/>
</svg>
