<svg width="953" height="431" viewBox="0 0 953 431" fill="none" xmlns="http://www.w3.org/2000/svg">
<path d="M569.219 136.314H527.769V69.9509H507.824V154.555H569.219V136.314Z" fill="#27292B"/>
<path d="M643.761 136.671H598.616V120.923H637.789V103.041H598.616V87.8135H643.133V69.9493H578.779V154.535H643.761V136.671Z" fill="#27292B"/>
<path d="M686.502 118.181L696.313 94.29L706.141 118.181H686.502ZM679.273 135.955H713.352L720.939 154.555H741.726L705.621 69.8433L705.352 69.377H687.434L651.078 154.555H671.543L679.273 135.955Z" fill="#27292B"/>
<path d="M769.152 103.419L807.947 154.232L808.216 154.555H824.986V69.9509H805.311V119.418L767.807 70.2558L767.538 69.9509H749.404V154.555H769.152V103.419Z" fill="#27292B"/>
<path d="M488.294 189.889V172.06H423.939V256.664H488.921V238.8H443.723V222.998H482.949V205.116H443.723V189.889H488.294Z" fill="#27292B"/>
<path d="M519.088 205.473L557.884 256.285L558.153 256.662H574.923V172.058H555.247V221.526L517.743 172.363L517.474 172.058H499.395V256.662H519.088V205.473Z" fill="#27292B"/>
<path d="M652.443 189.889V172.06H588.035V256.664H653.017V238.8H607.872V222.998H647.098V205.116H607.872V189.889H652.443Z" fill="#27292B"/>
<path d="M684.692 190.139H702.036C710.824 190.139 715.595 194.085 715.595 201.17C715.595 207.914 710.412 212.057 702.412 212.057H684.692V190.139ZM715.864 256.664H739.235L718.465 226.567C729.263 222.603 736.293 212.147 735.863 200.65C735.863 182.983 723.81 172.419 703.65 172.419H664.801V257.076H684.746V230.495H697.893L715.864 256.664Z" fill="#27292B"/>
<path d="M787.698 258.063C800.952 258.135 813.794 253.382 823.803 244.701H824.054V207.448H786.299V224.864H804.737V235.482C799.858 238.621 794.137 240.217 788.325 240.038C781.635 240.11 775.214 237.401 770.587 232.577C765.977 227.734 763.574 221.205 763.95 214.551V214.282C763.43 201.045 773.743 189.853 787.016 189.261C794.908 189.1 802.531 192.059 808.216 197.512L808.844 198.014L821.417 182.948L820.843 182.374C811.696 174.356 799.768 170.213 787.59 170.823C775.86 170.608 764.524 175.128 756.166 183.36C747.808 191.593 743.127 202.839 743.181 214.551V214.802C742.894 226.586 747.521 237.957 755.969 246.19C764.399 254.422 775.896 258.799 787.698 258.279" fill="#27292B"/>
<path d="M877.662 256.662V222.996L910.287 172.058H887.527L867.797 204.54L848.409 172.058H825.092L857.717 223.355V256.662H877.662Z" fill="#27292B"/>
<path d="M485.799 332.137C480.346 338.145 472.616 341.589 464.509 341.661C457.998 341.535 451.828 338.773 447.434 334.002C443.022 329.213 440.762 322.864 441.174 316.389C440.798 309.95 443.076 303.637 447.47 298.902C451.882 294.184 458.034 291.458 464.509 291.368C472.365 291.548 479.826 294.83 485.279 300.48L485.907 301.054L498.569 286.436L498.067 285.934C489.279 277.056 477.136 272.321 464.653 272.877C452.905 272.554 441.533 277.056 433.175 285.306C424.835 293.575 420.243 304.874 420.458 316.586V316.909C420.889 335.24 432.547 351.436 449.82 357.696C467.11 363.973 486.481 359.059 498.623 345.302L499.197 344.728L486.427 331.886L485.799 332.137Z" fill="#27292B"/>
<path d="M522.156 316.66C522.156 303.297 533.025 292.464 546.423 292.464C559.803 292.464 570.673 303.297 570.673 316.66V316.911C570.619 325.556 565.955 333.519 558.422 337.806C550.907 342.093 541.652 342.039 534.173 337.681C526.694 333.322 522.102 325.305 522.156 316.66ZM546.567 272.681C534.729 272.376 523.25 276.842 514.748 285.057C506.247 293.289 501.422 304.589 501.386 316.409V316.911C501.296 328.695 506.049 339.994 514.515 348.209C522.999 356.406 534.46 360.8 546.262 360.387C558.099 360.692 569.578 356.226 578.08 347.994C586.582 339.779 591.406 328.479 591.442 316.66C591.55 304.858 586.797 293.54 578.313 285.326C569.83 277.111 558.333 272.699 546.513 273.147L546.567 272.681Z" fill="#27292B"/>
<path d="M654.504 322.452C654.504 334.774 648.424 341.518 637.357 341.518C626.291 341.518 620.228 334.577 620.228 321.824V274.115H600.068V322.344C600.068 346.289 613.52 360.01 636.945 360.01C660.369 360.01 674.251 346.074 674.251 321.734V274.115H654.289L654.504 322.452Z" fill="#27292B"/>
<path d="M742.929 323.583L705.425 274.42L705.174 274.115H687.041V358.701H706.771V307.584L745.835 358.701H762.623V274.115H742.929V323.583Z" fill="#27292B"/>
<path d="M837.469 332.138C831.998 338.147 824.268 341.608 816.125 341.662C809.632 341.519 803.462 338.756 799.086 333.985C794.692 329.215 792.432 322.847 792.844 316.39C792.45 309.951 794.709 303.638 799.104 298.903C803.498 294.186 809.65 291.459 816.125 291.37C823.981 291.549 831.442 294.831 836.895 300.481L837.523 301.055L850.239 286.437L849.414 285.827C840.643 276.967 828.537 272.232 816.071 272.77C804.305 272.447 792.934 276.949 784.594 285.2C776.253 293.468 771.644 304.768 771.859 316.498V316.91C771.59 328.497 776.074 339.689 784.289 347.904C792.503 356.118 803.713 360.62 815.336 360.369C828.626 360.961 841.433 355.401 850.042 345.303L850.562 344.729L837.827 331.887L837.469 332.138Z" fill="#27292B"/>
<rect x="858.184" y="274.115" width="19.9447" height="84.6034" rx="3" fill="#27292B"/>
<path d="M910.864 340.48V274.117H890.973V358.721H952.367V340.48H910.864Z" fill="#27292B"/>
<path d="M196.87 408.078C196.547 405.459 194.323 403.504 191.668 403.522C190.736 403.51 189.857 403.72 189.032 404.15L188.404 404.563C188.189 404.706 187.997 404.873 187.83 405.065C187.095 405.872 186.682 406.894 186.628 407.97C186.431 409.351 186.844 410.768 187.776 411.809C188.135 412.227 188.571 412.556 189.086 412.795L189.803 413.046C190.413 413.262 191.035 413.369 191.668 413.369C193.892 413.369 195.883 411.988 196.619 409.89C196.774 409.148 196.774 408.407 196.619 407.666" fill="#F55928"/>
<path d="M174.126 415.342V414.409C173.445 412.149 171.31 410.625 168.925 410.732C167.149 410.75 165.499 411.701 164.566 413.225V413.477C164.531 413.644 164.531 413.817 164.566 413.997V415.449C164.387 416.705 164.728 417.961 165.499 418.965C166.252 419.88 167.311 420.489 168.458 420.723H169.714C171.203 420.723 172.62 420.095 173.606 418.965L173.911 418.552C174.324 417.53 174.395 416.4 174.126 415.342Z" fill="#F55928"/>
<path d="M250.946 400.781C252.524 400.799 254.013 400.153 255.107 399.023C256.004 397.929 256.416 396.53 256.237 395.131C256.273 394.927 256.273 394.724 256.237 394.521V394.001C255.609 391.902 253.654 390.503 251.466 390.575C249.762 390.557 248.148 391.292 247.053 392.602C246.246 393.624 245.924 394.933 246.121 396.225V397.05C246.695 399.417 248.865 401.068 251.304 400.996" fill="#F55928"/>
<circle cx="201.973" cy="72.5156" r="8" fill="#F55928"/>
<circle cx="203.43" cy="86.8633" r="8" fill="#F55928"/>
<circle cx="204.66" cy="99.707" r="8" fill="#F55928"/>
<circle cx="198.713" cy="38.9922" r="8" fill="#F55928"/>
<circle cx="200.457" cy="56.6621" r="8" fill="#F55928"/>
<circle cx="196.682" cy="19.3535" r="8" fill="#F55928"/>
<circle cx="205.861" cy="111.311" r="8" fill="#F55928"/>
<circle cx="188.594" cy="82.0781" r="8" fill="#F55928"/>
<circle cx="191.432" cy="95.6016" r="8" fill="#F55928"/>
<circle cx="193.752" cy="107.416" r="8" fill="#F55928"/>
<circle cx="182.178" cy="51.0117" r="8" fill="#F55928"/>
<circle cx="185.6" cy="67.3203" r="8" fill="#F55928"/>
<circle cx="178.52" cy="32.502" r="8" fill="#F55928"/>
<circle cx="172.52" cy="78.3633" r="8" fill="#F55928"/>
<circle cx="176.891" cy="92.0996" r="8" fill="#F55928"/>
<circle cx="180.826" cy="104.422" r="8" fill="#F55928"/>
<circle cx="162.316" cy="46.2559" r="8" fill="#F55928"/>
<circle cx="167.756" cy="63.1348" r="8" fill="#F55928"/>
<circle cx="156.316" cy="27.4434" r="8" fill="#F55928"/>
<circle cx="184.355" cy="115.51" r="8" fill="#F55928"/>
<circle cx="161.441" cy="90.4336" r="8" fill="#F55928"/>
<circle cx="166.785" cy="103.113" r="8" fill="#F55928"/>
<circle cx="171.934" cy="114.271" r="8" fill="#F55928"/>
<circle cx="148.869" cy="61.3594" r="8" fill="#F55928"/>
<circle cx="155.457" cy="76.6602" r="8" fill="#F55928"/>
<circle cx="141.268" cy="44.084" r="8" fill="#F55928"/>
<circle cx="132.867" cy="25.2539" r="8" fill="#F55928"/>
<circle cx="174.283" cy="12.4668" r="8" fill="#F55928"/>
<path d="M485.799 128.027C480.328 133.999 472.616 137.443 464.509 137.515C458.016 137.371 451.846 134.609 447.452 129.856C443.04 125.085 440.78 118.736 441.174 112.279V112.01C440.816 105.589 443.093 99.2755 447.488 94.5583C451.9 89.8232 458.034 87.097 464.509 86.9894C472.365 87.2046 479.826 90.5048 485.279 96.1726L485.906 96.7286L498.569 82.1287L498.067 81.5548C489.278 72.7124 477.136 67.9773 464.652 68.5512C452.904 68.2463 441.533 72.7303 433.175 80.9988C424.835 89.2493 420.243 100.549 420.458 112.279C420.171 123.884 424.655 135.094 432.852 143.308C441.067 151.523 452.295 156.043 463.935 155.792C477.208 156.366 490.014 150.805 498.623 140.725L499.197 140.151L486.427 127.309L485.799 128.027Z" fill="#27292B"/>
<circle cx="144.926" cy="89.9688" r="8" fill="#F55928"/>
<circle cx="151.869" cy="102.721" r="8" fill="#F55928"/>
<circle cx="158.264" cy="113.947" r="8" fill="#F55928"/>
<circle cx="128.055" cy="60.9121" r="8" fill="#F55928"/>
<circle cx="136.844" cy="76.2461" r="8" fill="#F55928"/>
<circle cx="118.352" cy="43.5488" r="8" fill="#F55928"/>
<circle cx="164.166" cy="124.047" r="8" fill="#F55928"/>
<circle cx="136.268" cy="104.318" r="8" fill="#F55928"/>
<circle cx="144.43" cy="115.615" r="8" fill="#F55928"/>
<circle cx="151.389" cy="125.412" r="8" fill="#F55928"/>
<circle cx="117.992" cy="78.5234" r="8" fill="#F55928"/>
<circle cx="127.688" cy="92.0312" r="8" fill="#F55928"/>
<circle cx="107.006" cy="63.1367" r="8" fill="#F55928"/>
<circle cx="95.2031" cy="46.8145" r="8" fill="#F55928"/>
<circle cx="120.379" cy="107.422" r="8" fill="#F55928"/>
<circle cx="129.863" cy="118.361" r="8" fill="#F55928"/>
<circle cx="138.447" cy="127.992" r="8" fill="#F55928"/>
<circle cx="97.8008" cy="82.2012" r="8" fill="#F55928"/>
<circle cx="109.625" cy="95.4023" r="8" fill="#F55928"/>
<circle cx="84.8477" cy="67.4414" r="8" fill="#F55928"/>
<circle cx="146.283" cy="136.746" r="8" fill="#F55928"/>
<circle cx="115.109" cy="122.969" r="8" fill="#F55928"/>
<circle cx="125.09" cy="132.387" r="8" fill="#F55928"/>
<circle cx="134.195" cy="140.582" r="8" fill="#F55928"/>
<circle cx="91.7012" cy="101.572" r="8" fill="#F55928"/>
<circle cx="103.836" cy="112.764" r="8" fill="#F55928"/>
<circle cx="77.709" cy="88.7852" r="8" fill="#F55928"/>
<circle cx="62.709" cy="74.957" r="8" fill="#F55928"/>
<circle cx="99.8945" cy="129.48" r="8" fill="#F55928"/>
<circle cx="111.332" cy="138.035" r="8" fill="#F55928"/>
<circle cx="121.695" cy="145.693" r="8" fill="#F55928"/>
<circle cx="72.7109" cy="109.5" r="8" fill="#F55928"/>
<circle cx="86.9961" cy="120.01" r="8" fill="#F55928"/>
<circle cx="56.7969" cy="97.8398" r="8" fill="#F55928"/>
<circle cx="131.371" cy="152.617" r="8" fill="#F55928"/>
<circle cx="98.0391" cy="145.82" r="8" fill="#F55928"/>
<circle cx="109.715" cy="153.176" r="8" fill="#F55928"/>
<circle cx="120.318" cy="159.037" r="8" fill="#F55928"/>
<circle cx="70.457" cy="129.768" r="8" fill="#F55928"/>
<circle cx="85.0859" cy="138.143" r="8" fill="#F55928"/>
<circle cx="54.3457" cy="120.119" r="8" fill="#F55928"/>
<circle cx="37.4023" cy="110.434" r="8" fill="#F55928"/>
<circle cx="84.5859" cy="155.254" r="8" fill="#F55928"/>
<circle cx="97.707" cy="161.154" r="8" fill="#F55928"/>
<circle cx="109.303" cy="166.535" r="8" fill="#F55928"/>
<circle cx="53.8242" cy="141.264" r="8" fill="#F55928"/>
<circle cx="70.0312" cy="148.617" r="8" fill="#F55928"/>
<circle cx="35.9023" cy="133.141" r="8" fill="#F55928"/>
<circle cx="120.164" cy="171.361" r="8" fill="#F55928"/>
<circle cx="85.9727" cy="171.629" r="8" fill="#F55928"/>
<circle cx="99.0645" cy="176.078" r="8" fill="#F55928"/>
<circle cx="110.641" cy="179.863" r="8" fill="#F55928"/>
<circle cx="56.0371" cy="161.572" r="8" fill="#F55928"/>
<circle cx="71.9355" cy="166.809" r="8" fill="#F55928"/>
<circle cx="37.9219" cy="155.451" r="8" fill="#F55928"/>
<circle cx="18.5508" cy="148.869" r="8" fill="#F55928"/>
<path d="M73.0942 176.471H71.8387C69.1124 176.471 66.8525 178.569 66.6552 181.296C66.2427 183.914 68.0183 186.389 70.6549 186.838H71.8925C74.5291 186.712 76.6455 184.632 76.8249 182.013C77.0939 179.448 75.4079 177.081 72.879 176.471" fill="#F55928"/>
<path d="M85.8087 179.36C83.0824 179.36 80.8045 181.459 80.6072 184.185C80.3741 186.768 82.078 189.135 84.6069 189.727C85.0255 189.763 85.444 189.763 85.8625 189.727C88.5887 189.727 90.8666 187.628 91.0639 184.902C91.3329 182.302 89.6111 179.898 87.0642 179.306H85.8087" fill="#F55928"/>
<circle cx="101.428" cy="190.104" r="8" fill="#F55928"/>
<path d="M39.0689 169.225C36.3606 169.225 34.0827 171.288 33.8675 173.996C33.5984 176.597 35.3203 179 37.8672 179.592C38.2857 179.628 38.7042 179.628 39.1227 179.592C41.831 179.592 44.091 177.512 44.3241 174.821C44.5932 172.221 42.8713 169.817 40.3065 169.225H39.0689Z" fill="#F55928"/>
<path d="M55.2284 183.304C56.6812 183.591 58.1879 183.251 59.3716 182.354C60.5554 181.457 61.2908 180.112 61.4163 178.641C61.6854 176.04 59.9635 173.637 57.4166 173.045H56.1611C53.4348 173.045 51.157 175.144 50.9776 177.87C50.7265 180.453 52.4304 182.82 54.9773 183.412" fill="#F55928"/>
<path d="M19.4828 165.01C16.7566 165.01 14.4787 167.108 14.2814 169.835C13.8868 172.453 15.6625 174.929 18.2811 175.377H19.5366C22.2629 175.377 24.5408 173.278 24.7381 170.552C24.9712 167.969 23.2673 165.602 20.7204 165.01H19.4828Z" fill="#F55928"/>
<path d="M110.292 195.053C113.018 195.053 115.296 192.954 115.494 190.228C115.745 187.663 114.059 185.296 111.548 184.686H110.292C107.566 184.686 105.288 186.784 105.091 189.511C104.84 192.093 106.561 194.461 109.09 195.053C109.509 195.113 109.927 195.113 110.346 195.053" fill="#F55928"/>
<path d="M71.8392 196.971C71.6598 199.643 73.6866 201.957 76.359 202.154H77.0406C79.9103 202.154 82.2241 199.823 82.2241 196.971C82.3855 194.245 80.3767 191.859 77.6504 191.536C76.1976 191.393 74.7627 191.895 73.6866 192.881C72.5925 193.868 71.9827 195.249 72.0006 196.72" fill="#F55928"/>
<path d="M95.7839 199.106C95.9453 197.778 95.5507 196.451 94.6898 195.411C93.8468 194.388 92.6092 193.761 91.264 193.671C89.7933 193.528 88.3404 193.994 87.2464 194.98C86.1523 195.967 85.5424 197.384 85.5424 198.854C85.399 201.581 87.3898 203.966 90.1161 204.289H91.0129C93.8647 204.289 96.1964 201.957 96.1964 199.106" fill="#F55928"/>
<path d="M103.424 194.91C101.971 194.785 100.518 195.269 99.442 196.256C98.3658 197.242 97.756 198.641 97.756 200.094C97.738 202.713 99.6751 204.937 102.276 205.277H102.957C105.827 205.277 108.159 202.946 108.159 200.094C108.302 197.368 106.329 195 103.639 194.659" fill="#F55928"/>
<path d="M40.2534 193.563C40.092 196.272 42.0649 198.657 44.7732 198.998H45.4548C48.3245 198.998 50.6383 196.684 50.6383 193.815C50.728 191.967 49.8132 190.209 48.2528 189.223C46.6744 188.219 44.7015 188.129 43.0514 188.99C41.4013 189.833 40.3431 191.501 40.2534 193.348" fill="#F55928"/>
<path d="M56.878 195.269C56.7166 197.995 58.7254 200.38 61.4517 200.703H62.0794C64.9492 200.703 67.2629 198.389 67.2629 195.52C67.4244 192.793 65.4155 190.408 62.6893 190.085H62.0256C59.1559 190.085 56.8242 192.417 56.8242 195.269" fill="#F55928"/>
<path d="M21.4545 191.431C21.2931 194.139 23.2661 196.524 25.9744 196.865H26.656C29.5257 196.865 31.8394 194.551 31.8394 191.682C32.0009 190.372 31.6063 189.027 30.7633 188.005C29.9024 186.983 28.6648 186.337 27.3196 186.247C25.8668 186.122 24.414 186.606 23.3378 187.592C22.2617 188.579 21.6518 189.978 21.6698 191.431" fill="#F55928"/>
<path d="M6.12157 194.586H6.80314C9.67288 194.586 11.9866 192.272 11.9866 189.402C12.148 186.676 10.1392 184.291 7.41296 183.968C5.96015 183.842 4.52527 184.327 3.44912 185.313C2.35503 186.3 1.7452 187.681 1.76314 189.151C1.60172 191.86 3.57467 194.245 6.28299 194.586" fill="#F55928"/>
<circle cx="71.3711" cy="214.209" r="8" fill="#F55928"/>
<circle cx="85.7578" cy="214.139" r="8" fill="#F55928"/>
<circle cx="98.6523" cy="214.244" r="8" fill="#F55928"/>
<circle cx="37.5469" cy="213.939" r="8" fill="#F55928"/>
<circle cx="55.4258" cy="214.047" r="8" fill="#F55928"/>
<circle cx="17.7617" cy="213.832" r="8" fill="#F55928"/>
<circle cx="110.328" cy="214.299" r="8" fill="#F55928"/>
<path d="M76.5722 230.854H77.2C80.0698 230.567 82.1503 228.02 81.8633 225.15C81.5764 222.298 79.0295 220.2 76.1597 220.487C73.5411 220.809 71.5681 223.033 71.5861 225.67C71.5861 228.54 73.9177 230.854 76.7875 230.854" fill="#F55928"/>
<path d="M95.5853 224.109C95.5853 222.657 94.9755 221.258 93.8993 220.271C92.8232 219.285 91.3883 218.8 89.9175 218.926C87.2989 219.249 85.3259 221.473 85.3439 224.109C85.3439 226.961 87.6755 229.293 90.5453 229.293H91.0116C93.7379 228.97 95.7467 226.585 95.5853 223.858" fill="#F55928"/>
<path d="M102.08 217.85C99.21 217.958 96.986 220.379 97.0936 223.231C97.2012 226.101 99.6226 228.325 102.492 228.217H103.12C105.99 227.93 108.088 225.365 107.801 222.513C107.514 219.644 104.95 217.563 102.08 217.85Z" fill="#F55928"/>
<path d="M39.9492 228.844C39.9492 231.714 42.2809 234.027 45.1506 234.027H45.7605C48.4867 233.704 50.4955 231.319 50.3341 228.593C50.3521 227.122 49.7422 225.741 48.6481 224.754C47.572 223.768 46.1371 223.266 44.6843 223.409C42.0477 223.714 40.0927 225.956 40.1106 228.593" fill="#F55928"/>
<path d="M56.5742 227.231C56.5742 230.1 58.9059 232.414 61.7756 232.414H62.3855C65.022 232.091 66.9771 229.867 66.9591 227.231C66.9771 225.778 66.3672 224.379 65.2731 223.392C64.197 222.406 62.7621 221.922 61.3093 222.047C58.583 222.37 56.5742 224.755 56.7356 227.482" fill="#F55928"/>
<path d="M31.3197 230.333C31.3197 227.481 28.988 225.149 26.1183 225.149H25.5085C22.6387 225.275 20.4147 227.714 20.5402 230.566C20.6658 233.436 23.1051 235.642 25.9748 235.516H26.5488C29.1853 235.229 31.1762 232.987 31.1583 230.333" fill="#F55928"/>
<path d="M5.18706 227.5C2.56842 227.823 0.595467 230.047 0.613403 232.684C0.613403 235.536 2.94507 237.867 5.81482 237.867H6.42464C9.06123 237.544 11.0162 235.32 10.9983 232.684C11.0162 231.231 10.4064 229.85 9.3482 228.863C8.27204 227.877 6.83717 227.393 5.4023 227.5" fill="#F55928"/>
<path d="M76.5214 240.791C76.3241 238.065 74.0641 235.966 71.3199 235.966H70.1362C67.5713 236.54 65.8315 238.908 66.0826 241.508C66.2441 244.252 68.5219 246.387 71.2661 246.387C71.6727 246.447 72.0732 246.447 72.4678 246.387C75.0327 245.831 76.7725 243.445 76.5214 240.845" fill="#F55928"/>
<path d="M90.6349 237.849C90.4377 235.123 88.1777 233.025 85.4335 233.025H84.3036C81.7208 233.598 79.981 236.002 80.25 238.621C80.4294 241.347 82.7073 243.445 85.4335 243.445H86.6352C89.2001 242.889 90.9399 240.504 90.6888 237.903" fill="#F55928"/>
<path d="M98.3308 230.389H97.1291C94.5822 230.945 92.8424 233.33 93.0756 235.931C93.2729 238.657 95.5508 240.756 98.277 240.756C98.6836 240.816 99.0841 240.816 99.4787 240.756C102.062 240.182 103.801 237.779 103.532 235.16C103.335 232.434 101.057 230.335 98.3308 230.335" fill="#F55928"/>
<path d="M38.4422 242.819H37.2405C34.6935 243.375 32.9538 245.76 33.1869 248.361C33.3842 251.087 35.6621 253.186 38.3883 253.186H39.5901C42.1728 252.612 43.9126 250.208 43.6436 247.59C43.4463 244.863 41.1684 242.765 38.4422 242.765" fill="#F55928"/>
<circle cx="58.3633" cy="247.223" r="8" fill="#F55928"/>
<path d="M19.0707 246.871H17.869C15.2504 247.32 13.4747 249.795 13.8693 252.414C14.0666 255.14 16.3445 257.238 19.0707 257.238C19.4653 257.298 19.8659 257.298 20.2724 257.238C22.909 256.808 24.7205 254.333 24.3259 251.696C24.1287 248.97 21.8508 246.871 19.1245 246.871" fill="#F55928"/>
<path d="M114.74 232.882C114.579 230.138 112.301 228.003 109.539 228.021H108.355C105.79 228.577 104.05 230.945 104.301 233.563C104.463 236.29 106.741 238.424 109.485 238.424C109.891 238.484 110.292 238.484 110.687 238.424C113.251 237.868 114.991 235.482 114.74 232.882Z" fill="#F55928"/>
<circle cx="84.9688" cy="256.521" r="8" fill="#F55928"/>
<circle cx="98.4395" cy="252.18" r="8" fill="#F55928"/>
<circle cx="109.828" cy="248.326" r="8" fill="#F55928"/>
<circle cx="54.6445" cy="265.902" r="8" fill="#F55928"/>
<circle cx="70.6016" cy="260.719" r="8" fill="#F55928"/>
<circle cx="36.8711" cy="271.605" r="8" fill="#F55928"/>
<circle cx="17.707" cy="277.701" r="8" fill="#F55928"/>
<circle cx="82.9648" cy="272.535" r="8" fill="#F55928"/>
<circle cx="96.1641" cy="266.744" r="8" fill="#F55928"/>
<circle cx="108.109" cy="261.561" r="8" fill="#F55928"/>
<circle cx="52.0625" cy="286.061" r="8" fill="#F55928"/>
<circle cx="68.3301" cy="278.957" r="8" fill="#F55928"/>
<circle cx="33.9277" cy="293.988" r="8" fill="#F55928"/>
<circle cx="118.715" cy="256.826" r="8" fill="#F55928"/>
<circle cx="96.2012" cy="282.275" r="8" fill="#F55928"/>
<circle cx="108.512" cy="275.531" r="8" fill="#F55928"/>
<circle cx="119.061" cy="269.416" r="8" fill="#F55928"/>
<circle cx="68.6328" cy="297.971" r="8" fill="#F55928"/>
<circle cx="83.3867" cy="289.684" r="8" fill="#F55928"/>
<circle cx="52.1582" cy="307.242" r="8" fill="#F55928"/>
<circle cx="34.4941" cy="317.484" r="8" fill="#F55928"/>
<circle cx="97.7988" cy="298.795" r="8" fill="#F55928"/>
<circle cx="109.717" cy="290.293" r="8" fill="#F55928"/>
<circle cx="120.25" cy="282.779" r="8" fill="#F55928"/>
<circle cx="70.4336" cy="318.436" r="8" fill="#F55928"/>
<circle cx="84.8672" cy="308.068" r="8" fill="#F55928"/>
<circle cx="54.332" cy="329.916" r="8" fill="#F55928"/>
<circle cx="129.662" cy="275.945" r="8" fill="#F55928"/>
<circle cx="112.781" cy="305.379" r="8" fill="#F55928"/>
<circle cx="123.395" cy="296.41" r="8" fill="#F55928"/>
<circle cx="132.424" cy="288.285" r="8" fill="#F55928"/>
<circle cx="89.0273" cy="326.615" r="8" fill="#F55928"/>
<circle cx="101.512" cy="315.477" r="8" fill="#F55928"/>
<circle cx="74.9414" cy="339.098" r="8" fill="#F55928"/>
<circle cx="60.625" cy="352.264" r="8" fill="#F55928"/>
<circle cx="117.695" cy="321.432" r="8" fill="#F55928"/>
<circle cx="127.57" cy="310.562" r="8" fill="#F55928"/>
<circle cx="136.301" cy="301.02" r="8" fill="#F55928"/>
<circle cx="94.9492" cy="346.291" r="8" fill="#F55928"/>
<circle cx="106.965" cy="333.234" r="8" fill="#F55928"/>
<circle cx="81.6367" cy="360.693" r="8" fill="#F55928"/>
<circle cx="144.145" cy="292.213" r="8" fill="#F55928"/>
<circle cx="133.916" cy="324.695" r="8" fill="#F55928"/>
<circle cx="142.221" cy="313.664" r="8" fill="#F55928"/>
<circle cx="149.396" cy="303.873" r="8" fill="#F55928"/>
<circle cx="114.852" cy="350.289" r="8" fill="#F55928"/>
<circle cx="124.744" cy="336.873" r="8" fill="#F55928"/>
<circle cx="103.779" cy="365.41" r="8" fill="#F55928"/>
<circle cx="91.6758" cy="381.875" r="8" fill="#F55928"/>
<circle cx="142.799" cy="339.779" r="8" fill="#F55928"/>
<circle cx="150.115" cy="327.082" r="8" fill="#F55928"/>
<circle cx="156.572" cy="316.303" r="8" fill="#F55928"/>
<circle cx="126.055" cy="368.674" r="8" fill="#F55928"/>
<circle cx="134.998" cy="353.393" r="8" fill="#F55928"/>
<circle cx="116.391" cy="385.875" r="8" fill="#F55928"/>
<circle cx="162.467" cy="306.004" r="8" fill="#F55928"/>
<circle cx="159.334" cy="339.781" r="8" fill="#F55928"/>
<circle cx="165.145" cy="327.188" r="8" fill="#F55928"/>
<circle cx="170.1" cy="316.051" r="8" fill="#F55928"/>
<circle cx="146.586" cy="368.781" r="8" fill="#F55928"/>
<circle cx="153.336" cy="353.445" r="8" fill="#F55928"/>
<circle cx="138.84" cy="386" r="8" fill="#F55928"/>
<circle cx="130.391" cy="404.832" r="8" fill="#F55928"/>
<circle cx="170.344" cy="352.047" r="8" fill="#F55928"/>
<circle cx="174.775" cy="338.381" r="8" fill="#F55928"/>
<circle cx="178.775" cy="326.109" r="8" fill="#F55928"/>
<circle cx="159.998" cy="384.17" r="8" fill="#F55928"/>
<circle cx="165.5" cy="367.293" r="8" fill="#F55928"/>
<circle cx="154.025" cy="402.914" r="8" fill="#F55928"/>
<circle cx="182.273" cy="315.008" r="8" fill="#F55928"/>
<circle cx="186.475" cy="348.691" r="8" fill="#F55928"/>
<circle cx="189.547" cy="335.205" r="8" fill="#F55928"/>
<circle cx="191.68" cy="323.229" r="8" fill="#F55928"/>
<circle cx="179.674" cy="379.67" r="8" fill="#F55928"/>
<circle cx="183.074" cy="363.344" r="8" fill="#F55928"/>
<circle cx="175.727" cy="398.145" r="8" fill="#F55928"/>
<circle cx="199.803" cy="358.414" r="8" fill="#F55928"/>
<circle cx="201.256" cy="344.119" r="8" fill="#F55928"/>
<circle cx="202.855" cy="331.277" r="8" fill="#F55928"/>
<circle cx="196.322" cy="392.258" r="8" fill="#F55928"/>
<circle cx="198.135" cy="374.342" r="8" fill="#F55928"/>
<circle cx="203.748" cy="319.727" r="8" fill="#F55928"/>
<circle cx="214.949" cy="351.744" r="8" fill="#F55928"/>
<circle cx="215.008" cy="337.861" r="8" fill="#F55928"/>
<circle cx="214.893" cy="325.787" r="8" fill="#F55928"/>
<circle cx="214.93" cy="383.436" r="8" fill="#F55928"/>
<circle cx="214.891" cy="366.699" r="8" fill="#F55928"/>
<path d="M208.869 403.468C209.036 403.611 209.227 403.731 209.443 403.827L209.909 404.096C212.061 404.885 214.465 404.347 216.097 402.751C216.994 401.656 217.424 400.257 217.281 398.858C216.994 396.222 214.752 394.231 212.097 394.249C210.644 394.231 209.245 394.769 208.187 395.756C206.393 397.818 206.393 400.885 208.187 402.948L208.761 403.36" fill="#F55928"/>
<circle cx="214.986" cy="422.461" r="8" fill="#F55928"/>
<circle cx="229.84" cy="358.523" r="8" fill="#F55928"/>
<circle cx="228.279" cy="344.229" r="8" fill="#F55928"/>
<circle cx="226.941" cy="331.367" r="8" fill="#F55928"/>
<circle cx="233.479" cy="392.025" r="8" fill="#F55928"/>
<circle cx="231.547" cy="374.43" r="8" fill="#F55928"/>
<circle cx="235.383" cy="411.682" r="8" fill="#F55928"/>
<circle cx="225.67" cy="319.834" r="8" fill="#F55928"/>
<circle cx="242.953" cy="348.877" r="8" fill="#F55928"/>
<circle cx="240.43" cy="335.385" r="8" fill="#F55928"/>
<circle cx="237.758" cy="323.443" r="8" fill="#F55928"/>
<circle cx="249.568" cy="379.863" r="8" fill="#F55928"/>
<circle cx="246.039" cy="363.576" r="8" fill="#F55928"/>
<circle cx="258.154" cy="418.41" r="8" fill="#F55928"/>
<circle cx="259.379" cy="352.371" r="8" fill="#F55928"/>
<circle cx="254.988" cy="338.684" r="8" fill="#F55928"/>
<circle cx="250.863" cy="326.4" r="8" fill="#F55928"/>
<circle cx="269.939" cy="384.225" r="8" fill="#F55928"/>
<circle cx="264.352" cy="367.545" r="8" fill="#F55928"/>
<circle cx="275.777" cy="403.131" r="8" fill="#F55928"/>
<circle cx="247.256" cy="315.316" r="8" fill="#F55928"/>
<circle cx="270.648" cy="340.139" r="8" fill="#F55928"/>
<circle cx="264.953" cy="327.441" r="8" fill="#F55928"/>
<circle cx="259.844" cy="316.375" r="8" fill="#F55928"/>
<circle cx="283.35" cy="368.889" r="8" fill="#F55928"/>
<circle cx="276.518" cy="353.859" r="8" fill="#F55928"/>
<circle cx="291.145" cy="386.342" r="8" fill="#F55928"/>
<circle cx="299.299" cy="404.008" r="8" fill="#F55928"/>
<circle cx="286.455" cy="340.443" r="8" fill="#F55928"/>
<circle cx="279.488" cy="327.762" r="8" fill="#F55928"/>
<circle cx="273.008" cy="316.787" r="8" fill="#F55928"/>
<circle cx="303.709" cy="369.393" r="8" fill="#F55928"/>
<circle cx="295.029" cy="353.824" r="8" fill="#F55928"/>
<circle cx="313.578" cy="386.449" r="8" fill="#F55928"/>
<circle cx="267.295" cy="306.508" r="8" fill="#F55928"/>
<circle cx="295.088" cy="325.986" r="8" fill="#F55928"/>
<circle cx="287.088" cy="314.76" r="8" fill="#F55928"/>
<circle cx="279.824" cy="304.967" r="8" fill="#F55928"/>
<circle cx="313.688" cy="351.58" r="8" fill="#F55928"/>
<circle cx="303.879" cy="338.182" r="8" fill="#F55928"/>
<circle cx="324.68" cy="366.916" r="8" fill="#F55928"/>
<circle cx="336.922" cy="383.434" r="8" fill="#F55928"/>
<circle cx="310.855" cy="322.938" r="8" fill="#F55928"/>
<circle cx="301.223" cy="312.373" r="8" fill="#F55928"/>
<circle cx="292.744" cy="302.527" r="8" fill="#F55928"/>
<circle cx="333.59" cy="348.211" r="8" fill="#F55928"/>
<circle cx="321.746" cy="334.953" r="8" fill="#F55928"/>
<circle cx="346.678" cy="362.684" r="8" fill="#F55928"/>
<circle cx="284.814" cy="293.596" r="8" fill="#F55928"/>
<circle cx="316.01" cy="307.299" r="8" fill="#F55928"/>
<circle cx="305.799" cy="297.918" r="8" fill="#F55928"/>
<circle cx="296.834" cy="289.828" r="8" fill="#F55928"/>
<circle cx="339.432" cy="328.676" r="8" fill="#F55928"/>
<circle cx="327.209" cy="317.395" r="8" fill="#F55928"/>
<circle cx="353.557" cy="341.27" r="8" fill="#F55928"/>
<circle cx="369.102" cy="355.26" r="8" fill="#F55928"/>
<circle cx="296.57" cy="106.129" r="8" fill="#F55928"/>
<circle cx="288.232" cy="117.176" r="8" fill="#F55928"/>
<circle cx="281.092" cy="127.076" r="8" fill="#F55928"/>
<circle cx="315.527" cy="80.5879" r="8" fill="#F55928"/>
<circle cx="305.707" cy="94.0039" r="8" fill="#F55928"/>
<circle cx="326.59" cy="65.4668" r="8" fill="#F55928"/>
<circle cx="338.486" cy="49.2168" r="8" fill="#F55928"/>
<circle cx="288.701" cy="91.7793" r="8" fill="#F55928"/>
<circle cx="281.254" cy="104.049" r="8" fill="#F55928"/>
<circle cx="275.01" cy="115.24" r="8" fill="#F55928"/>
<circle cx="305.688" cy="62.7598" r="8" fill="#F55928"/>
<circle cx="296.594" cy="78.0391" r="8" fill="#F55928"/>
<circle cx="315.605" cy="45.5215" r="8" fill="#F55928"/>
<circle cx="268.834" cy="125.303" r="8" fill="#F55928"/>
<circle cx="272.207" cy="91.707" r="8" fill="#F55928"/>
<circle cx="266.332" cy="104.334" r="8" fill="#F55928"/>
<circle cx="261.381" cy="115.4" r="8" fill="#F55928"/>
<circle cx="285.551" cy="62.8828" r="8" fill="#F55928"/>
<circle cx="278.523" cy="78.1113" r="8" fill="#F55928"/>
<circle cx="293.221" cy="45.666" r="8" fill="#F55928"/>
<circle cx="301.539" cy="26.9219" r="8" fill="#F55928"/>
<circle cx="261.232" cy="79.3516" r="8" fill="#F55928"/>
<circle cx="256.713" cy="93.0312" r="8" fill="#F55928"/>
<circle cx="252.66" cy="105.301" r="8" fill="#F55928"/>
<circle cx="271.881" cy="47.3887" r="8" fill="#F55928"/>
<circle cx="266.217" cy="64.2109" r="8" fill="#F55928"/>
<circle cx="278.045" cy="28.6289" r="8" fill="#F55928"/>
<circle cx="248.963" cy="116.387" r="8" fill="#F55928"/>
<circle cx="244.842" cy="82.7012" r="8" fill="#F55928"/>
<circle cx="242" cy="96.1367" r="8" fill="#F55928"/>
<circle cx="239.508" cy="108.1" r="8" fill="#F55928"/>
<circle cx="251.914" cy="51.748" r="8" fill="#F55928"/>
<circle cx="248.16" cy="68.0488" r="8" fill="#F55928"/>
<circle cx="256.158" cy="33.2871" r="8" fill="#F55928"/>
<circle cx="260.176" cy="14.0801" r="8" fill="#F55928"/>
<circle cx="231.963" cy="72.875" r="8" fill="#F55928"/>
<circle cx="230.414" cy="87.1699" r="8" fill="#F55928"/>
<circle cx="228.807" cy="100.031" r="8" fill="#F55928"/>
<circle cx="235.773" cy="39.3516" r="8" fill="#F55928"/>
<circle cx="233.844" cy="57.0176" r="8" fill="#F55928"/>
<circle cx="237.783" cy="19.7676" r="8" fill="#F55928"/>
<circle cx="227.768" cy="111.562" r="8" fill="#F55928"/>
<circle cx="216.846" cy="79.459" r="8" fill="#F55928"/>
<circle cx="216.627" cy="93.2324" r="8" fill="#F55928"/>
<circle cx="216.707" cy="105.461" r="8" fill="#F55928"/>
<circle cx="217.033" cy="47.7461" r="8" fill="#F55928"/>
<circle cx="217.033" cy="64.4277" r="8" fill="#F55928"/>
<circle cx="217.256" cy="28.8906" r="8" fill="#F55928"/>
<circle cx="217.258" cy="8.32422" r="8" fill="#F55928"/>
<circle cx="312.707" cy="109.412" r="8" fill="#F55928"/>
<circle cx="302.984" cy="120.029" r="8" fill="#F55928"/>
<circle cx="294.242" cy="129.824" r="8" fill="#F55928"/>
<circle cx="335.396" cy="84.6953" r="8" fill="#F55928"/>
<circle cx="323.559" cy="97.5918" r="8" fill="#F55928"/>
<circle cx="348.914" cy="70.0762" r="8" fill="#F55928"/>
<circle cx="286.311" cy="138.502" r="8" fill="#F55928"/>
<circle cx="317.65" cy="124.996" r="8" fill="#F55928"/>
<circle cx="307.418" cy="134.268" r="8" fill="#F55928"/>
<circle cx="298.27" cy="142.359" r="8" fill="#F55928"/>
<circle cx="341.398" cy="103.904" r="8" fill="#F55928"/>
<circle cx="328.994" cy="114.934" r="8" fill="#F55928"/>
<circle cx="355.598" cy="91.3145" r="8" fill="#F55928"/>
<circle cx="370.176" cy="78.5254" r="8" fill="#F55928"/>
<path d="M131.635 187.394C131.671 188.076 131.863 188.716 132.209 189.314C131.779 189.134 131.343 188.979 130.9 188.847H129.25C130.159 188.584 130.954 188.118 131.635 187.448V187.394ZM207.899 297.019V296.032C208.282 296.379 208.712 296.672 209.19 296.911C208.616 297.126 208.114 297.455 207.684 297.898V297.019H207.899ZM196.922 296.337C196.659 296.014 196.366 295.721 196.043 295.458C196.522 295.339 196.988 295.183 197.442 294.992V296.75L197.137 296.337H196.922ZM179.524 291.01L179.004 290.436C179.483 290.496 179.955 290.496 180.421 290.436C180.242 290.699 180.098 290.974 179.991 291.261V291.997L179.578 291.154L179.524 291.01ZM271.894 272.303H272.468C272.433 272.614 272.433 272.925 272.468 273.236L271.948 272.518L271.894 272.303ZM258.227 283.19C258.06 282.867 257.851 282.568 257.6 282.293H258.281C258.628 282.329 258.975 282.329 259.321 282.293L259.052 282.67C258.849 283.124 258.694 283.591 258.586 284.069C258.49 283.782 258.371 283.501 258.227 283.226V283.19ZM242.444 291.208C242.3 290.873 242.127 290.544 241.924 290.221C242.462 290.424 243.03 290.55 243.627 290.598C243.412 290.789 243.221 291.01 243.053 291.261C242.874 291.536 242.737 291.829 242.641 292.14V291.208H242.444ZM225.028 295.871C225.064 295.536 225.064 295.189 225.028 294.831C225.494 295.141 225.996 295.351 226.534 295.458C226.128 295.697 225.781 296.008 225.494 296.391L225.243 296.75V295.871H225.028ZM213.495 296.75C213.926 296.558 214.326 296.319 214.697 296.032V296.965C214.661 297.18 214.661 297.401 214.697 297.629C214.302 297.246 213.854 296.953 213.352 296.75H213.495ZM263.985 279.549H262.909C263.028 279.454 263.112 279.334 263.16 279.19C263.291 278.951 263.381 278.694 263.429 278.419L263.895 279.083L264.308 279.459H263.985V279.549ZM248.093 288.768C248.309 288.577 248.5 288.356 248.667 288.105V287.584C248.763 287.907 248.883 288.218 249.026 288.517L249.492 289.145C248.966 288.906 248.416 288.78 247.842 288.768H248.093ZM231.574 294.526C231.981 294.275 232.328 293.964 232.615 293.593V294.579C232.734 294.843 232.872 295.1 233.027 295.351C232.501 295.004 231.933 294.765 231.323 294.633L231.574 294.526ZM190.86 294.059V293.073V293.396C191.123 293.719 191.434 294.012 191.793 294.275C191.195 294.394 190.639 294.597 190.125 294.884L190.429 294.059H190.86ZM174.233 287.8L174.646 286.867C174.753 287.13 174.873 287.387 175.005 287.638C175.148 287.854 175.321 288.045 175.525 288.212C174.915 288.212 174.329 288.332 173.767 288.571L174.341 287.8H174.233ZM158.755 277.791L159.329 276.966C159.412 277.445 159.568 277.911 159.795 278.365C159.388 278.306 158.988 278.306 158.593 278.365H157.965C158.205 278.174 158.432 277.965 158.647 277.738L158.755 277.791ZM150.074 269.72C150.504 269.924 150.952 270.061 151.419 270.133L150.755 270.743C150.576 270.958 150.42 271.185 150.289 271.424C150.384 270.85 150.384 270.282 150.289 269.72H150.074ZM139.85 255.515C140.233 255.838 140.663 256.083 141.142 256.25L140.263 256.771C140.047 256.914 139.856 257.081 139.689 257.273C139.796 256.699 139.796 256.113 139.689 255.515H139.85ZM130.488 233.705L131.474 233.4C131.271 233.902 131.115 234.422 131.008 234.96C130.625 234.47 130.159 234.088 129.609 233.813H130.488V233.705ZM127.851 216.199H128.837C128.479 216.63 128.216 217.114 128.048 217.652C127.737 217.102 127.343 216.618 126.865 216.199H127.797H127.851ZM128.21 204.541C128.317 204.995 128.509 205.408 128.784 205.779H127.116C127.534 205.42 127.899 205.007 128.21 204.541ZM141.715 165.423C141.99 165.626 142.283 165.8 142.594 165.943C142.068 166.086 141.584 166.314 141.142 166.625C141.213 166.027 141.213 165.441 141.142 164.867C141.321 165.082 141.53 165.267 141.769 165.423H141.715ZM148.98 156.15C148.812 156.64 148.71 157.142 148.675 157.657C148.459 157.417 148.214 157.196 147.939 156.993L147.276 156.563C147.861 156.503 148.429 156.365 148.98 156.15ZM153.194 151.702L153.966 152.383C153.428 152.407 152.907 152.527 152.405 152.742C152.549 152.108 152.549 151.487 152.405 150.877L152.979 151.702H153.194ZM161.248 144.294H162.234L161.965 144.653C161.822 144.976 161.702 145.305 161.606 145.64C161.451 145.364 161.278 145.107 161.086 144.868L160.512 144.348H161.248V144.294ZM167.059 140.671L167.687 141.55H165.965L166.234 141.191C166.473 140.749 166.628 140.283 166.7 139.792C166.796 140.079 166.915 140.354 167.059 140.617V140.671ZM183.165 132.744C183.261 133.078 183.399 133.389 183.578 133.676C183.052 133.497 182.514 133.395 181.964 133.371C182.191 133.156 182.382 132.929 182.538 132.69C182.717 132.415 182.855 132.122 182.95 131.811V132.744H183.165ZM200.725 128.278C200.689 128.612 200.689 128.941 200.725 129.264C200.246 128.989 199.744 128.786 199.218 128.654C199.625 128.403 199.989 128.092 200.312 127.722V127.399C200.264 127.698 200.264 127.991 200.312 128.278H200.725ZM218.176 127.452V128.439C217.782 128.092 217.351 127.799 216.885 127.56C217.435 127.321 217.937 126.992 218.392 126.574C218.356 126.861 218.356 127.154 218.392 127.452H218.176ZM246.336 133.927C246.455 134.143 246.611 134.334 246.802 134.501C246.324 134.43 245.857 134.43 245.403 134.501C245.57 134.214 245.708 133.903 245.816 133.569V132.744C245.911 133.09 246.067 133.419 246.282 133.73L246.336 133.927ZM261.761 143.003C261.354 142.943 260.954 142.943 260.559 143.003C260.774 142.764 260.965 142.501 261.133 142.214C261.252 142.01 261.36 141.789 261.456 141.55C261.527 142.028 261.683 142.495 261.922 142.949L261.761 143.003ZM274.908 153.262H274.477C274.657 153.047 274.818 152.82 274.961 152.581V153.352L274.908 153.262ZM147.634 264.591C147.563 265.129 147.563 265.679 147.634 266.241C147.072 265.99 146.486 265.834 145.877 265.774L146.594 265.308C146.893 265.093 147.168 264.854 147.419 264.591H147.634ZM137.088 250.385L138.021 249.865C137.925 250.403 137.925 250.941 138.021 251.479C137.542 251.121 137.004 250.846 136.406 250.654L137.249 250.385H137.088ZM132.73 239.57C133.017 239.929 133.363 240.24 133.77 240.503L132.873 240.808L132.263 241.112C132.514 240.634 132.67 240.12 132.73 239.57ZM129.663 223.607H128.676L127.887 223.858C128.269 223.38 128.568 222.848 128.784 222.262C128.999 222.728 129.292 223.141 129.663 223.499V223.607ZM130.129 199.358C129.698 199.68 129.352 200.081 129.089 200.559C128.921 199.973 128.664 199.435 128.317 198.945H130.129V199.358ZM133.877 181.745L134.864 182.103C134.386 182.366 133.967 182.695 133.608 183.09C133.549 182.48 133.393 181.894 133.142 181.332L133.877 181.745ZM139.061 171.18C138.989 171.647 138.989 172.113 139.061 172.579L138.236 172.113H137.554C138.092 171.946 138.595 171.706 139.061 171.396V171.18ZM177.031 136.474C176.912 136.642 176.828 136.833 176.78 137.048L176.368 136.116C176.2 135.829 176.009 135.566 175.794 135.326C176.38 135.601 177.001 135.739 177.659 135.739L177.031 136.474ZM194.178 130.143C193.795 130.418 193.449 130.729 193.138 131.076V130.143C193.138 129.892 193.138 129.677 192.887 129.479C193.329 129.766 193.813 129.975 194.339 130.107L194.178 130.143ZM211.63 128.08C211.223 128.272 210.823 128.493 210.428 128.744C210.488 128.457 210.488 128.164 210.428 127.865C210.464 127.662 210.464 127.458 210.428 127.255C210.835 127.59 211.271 127.865 211.737 128.08H211.63ZM234.695 130.932V131.919V131.596C234.444 131.285 234.151 131.01 233.816 130.771C234.426 130.627 234.994 130.388 235.52 130.053C235.365 130.328 235.227 130.621 235.108 130.932H234.695ZM251.465 137.407C251.298 137.706 251.161 138.035 251.053 138.393L250.64 137.55C250.485 137.335 250.312 137.132 250.12 136.941C250.73 136.917 251.322 136.797 251.896 136.582C251.669 136.821 251.477 137.078 251.322 137.353L251.465 137.407ZM266.173 146.985C265.934 147.248 265.742 147.541 265.599 147.864C265.503 147.505 265.384 147.146 265.24 146.787C265.635 146.823 266.035 146.823 266.442 146.787H266.173V146.985ZM228.256 128.798V129.121C228.519 129.419 228.812 129.694 229.135 129.946C228.693 130.065 228.262 130.221 227.844 130.412V128.798H228.256ZM206.805 311.726C206.805 314.596 209.119 316.91 211.988 316.91C213.441 316.928 214.84 316.39 215.898 315.403C216.813 314.417 217.315 313.125 217.297 311.78C217.405 309.341 215.647 307.224 213.244 306.848C214.201 306.632 215.049 306.184 215.791 305.502C216.706 304.534 217.208 303.225 217.19 301.879C217.226 301.485 217.226 301.09 217.19 300.696C217.883 301.317 218.679 301.73 219.575 301.933C218.93 302.22 218.362 302.621 217.871 303.135C216.58 304.659 216.293 306.812 217.136 308.623C217.979 310.435 219.809 311.601 221.817 311.619C223.378 311.637 224.884 310.991 225.961 309.861C226.875 308.785 227.306 307.386 227.162 305.969C227.001 303.781 225.387 301.969 223.216 301.575C223.874 301.276 224.442 300.863 224.92 300.337L225.351 299.817C225.255 300.271 225.255 300.72 225.351 301.162C225.763 303.547 227.862 305.251 230.283 305.198C229.542 305.532 228.92 306.017 228.418 306.65C227.449 307.816 227.108 309.377 227.467 310.847C228.023 313.251 230.193 314.955 232.669 314.883C234.372 314.883 235.987 314.148 237.081 312.874C237.978 311.654 238.3 310.13 237.96 308.677C237.565 306.292 235.449 304.57 233.027 304.624C233.769 304.313 234.396 303.828 234.911 303.171C235.861 302.005 236.22 300.445 235.843 298.974C235.748 298.519 235.592 298.089 235.377 297.682C236.184 298.274 237.17 298.579 238.175 298.561C237.744 298.884 237.362 299.249 237.027 299.655C236.005 301.216 235.897 303.225 236.758 304.893C237.619 306.543 239.305 307.619 241.188 307.691C243 307.691 244.704 306.848 245.816 305.413C246.694 304.068 246.892 302.417 246.39 300.893C245.816 298.776 243.861 297.324 241.654 297.377C242.085 297.067 242.468 296.702 242.802 296.283C243.018 295.961 243.209 295.62 243.376 295.261C243.436 295.703 243.556 296.134 243.735 296.552C244.488 298.4 246.3 299.619 248.309 299.602H249.546C248.984 299.96 248.518 300.427 248.147 301.001C247.233 302.561 247.215 304.498 248.093 306.076C248.954 307.673 250.587 308.695 252.416 308.767C254.317 308.767 256.111 307.816 257.187 306.238C258.102 304.677 258.12 302.74 257.259 301.162C256.38 299.566 254.748 298.543 252.936 298.472H251.681C252.219 298.065 252.685 297.599 253.08 297.073C254.012 295.638 254.12 293.826 253.349 292.302C253.181 291.907 252.972 291.542 252.721 291.208C253.247 291.447 253.803 291.566 254.389 291.566C254.76 291.614 255.136 291.614 255.519 291.566L254.801 292.499C253.779 294.077 253.779 296.104 254.801 297.682C255.627 299.261 257.277 300.265 259.052 300.283C261.187 300.337 263.16 299.243 264.254 297.431C265.276 295.853 265.276 293.826 264.254 292.248C263.411 290.669 261.779 289.683 259.985 289.665C259.602 289.629 259.226 289.629 258.855 289.665C259.118 289.402 259.339 289.103 259.519 288.768C259.806 288.266 259.997 287.734 260.093 287.172C260.26 287.614 260.487 288.009 260.774 288.356C262.101 290.436 264.828 291.154 266.998 289.97C266.675 290.329 266.4 290.723 266.173 291.154C265.384 292.84 265.563 294.831 266.639 296.337C267.572 297.629 269.061 298.4 270.639 298.472C272.827 298.49 274.836 297.288 275.84 295.351C276.576 293.79 276.468 291.943 275.553 290.472C274.639 288.983 273.06 288.069 271.321 287.997C270.531 288.021 269.784 288.212 269.079 288.571C269.401 288.212 269.682 287.812 269.921 287.369C270.782 285.701 270.603 283.692 269.455 282.204C269.252 281.929 269.025 281.684 268.774 281.468H269.079C269.808 281.468 270.501 281.313 271.159 281.002L270.854 281.522C270.119 283.28 270.478 285.307 271.787 286.706C272.737 287.782 274.083 288.427 275.518 288.463C277.76 288.445 279.786 287.136 280.719 285.091C281.454 283.334 281.078 281.307 279.786 279.926C278.854 278.85 277.508 278.222 276.091 278.15C275.374 278.186 274.68 278.341 274.011 278.617C274.118 278.485 274.208 278.33 274.28 278.15C274.603 277.457 274.722 276.715 274.639 275.926C275.643 277.361 277.257 278.276 278.997 278.419C280.085 278.395 281.078 278.066 281.974 277.433C281.974 277.433 281.705 277.899 281.598 278.15C280.844 280.105 281.4 282.311 282.997 283.657C283.929 284.482 285.131 284.966 286.387 285.002C288.7 284.966 290.745 283.513 291.57 281.361C292.377 279.424 291.803 277.2 290.171 275.872C289.274 274.993 288.055 274.491 286.799 274.473C285.711 274.497 284.725 274.826 283.84 275.46L284.145 274.796C284.934 272.841 284.36 270.599 282.746 269.254C281.831 268.393 280.629 267.891 279.374 267.855C278.955 267.807 278.537 267.807 278.118 267.855C278.459 266.528 278.316 265.129 277.706 263.909C277.347 263.168 276.863 262.528 276.253 261.99C274.19 259.963 270.962 259.766 268.666 261.524L267.68 262.349C267.381 262.683 267.106 263.03 266.854 263.389C243.448 287.19 206.913 292.284 177.856 275.801C148.8 259.335 134.523 225.419 143.043 193.188C151.58 160.957 180.816 138.501 214.23 138.483H223.055L225.602 138.806L227.216 139.111L229.35 139.523L230.857 139.846L233.027 140.348L234.229 140.725L236.668 141.443L238.121 141.963L240.202 142.68L241.816 143.308L243.681 144.079L245.403 144.868L247.107 145.693L248.829 146.572L250.443 147.451L252.255 148.491L253.707 149.37L255.734 150.769L256.828 151.487L258.801 152.939L259.895 153.729L261.599 155.181L262.801 156.15L264.469 157.657L265.599 158.751L267.052 160.257C267.482 160.628 267.883 161.04 268.253 161.495C268.253 161.8 268.666 162.069 268.827 162.32C268.971 162.595 269.126 162.84 269.294 163.055C269.676 163.414 270.071 163.737 270.478 164.024H270.747C271.739 164.693 272.827 165.04 274.011 165.064C275.518 165.046 276.952 164.472 278.064 163.468C278.662 162.906 279.147 162.266 279.517 161.549C280.127 160.365 280.288 159.002 279.984 157.71H280.827C282.064 157.675 283.23 157.19 284.145 156.365C285.813 155.038 286.405 152.778 285.597 150.823L285.293 150.141C286.154 150.769 287.194 151.11 288.252 151.128C289.508 151.11 290.709 150.626 291.624 149.783C293.238 148.455 293.83 146.249 293.077 144.294C292.288 142.106 290.225 140.653 287.893 140.617C286.638 140.635 285.436 141.12 284.503 141.963C282.889 143.308 282.333 145.55 283.104 147.505L283.427 148.186C282.548 147.541 281.49 147.2 280.414 147.2C279.176 147.236 277.993 147.72 277.078 148.545C276.695 148.856 276.366 149.215 276.091 149.621C276.175 148.856 276.056 148.115 275.733 147.397C275.673 147.218 275.583 147.045 275.464 146.877C276.133 147.2 276.827 147.373 277.544 147.397C278.979 147.379 280.324 146.752 281.239 145.64C282.602 144.276 282.979 142.232 282.226 140.456C281.329 138.393 279.284 137.066 277.024 137.048C275.607 137.048 274.262 137.676 273.347 138.752C272.002 140.115 271.607 142.16 272.361 143.936L272.612 144.402C271.954 144.091 271.261 143.936 270.531 143.936L271.105 143.308C272.199 141.801 272.397 139.828 271.625 138.124C271.386 137.694 271.093 137.299 270.747 136.941C271.428 137.251 272.158 137.425 272.935 137.461C274.513 137.443 276.002 136.654 276.881 135.326C278.046 133.856 278.244 131.829 277.401 130.143C276.396 128.206 274.388 127.004 272.199 127.04C270.478 127.112 268.899 128.026 268.002 129.497C267.088 130.968 266.98 132.779 267.68 134.34C267.907 134.818 268.2 135.237 268.558 135.595C267.853 135.273 267.112 135.099 266.334 135.075C264.738 135.075 263.267 135.882 262.388 137.192C262.514 137.622 262.281 138.071 261.85 138.214C261.438 138.358 260.971 138.16 260.81 137.748C260.649 137.335 260.828 136.869 261.241 136.672C261.037 136.349 260.792 136.056 260.505 135.793C260.912 135.829 261.312 135.829 261.707 135.793C263.482 135.721 265.079 134.734 265.958 133.21C266.854 131.667 266.89 129.802 266.065 128.242C265.025 126.502 263.16 125.426 261.133 125.39C259.357 125.39 257.725 126.358 256.882 127.919C255.878 129.515 255.878 131.524 256.882 133.102C257.061 133.425 257.283 133.718 257.546 133.981C256.649 133.676 255.662 133.676 254.748 133.981C255.035 133.61 255.274 133.216 255.465 132.797C256.254 131.273 256.165 129.443 255.214 128.026C254.819 127.464 254.353 126.98 253.815 126.574C254.21 126.633 254.604 126.633 254.999 126.574C256.99 126.592 258.783 125.408 259.519 123.578C260.272 122.054 260.182 120.242 259.268 118.807C258.191 117.211 256.416 116.243 254.479 116.207C252.488 116.207 250.694 117.426 249.959 119.274C249.188 120.798 249.295 122.61 250.228 124.045C250.61 124.607 251.095 125.073 251.681 125.444H250.443C248.434 125.426 246.641 126.645 245.923 128.493C245.72 128.863 245.576 129.258 245.493 129.677C245.337 129.282 245.152 128.905 244.937 128.547C244.602 128.128 244.219 127.763 243.789 127.452C245.959 127.488 247.896 126.071 248.506 123.991C249.098 122.466 248.883 120.762 247.95 119.435C246.838 117.982 245.134 117.139 243.323 117.139C241.116 117.103 239.143 118.556 238.534 120.673C238.031 122.179 238.265 123.847 239.161 125.175C239.484 125.605 239.867 125.97 240.309 126.269C239.359 126.269 238.408 126.538 237.601 127.04C237.816 126.621 237.99 126.191 238.121 125.749C238.498 124.26 238.157 122.682 237.188 121.498C236.674 120.84 236.035 120.356 235.269 120.045C237.673 120.081 239.735 118.377 240.148 116.009C240.56 114.557 240.238 112.978 239.269 111.812C238.175 110.503 236.561 109.75 234.857 109.786C232.435 109.696 230.337 111.4 229.924 113.785C229.512 115.256 229.835 116.834 230.803 118.036C232.095 118.359 233.045 119.453 233.207 120.78C233.35 122.108 232.669 123.399 231.467 123.991C230.283 124.601 228.83 124.421 227.844 123.525C227.796 123.895 227.796 124.272 227.844 124.654L227.431 124.134C226.929 123.62 226.355 123.226 225.709 122.951C227.88 122.556 229.512 120.744 229.655 118.538C229.835 117.139 229.422 115.704 228.507 114.61C227.431 113.48 225.925 112.835 224.364 112.853C221.71 112.835 219.486 114.79 219.163 117.408C218.983 118.825 219.396 120.242 220.311 121.336C220.825 121.851 221.411 122.251 222.068 122.538C221.112 122.741 220.281 123.172 219.575 123.829C219.623 123.363 219.623 122.897 219.575 122.43C219.593 121.085 219.091 119.794 218.176 118.807C217.447 118.114 216.58 117.665 215.576 117.462C217.961 117.05 219.665 114.951 219.575 112.53C219.593 111.185 219.091 109.893 218.176 108.907C217.154 107.902 215.773 107.346 214.338 107.364C211.468 107.364 209.137 109.678 209.137 112.53C209.119 113.857 209.603 115.131 210.482 116.117C211.235 116.811 212.102 117.277 213.083 117.516C210.715 117.929 209.029 120.027 209.137 122.43C209.077 122.813 209.077 123.196 209.137 123.578C208.455 122.945 207.66 122.526 206.751 122.323C207.421 122.06 208.007 121.665 208.509 121.139C209.8 119.597 210.087 117.462 209.244 115.651C208.383 113.821 206.572 112.655 204.563 112.637C203.02 112.602 201.532 113.229 200.456 114.359C199.541 115.435 199.11 116.87 199.272 118.287C199.397 120.457 200.976 122.269 203.11 122.699C202.464 122.998 201.896 123.411 201.406 123.937L201.03 124.403C201.077 123.961 201.077 123.513 201.03 123.058C200.671 120.673 198.572 118.933 196.151 119.005C196.904 118.682 197.544 118.204 198.07 117.57C198.985 116.368 199.326 114.826 199.003 113.373C198.483 110.933 196.312 109.212 193.819 109.265C192.115 109.265 190.501 110.001 189.407 111.292C188.259 112.835 188.08 114.879 188.923 116.619C189.748 118.341 191.47 119.453 193.407 119.525C192.665 119.884 192.02 120.368 191.47 120.978C190.573 122.179 190.232 123.704 190.537 125.175C190.621 125.569 190.746 125.952 190.914 126.323C190.113 125.82 189.246 125.557 188.313 125.533C188.791 125.234 189.186 124.858 189.497 124.403C190.501 122.843 190.609 120.852 189.748 119.202C188.887 117.57 187.201 116.494 185.354 116.422C183.542 116.404 181.838 117.229 180.726 118.646C179.758 119.937 179.524 121.605 180.098 123.112C180.69 125.228 182.627 126.681 184.833 126.681C184.355 126.98 183.955 127.357 183.632 127.811C183.416 128.122 183.243 128.451 183.112 128.798C183.04 128.355 182.902 127.925 182.699 127.506C181.982 125.623 180.152 124.385 178.125 124.403H176.924C177.51 124.021 178 123.554 178.394 123.004C179.255 121.552 179.381 119.776 178.699 118.233C177.892 116.422 176.117 115.238 174.126 115.184C172.207 115.166 170.413 116.117 169.355 117.713C168.422 119.13 168.297 120.924 169.032 122.43C169.839 124.26 171.615 125.462 173.606 125.533C174 125.569 174.401 125.569 174.807 125.533C174.221 125.892 173.755 126.358 173.408 126.932C172.476 128.349 172.35 130.143 173.085 131.649C173.253 132.092 173.48 132.492 173.767 132.851C173.181 132.576 172.571 132.439 171.938 132.439H170.861L171.579 131.506C172.404 129.928 172.35 128.062 171.471 126.52C170.592 124.995 168.978 124.027 167.22 123.937C165.212 123.973 163.346 125.013 162.288 126.735C161.284 128.313 161.284 130.322 162.288 131.919C163.113 133.515 164.781 134.519 166.593 134.501H167.74C167.454 134.776 167.208 135.087 167.005 135.434C166.718 135.936 166.527 136.474 166.431 137.048C165.714 135.039 163.848 133.694 161.714 133.622C160.949 133.646 160.219 133.82 159.526 134.143C159.873 133.784 160.166 133.383 160.405 132.941C161.301 131.273 161.122 129.246 159.938 127.775C159.006 126.448 157.517 125.641 155.885 125.587C153.715 125.551 151.688 126.753 150.701 128.708C149.805 130.376 150.002 132.403 151.168 133.874C152.118 135.183 153.607 135.954 155.221 136.008C155.986 135.984 156.71 135.811 157.391 135.488C157.045 135.846 156.752 136.259 156.513 136.725C155.67 138.824 156.19 141.227 157.822 142.788H157.14C156.435 142.812 155.759 142.949 155.114 143.2C155.233 143.057 155.323 142.883 155.383 142.68C156.154 140.94 155.795 138.896 154.486 137.515C153.535 136.42 152.19 135.793 150.755 135.739C148.513 135.775 146.486 137.084 145.554 139.111C144.782 140.869 145.123 142.895 146.433 144.294C147.365 145.406 148.728 146.052 150.181 146.052C150.887 146.052 151.562 145.915 152.208 145.64C152.088 145.807 151.999 145.98 151.939 146.16C151.652 146.853 151.514 147.577 151.526 148.33C151.287 147.911 150.994 147.553 150.648 147.254C149.715 146.375 148.495 145.873 147.222 145.855C146.146 145.879 145.159 146.19 144.262 146.787C144.406 146.548 144.525 146.303 144.621 146.052C145.41 144.115 144.854 141.891 143.222 140.564C142.307 139.703 141.106 139.201 139.85 139.165C137.536 139.201 135.474 140.635 134.649 142.788C133.842 144.725 134.398 146.949 135.994 148.276C136.909 149.155 138.11 149.675 139.384 149.729C140.442 149.711 141.482 149.37 142.343 148.742C142.343 148.742 142.074 149.209 141.967 149.478C141.213 151.415 141.769 153.621 143.383 154.966L144.46 155.737C143.491 155.755 142.541 156.078 141.769 156.67C142.469 154.607 141.715 152.312 139.886 151.074C138.989 150.381 137.973 150.022 136.837 149.998C134.451 150.052 132.371 151.612 131.635 153.872C131.008 155.971 131.761 158.213 133.501 159.522C134.38 160.168 135.438 160.544 136.514 160.562C137.536 160.544 138.541 160.221 139.384 159.63C139.133 160.538 139.133 161.453 139.384 162.374C139.049 162.039 138.684 161.746 138.29 161.495C137.453 160.993 136.55 160.736 135.581 160.724C134.182 160.777 132.873 161.387 131.94 162.428V162.159C132.658 159.97 131.671 157.567 129.609 156.527C128.808 156.024 127.923 155.761 126.954 155.737C124.497 155.809 122.363 157.495 121.771 159.881C121.089 162.105 122.094 164.49 124.156 165.584C124.981 166.063 125.866 166.302 126.811 166.302C128.21 166.302 129.537 165.674 130.434 164.598V164.867C129.77 167.073 130.739 169.458 132.783 170.553C133.142 170.744 133.519 170.899 133.913 171.019C133.005 171.294 132.227 171.778 131.582 172.472C131.94 170.266 130.703 168.113 128.622 167.288C127.917 166.965 127.169 166.792 126.38 166.768C123.815 166.75 121.609 168.598 121.197 171.126C120.73 173.476 121.932 175.826 124.102 176.83C124.82 177.141 125.567 177.314 126.344 177.35C127.707 177.279 128.999 176.687 129.914 175.682C129.83 176.627 129.973 177.524 130.344 178.373C129.949 178.157 129.531 177.972 129.089 177.817C128.515 177.601 127.929 177.494 127.331 177.494C125.555 177.565 123.959 178.534 123.062 180.041C123.331 177.709 121.896 175.521 119.636 174.857C118.166 174.391 116.551 174.588 115.242 175.413C113.933 176.256 113.072 177.619 112.874 179.162C112.516 181.619 113.951 183.987 116.318 184.812C116.88 185.015 117.466 185.117 118.076 185.117C119.852 185.027 121.448 184.058 122.345 182.534C122.058 184.847 123.51 187.036 125.77 187.699C126.344 187.867 126.93 187.956 127.528 187.968H127.887C127.151 189.654 125.25 190.515 123.475 189.995C121.699 189.475 120.587 187.717 120.874 185.888H119.636C116.91 185.888 114.632 187.986 114.435 190.713C114.202 193.313 115.942 195.681 118.488 196.255C118.883 196.315 119.284 196.315 119.69 196.255C121.43 196.255 123.044 195.304 123.887 193.762C123.983 194.718 124.312 195.585 124.874 196.362C124.443 196.183 123.995 196.063 123.528 196.004C122.65 198.084 120.497 199.358 118.237 199.124C115.977 198.891 114.112 197.223 113.664 195.017C112.193 194.856 110.74 195.34 109.646 196.326C108.552 197.313 107.942 198.73 107.942 200.183C107.799 202.927 109.789 205.312 112.516 205.635H113.144C113.646 203.304 115.816 201.725 118.184 201.976C120.551 202.209 122.363 204.182 122.381 206.568H123.582C122.889 207.166 122.386 207.907 122.076 208.792C121.43 206.693 119.439 205.294 117.251 205.42C114.381 205.42 112.049 207.734 112.049 210.603C112.049 213.473 114.381 215.787 117.251 215.787C117.036 214.675 117.448 213.545 118.309 212.81C119.17 212.074 120.354 211.859 121.43 212.236C122.488 212.612 123.277 213.527 123.475 214.639H122.129C119.69 214.8 117.771 216.72 117.61 219.159C116.928 217.114 115.045 215.715 112.874 215.626H112.265C109.395 215.751 107.153 218.154 107.278 221.024C107.386 223.876 109.807 226.1 112.677 225.992H113.305C113.395 223.661 115.188 221.742 117.52 221.509C119.852 221.257 122.004 222.746 122.596 225.006H124.461C123.863 225.783 123.499 226.662 123.367 227.643C122.56 226.082 120.928 225.096 119.17 225.114H117.968C115.421 225.67 113.682 228.055 113.915 230.656C114.112 233.364 116.39 235.481 119.116 235.463H120.318C122.488 235.122 124.156 233.31 124.318 231.122C124.796 231.947 125.454 232.587 126.291 233.041C125.836 232.982 125.382 232.982 124.927 233.041C122.721 233.777 121.286 235.893 121.394 238.207C120.587 236.646 118.973 235.66 117.197 235.624C116.599 235.624 116.025 235.726 115.475 235.929C113.108 236.736 111.637 239.104 111.996 241.579C112.283 244.126 114.381 246.081 116.928 246.188C117.526 246.188 118.1 246.087 118.65 245.883C120.946 245.256 122.452 243.067 122.183 240.7C123.277 242.87 125.842 243.857 128.102 242.978C128.497 242.882 128.861 242.727 129.196 242.511C128.802 243.348 128.646 244.227 128.73 245.148C127.833 244.108 126.524 243.498 125.143 243.498C124.389 243.498 123.66 243.653 122.954 243.964C120.766 244.951 119.547 247.318 119.995 249.668C120.39 252.215 122.596 254.098 125.196 254.062C126.631 254.062 128.012 253.47 128.999 252.43C129.985 251.372 130.488 249.955 130.38 248.52C131.026 249.214 131.791 249.698 132.676 249.973C132.245 250.092 131.827 250.266 131.42 250.493C129.358 251.569 128.335 253.955 128.981 256.197V256.448C128.048 255.407 126.703 254.78 125.304 254.744C124.371 254.768 123.505 255.007 122.703 255.461C120.712 256.609 119.726 258.941 120.264 261.165C120.856 263.55 122.99 265.236 125.448 265.308C126.404 265.284 127.289 265.045 128.102 264.591C130.147 263.514 131.151 261.147 130.488 258.941C130.523 258.833 130.523 258.726 130.488 258.618C131.438 259.676 132.765 260.286 134.182 260.34C135.115 260.34 135.982 260.095 136.783 259.604C137.154 259.389 137.501 259.132 137.823 258.833C137.501 259.79 137.501 260.74 137.823 261.685C136.95 261.075 135.976 260.746 134.9 260.699C133.824 260.716 132.765 261.075 131.887 261.739C130.057 262.958 129.268 265.254 129.967 267.335C130.667 269.631 132.765 271.209 135.169 271.263C136.281 271.239 137.285 270.892 138.182 270.222C137.267 269.451 136.873 268.232 137.124 267.066C137.393 265.9 138.29 264.985 139.456 264.68C140.603 264.375 141.841 264.734 142.648 265.613C142.242 265.828 141.859 266.091 141.5 266.402C139.868 267.729 139.276 269.971 140.047 271.944C140.143 272.207 140.263 272.447 140.406 272.662C139.521 272.028 138.535 271.699 137.447 271.675C136.191 271.729 134.989 272.213 134.075 273.074C132.443 274.402 131.887 276.626 132.676 278.563C133.465 280.751 135.545 282.222 137.877 282.258C139.527 282.204 141.07 281.379 142.02 280.016C142.953 278.652 143.204 276.931 142.648 275.352C142.648 275.101 142.379 274.886 142.289 274.635C143.174 275.268 144.161 275.597 145.249 275.621C146.486 275.585 147.652 275.101 148.567 274.276C148.89 273.977 149.165 273.648 149.392 273.29C149.344 274.055 149.47 274.796 149.769 275.514C149.888 275.657 149.972 275.813 150.02 275.98C149.362 275.669 148.669 275.514 147.939 275.514C146.253 275.585 144.711 276.464 143.796 277.863C142.863 279.28 142.702 281.056 143.33 282.616C144.226 284.679 146.253 286.006 148.513 286.024C149.93 285.97 151.275 285.342 152.208 284.266C153.535 282.885 153.93 280.859 153.194 279.083L152.925 278.617C153.595 278.903 154.289 279.059 155.006 279.083H155.634C155.275 279.382 154.964 279.729 154.701 280.123C153.517 281.594 153.302 283.621 154.181 285.307C154.396 285.761 154.671 286.174 155.006 286.544C154.324 286.221 153.601 286.048 152.836 286.024C151.114 286.096 149.536 287.028 148.621 288.481C147.724 289.952 147.598 291.764 148.316 293.342C149.302 295.297 151.311 296.517 153.499 296.499C155.114 296.499 156.62 295.709 157.499 294.364C158.683 292.894 158.88 290.867 158.019 289.199C157.804 288.756 157.529 288.338 157.194 287.943C157.876 288.302 158.605 288.493 159.382 288.517C160.979 288.517 162.467 287.71 163.328 286.347C164.494 284.876 164.727 282.849 163.902 281.163C164.297 281.223 164.691 281.223 165.086 281.163C165.564 281.235 166.049 281.235 166.539 281.163C166.096 281.558 165.714 282.006 165.391 282.509C164.476 284.105 164.476 286.078 165.391 287.692C165.606 288.003 165.851 288.296 166.126 288.571C165.756 288.535 165.373 288.535 164.978 288.571C163.221 288.661 161.606 289.629 160.728 291.154C159.849 292.696 159.813 294.562 160.62 296.14C161.66 297.862 163.526 298.956 165.552 298.974C167.364 298.974 169.014 297.951 169.821 296.337C170.754 294.831 170.754 292.929 169.821 291.423C169.534 291.255 169.235 291.118 168.924 291.01H170.072C170.67 290.998 171.244 290.873 171.794 290.634C171.471 291.016 171.208 291.435 171.005 291.889C170.269 293.414 170.395 295.225 171.328 296.66C171.71 297.234 172.195 297.712 172.78 298.095C172.386 298.047 171.985 298.047 171.579 298.095C169.588 298.077 167.776 299.297 167.059 301.162C166.377 302.687 166.485 304.426 167.328 305.879C168.422 307.457 170.216 308.408 172.153 308.408C174.126 308.426 175.919 307.242 176.673 305.413C177.372 303.87 177.264 302.095 176.404 300.642C175.985 300.08 175.483 299.596 174.897 299.189H176.099C178.09 299.207 179.883 297.987 180.618 296.14C180.618 295.727 180.618 295.351 180.977 294.992C181.121 295.351 181.312 295.68 181.551 295.978C181.886 296.385 182.269 296.75 182.699 297.073C180.511 297.055 178.574 298.49 177.964 300.588C177.408 302.095 177.641 303.799 178.592 305.09C179.686 306.561 181.39 307.404 183.219 307.368C185.407 307.404 187.362 305.969 187.936 303.852C188.439 302.328 188.205 300.678 187.327 299.35C186.992 298.932 186.609 298.567 186.179 298.256C187.135 298.232 188.02 297.975 188.833 297.485C188.618 297.904 188.462 298.334 188.367 298.776C187.99 300.247 188.331 301.808 189.299 302.974C189.814 303.631 190.453 304.133 191.219 304.48C188.833 304.462 186.788 306.166 186.394 308.516C186.017 309.986 186.358 311.529 187.327 312.713C188.403 313.986 190.017 314.704 191.685 314.686C193.622 314.632 195.362 313.52 196.205 311.78C197.066 310.058 196.868 307.996 195.738 306.435C195.212 305.801 194.573 305.323 193.819 305C196.151 304.893 198.124 303.225 198.644 300.947C198.716 300.516 198.716 300.086 198.644 299.655L199.11 300.283C200.276 300.552 201.191 301.467 201.424 302.633C201.675 303.816 201.209 305.018 200.24 305.718C199.272 306.435 197.98 306.507 196.922 305.933C196.779 307.332 197.209 308.731 198.124 309.807C199.2 310.955 200.707 311.583 202.285 311.565C204.94 311.583 207.182 309.592 207.469 306.955C207.702 305.556 207.289 304.139 206.339 303.081C205.836 302.531 205.245 302.113 204.563 301.826C205.52 301.646 206.351 301.216 207.056 300.534C206.984 301.001 206.984 301.467 207.056 301.933C206.841 304.462 208.599 306.722 211.11 307.117C210.237 307.308 209.459 307.685 208.778 308.247C207.684 309.197 207.074 310.596 207.11 312.031L206.805 311.726Z" fill="#F55928"/>
</svg>
