<svg width="2691" height="1094" viewBox="0 0 2691 1094" fill="none" xmlns="http://www.w3.org/2000/svg">
<path fill-rule="evenodd" clip-rule="evenodd" d="M220.582 941.272C220.923 953.253 222.358 963.566 227.685 979.762C240.76 1019.53 268.883 1045.66 305.401 1064.03C341.793 1082.3 397.717 1093.12 438.252 1093.12H473.622C489.729 1093.01 504.669 1092.54 525.457 1090.95C614.778 1084.02 722.035 1055.04 806.441 1026.99C837.668 1016.6 870.419 1003.58 900.623 991.815C906.255 989.627 910.505 987.869 915.653 985.789L1013.12 942.33C1016.49 940.805 1019.77 940.859 1019.77 937.415V863.77C1019.77 858.264 1016.18 862.354 1009.94 865.528C1005.6 867.734 1001.91 869.922 997.746 872.254C993.692 874.46 989.962 876.613 985.424 878.872C980.545 881.276 977.676 883.087 973.156 885.527C924.854 911.552 839.784 948.769 789.886 966.238C784.757 968.032 780.434 969.359 775.807 971.081C714.358 993.698 592.986 1024.24 526.354 1009.19C505.136 1004.41 482.321 996.622 469.353 977.843C443.4 940.213 467.632 890.89 487.612 857.403C500.669 835.521 515.772 818.141 531.161 798.914C533.349 796.17 532.972 798.053 533.941 794.34H258.445C253.871 802.986 249.495 811.989 245.656 821.531C242.051 830.535 237.37 840.705 234.375 850.211C228.922 867.483 220.582 897.687 220.582 916.377V941.272Z" fill="#EE2915"/>
<path fill-rule="evenodd" clip-rule="evenodd" d="M620.16 382.155C639.728 382.155 705.768 383.41 723.525 382.244C729.049 381.85 746.537 366.891 752.061 362.891C758.769 358.013 764.06 354.013 770.84 349.26L866.564 285.821C886.598 273.373 928.407 248.64 947.347 239.295C970.144 228.067 1008.98 205.952 1031 197.45C1037.8 194.832 1045.62 190.904 1053.01 187.657L1143.26 152.395C1178.04 140.127 1204.28 133.078 1239.83 124.649C1304.24 109.313 1381.24 102.121 1446.25 120.111C1481.41 129.832 1513.8 149.059 1535.04 183.084C1575.3 247.617 1545.92 323.54 1545.64 338.839H1668.75C1674.79 338.839 1690.04 284.386 1691.35 279.023C1702.54 233.053 1703.17 226.525 1703.17 180.429C1703.17 137.903 1684.78 97.0092 1660.16 68.0786C1645.45 50.8063 1622.01 35.9733 1603.01 26.9515C1592.57 21.9832 1579.71 16.7998 1568.33 13.643C1530.8 3.31195 1508.37 1.3031 1479.06 0.962341H1441.28C1401.99 0.962341 1351.1 10.7733 1313.87 18.127C1281.35 24.5481 1244.8 35.5607 1212.78 45.4973C1207.74 47.0577 1203.54 48.923 1198.2 50.4834C1179.51 55.918 1108.61 83.36 1090.12 91.8257C1067.73 102.103 1034.91 115.932 1013.48 127.16L975.345 146.297C970.772 148.575 967.597 150.476 963.149 152.862C929.286 170.923 877.092 199.872 842.727 221.664C838.458 224.354 835.894 226.345 831.266 229.107C801.959 246.416 757.083 278.072 728.726 298.089L651.889 355.448C647.907 358.551 644.643 360.56 641.038 363.609C635.029 368.667 621.469 377.886 620.16 382.155Z" fill="#EE2915"/>
<path fill-rule="evenodd" clip-rule="evenodd" d="M1323.93 725.988H1385.68C1388.86 725.988 1390.01 719.765 1392.62 713.792C1394.63 709.218 1396.25 704.358 1398.22 699.407L1446.5 579.81C1450.43 563.435 1456.31 523.779 1460.1 503.762L1463 489.288C1463.53 488.032 1463.47 488.265 1463.94 487.602L1471.17 547.382C1472.39 556.709 1473.61 568.152 1474.97 577.497C1481.48 621.476 1485.96 668.575 1492.13 712.572C1493.33 721.146 1492.62 725.988 1496.11 725.988H1600.47C1603.68 725.988 1604.07 721.54 1605.18 718.527C1606.49 715.047 1607.86 712.285 1609.06 709.344C1611.59 703.192 1613.97 697.703 1616.39 691.444L1638.11 637.492C1640.82 631.215 1642.58 625.852 1645.2 619.359C1647.6 613.333 1650.13 607.199 1652.62 601.567C1655.21 595.72 1657.23 589.496 1659.73 583.434L1717.87 438.888H1656.12C1649.54 452.663 1628.64 506.327 1621.72 523.671L1592.63 596.329C1591.03 600.275 1589.13 604.759 1587.57 608.669C1584.81 615.521 1579.41 627.107 1577.87 633.762L1545.69 438.888H1438.72L1381.09 582.178C1371.48 606.302 1361.92 629.26 1352.27 653.402L1330.6 707.443C1328.88 711.245 1324.02 721.935 1323.93 725.988Z" fill="#2C2E35"/>
<path fill-rule="evenodd" clip-rule="evenodd" d="M2356.18 690.329C2356.18 713.896 2374.87 719.69 2397.11 724.192C2444.6 733.805 2532.99 731.115 2573.22 714.327C2606.24 700.534 2612.14 677.558 2624.27 647.085L2641.29 604.936C2644.25 597.618 2646.76 591.251 2649.74 583.807L2675.29 520.655C2678.93 512.44 2690.99 484.155 2690.99 476.299V474.434C2690.97 465.233 2690.52 457.592 2680.19 450.561C2675.49 447.351 2665.32 443.656 2658.88 442.293C2622.65 434.598 2595.89 436.284 2558.8 436.284C2548.9 436.284 2541.42 437.737 2532.7 438.024C2525.13 438.257 2514.12 439.602 2507.14 441.163C2476.71 447.835 2452.21 454.884 2436.89 484.837L2370.83 647.569C2367.12 656.806 2356.18 681.163 2356.18 690.329ZM2478.79 703.386C2470.14 703.386 2463.63 704.032 2455.56 699.655C2448.53 695.853 2448.37 692.624 2448.37 686.849C2448.37 684.338 2491.85 577.296 2497.17 564.293L2503.25 549.478L2515.81 518.556C2517.98 513.157 2519.63 508.153 2521.98 502.97L2534.19 472.551C2537.08 465.089 2545.33 447.046 2546.62 441.503C2550.12 442.436 2556 450.687 2558.6 453.879C2598.42 502.808 2595.53 484.819 2580.66 525.157L2557.69 582.193C2553.81 591.968 2550.17 600.99 2546.12 610.657L2517.31 681.881C2511.41 695.889 2492.44 703.386 2478.79 703.386Z" fill="#2C2E35"/>
<path fill-rule="evenodd" clip-rule="evenodd" d="M1999.63 725.988H2088.34L2095.3 707.73C2107.51 679.947 2120.07 645.94 2132.32 616.884L2143.22 589.532C2144.52 586.411 2146.26 584.025 2146.6 579.846C2150.43 580.851 2149.25 581.676 2153.43 586.913C2155.64 589.657 2157.38 591.881 2159.53 594.769L2177.52 618.498C2188.87 633.564 2192.69 634.802 2192.69 653.796C2192.69 663.858 2171.98 696.627 2174.76 716.895C2175.33 721.128 2174.22 725.988 2177.89 725.988H2262.26C2266.26 725.988 2264 723.495 2264 720.769C2264 690.134 2267.84 694.905 2277.37 668.055C2288.36 637.062 2304.54 620.543 2275.32 605.943C2269.26 602.912 2255.34 597.226 2246.61 597.226C2248.99 593.998 2245.51 596.706 2255.41 594.733C2258.64 594.087 2261.01 593.316 2264.31 592.348C2270.07 590.644 2276.02 588.133 2280.9 585.424C2291.27 579.667 2300.15 574.645 2308.13 566.556C2312.09 562.592 2315.71 559.597 2319.16 555.005C2327.86 543.401 2330.08 537.697 2335.43 524.263C2353.36 479.262 2366.56 453.29 2308.61 443.874C2302.37 442.852 2295.2 442.009 2287.98 440.968L2117.02 438.888C2113.88 438.888 2111.01 449.578 2108.59 455.676C2106.08 461.953 2103.73 467.245 2101.13 473.432L2072.31 545.517C2059.84 578.465 2042.12 619.539 2028.7 653.294L1999.63 725.988ZM2149.2 576.349C2149.75 569.713 2192.67 469.182 2198.88 452.071C2199.87 449.327 2201 445.865 2202.25 443.228L2233.8 484.768C2254.75 512.64 2254.01 505.681 2238.89 542.54C2229.87 564.583 2214.95 574.179 2190.09 575.47C2176.39 576.187 2163.64 576.349 2149.2 576.349Z" fill="#2C2E35"/>
<path fill-rule="evenodd" clip-rule="evenodd" d="M1007.4 691.21C1007.4 725.755 1060 728.607 1085.67 728.607C1131.53 728.607 1210.65 734.185 1242.57 693.327C1250.32 683.372 1254.86 677.525 1260.35 664.109L1315 529.123L1332.88 484.373C1334.66 479.943 1350.6 442.421 1350.91 438.906H1262.19L1233.39 510.111C1227.65 524.478 1219.04 544.1 1213.96 558.556L1179.56 643.339C1178.22 646.37 1177.3 649.366 1175.81 652.63L1165.3 678.655C1163.94 682.063 1162.52 685.004 1161.45 687.856C1158.97 694.367 1156.75 699.622 1154.24 705.846C1152.07 711.227 1148.8 718.258 1147.4 724.266C1143.42 721.594 1115.14 680.951 1109.88 673.938C1100.16 660.988 1108.88 647.985 1115.73 630.802L1181.82 467.226C1184.12 461.433 1192.21 444.035 1192.64 438.906H1103.93L1091.5 469.971C1087.25 480.66 1083.64 490.579 1079.01 500.964L1016.47 655.912C1012.42 666.064 1007.4 677.561 1007.4 691.21Z" fill="#2C2E35"/>
<path fill-rule="evenodd" clip-rule="evenodd" d="M733.46 558.106C733.46 571.684 739.989 576.957 750.141 583.163C775.897 598.964 854.331 595.503 858.402 617.618C859.101 621.51 856.034 630.89 854.725 634.19L825.382 706.634C824.252 709.485 823.624 711.207 822.476 714.167C821.185 717.557 820.414 717.987 819.553 721.682C817.903 720.462 771.718 657.776 771.718 655.552C771.718 653.203 774.498 646.656 775.43 644.468C776.74 641.454 778.874 636.684 779.556 633.796H698.683L687.473 660.861C683.634 671.533 678.666 678.725 678.666 692.088C678.666 704.517 681.482 709.755 689.087 714.723C710.664 728.856 753.782 729.502 781.295 729.502C811.356 729.502 853.488 727.565 880.93 716.086C916.855 701.074 933.697 664.305 945.319 629.115C953.678 603.807 960.96 585.351 930.863 572.903L922.505 569.962C919.043 568.724 916.801 568.168 913.178 567.11C898.848 562.967 870.15 557.999 854.833 555.003C833.991 550.932 818.979 547.04 828.234 524.171L854.958 456.93C856.483 453.307 857.989 449.145 859.55 445.881C861.559 447.334 861.613 448.195 863.047 450.222L870.509 460.158C872.087 462.454 872.84 463.046 874.347 465.001L888.947 484.318C892.66 489.842 906.147 503.563 905.358 509.876C904.659 515.544 899.009 525.391 898.686 529.391H977.819C978.34 527.203 979.577 524.458 980.456 522.468L994.105 488.264C996.724 481.771 997.818 478.309 997.818 470.238C997.818 440.034 957.57 439.944 934.863 436.662C929.626 435.909 924.424 436.59 919.187 435.801C901.448 433.111 837.74 438.097 825.579 439.729C783.932 445.325 765.279 467.637 750.607 504.783C745.657 517.302 733.46 545.156 733.46 558.106Z" fill="#2C2E35"/>
<path fill-rule="evenodd" clip-rule="evenodd" d="M1677.88 725.988H1762.23C1765.98 725.988 1771.29 707.586 1774.1 701.326L1805.71 623.323C1855.55 623.323 1919.65 628.507 1959.9 598.374C1987.16 577.927 1996.71 547.364 2009.84 514.326C2020.99 486.221 2030.57 458.94 1991.06 445.739C1977.26 441.112 1954.84 438.888 1936.15 438.888H1792.67C1789.83 438.888 1789.55 441.937 1788 446.385C1786.68 450.205 1785.67 452.017 1784.22 455.676L1773.55 482.382C1772.24 485.719 1771.11 487.996 1769.69 491.602L1765.96 500.91L1747.76 546.216C1742.14 558.664 1738.02 571.47 1732.96 582.752L1678.13 718.419C1677.61 719.693 1676.64 721.648 1676.24 722.814C1675.58 724.769 1674.77 725.988 1677.88 725.988ZM1822.24 583.326L1864.11 479.028C1866.38 473.379 1877.56 447.156 1877.9 443.228C1880.55 445.022 1882.31 447.784 1884.34 450.708L1921.02 501.018C1928.64 511.277 1923.46 520.209 1919.99 528.872C1913.63 544.782 1909.82 559.166 1897.25 571.381C1881.79 586.411 1852.02 583.326 1822.24 583.326Z" fill="#2C2E35"/>
<path fill-rule="evenodd" clip-rule="evenodd" d="M1580.47 601.584H1582.21C1583.44 596.293 1612.89 524.854 1615.01 519.563L1646.11 442.618C1647.03 440.573 1648.25 438.905 1644.82 438.905H1554.37C1554.37 445.236 1574.49 561.694 1577.04 580.653C1577.88 587.11 1579.93 595.145 1580.47 601.584Z" fill="#EE2915"/>
<path d="M144.571 607.306L94.135 728.857H6.26687L52.9362 611.574L0.330078 431.838H90.1532L144.571 607.306Z" fill="#EE2915"/>
<path d="M112.884 427.914L185.122 576.139L272.457 436.277L112.884 427.914Z" fill="#EE2915"/>
<path d="M426.289 551.094L470.627 439.783L380.391 438.904L265.512 729.484H353.2L406.667 599.646H470.788L525.69 551.094H426.289Z" fill="#EE2915"/>
<path d="M572.593 438.905L455.238 729.754H545.277L667.707 438.905H572.593Z" fill="#EE2915"/>
<path fill-rule="evenodd" clip-rule="evenodd" d="M1452.14 896.433L1441.55 858.48C1439.83 852.49 1438.31 845.62 1436.44 839.289L1431.33 819.254H1395.8C1394.35 822.268 1391.8 833.89 1390.78 837.657C1384.55 860.328 1383.32 858.516 1385.47 877.295C1386.17 883.375 1388 892.863 1388 899.051C1386.6 896.827 1383.51 882.156 1383.01 879.734C1381.49 872.596 1380.03 866.282 1378.28 859.341L1368.91 819.254H1337.72C1337.79 822.842 1340.2 832.491 1341 835.899C1342.31 841.441 1343.28 847.306 1344.48 852.364C1345.78 857.888 1346.98 863.538 1348.05 868.74L1358.46 918.171C1360.56 928.933 1356.2 925.937 1391.46 925.937C1394.31 913.633 1398.38 901.67 1401.5 889.169C1402.72 884.29 1411.31 855.037 1411.4 851.342C1413.59 852.938 1412.61 850.606 1414.49 859.503L1430.47 925.937H1459.94C1462.38 920.826 1477.21 846.84 1480.1 833.334C1480.99 829.083 1482.47 824.886 1482.47 819.254H1458.2C1455.33 831.648 1452.55 843.916 1449.36 856.382C1446.84 866.193 1449.23 875.214 1450.88 885.563C1451.58 889.958 1452.14 891.572 1452.14 896.433ZM1452.14 896.433C1453.18 898.065 1453.12 894.514 1452.85 898.19C1452.73 900.02 1452.75 898.962 1452.14 899.894V896.433ZM1388 900.773L1388.25 901.042C1388.23 901.006 1387.91 900.863 1388 900.773Z" fill="#2C2E35"/>
<path fill-rule="evenodd" clip-rule="evenodd" d="M1602.96 923.301C1602.96 925.292 1603.55 925.919 1605.56 925.919C1641.05 925.919 1635.94 928.753 1635.89 914.656V872.129L1658.24 892.289C1667.98 902.603 1657.3 911.284 1667.1 925.919H1698.31C1697.59 917.238 1694.67 927.659 1694.88 894.639C1694.92 887.59 1693.71 885.815 1689.34 882.837C1686.36 880.846 1680.37 878.192 1675.78 878.192C1678.29 874.784 1680.05 878.048 1688.14 870.623C1696.84 862.677 1694.84 851.7 1694.84 839.199C1694.84 831.002 1690.45 825.604 1683.19 823.093C1665.56 817.012 1624.11 819.236 1602.96 819.236V923.301ZM1649.75 869.529H1635.89V821.855C1638.65 823.685 1640.05 825.927 1642.71 828.025C1645.84 830.536 1647.15 832.186 1650.02 834.607C1663.51 845.907 1662.76 844.723 1662.76 857.386C1662.76 865.403 1657.63 869.529 1649.75 869.529Z" fill="#2C2E35"/>
<path fill-rule="evenodd" clip-rule="evenodd" d="M1217.21 834.858V909.436C1217.21 932.806 1283.25 927.892 1295.75 922.977C1302.3 920.412 1308.23 916.341 1308.23 907.714V835.719C1308.23 832.06 1304.93 827.433 1302.85 825.495C1291.75 815.057 1248.49 816.635 1233.82 820.276C1226.8 821.998 1217.21 826.231 1217.21 834.858ZM1265.76 916.377C1246.64 916.377 1251.02 913.292 1251.02 873.008V820.994L1270.73 836.813C1273.26 838.912 1274.42 840.92 1274.42 845.261V908.575C1274.42 913.256 1270.14 916.377 1265.76 916.377Z" fill="#2C2E35"/>
<path fill-rule="evenodd" clip-rule="evenodd" d="M1100.2 923.299C1100.2 925.29 1100.81 925.918 1102.8 925.918H1130.53C1132.54 925.918 1133.13 925.29 1133.13 923.299V887.768C1153.81 887.768 1190.34 891.373 1190.34 863.465C1190.34 846.229 1193.23 831.88 1181.34 824.795C1176.3 821.782 1167.65 819.235 1160 819.235H1100.2V923.299ZM1148.75 872.128H1133.13V821.854L1155.03 841.547C1161.11 847.484 1160 847.789 1160 859.143C1160 867.232 1156.79 872.128 1148.75 872.128Z" fill="#2C2E35"/>
<path fill-rule="evenodd" clip-rule="evenodd" d="M1540.54 910.351C1539.61 909.239 1540.04 910.459 1539.59 908.504L1539.84 877.457L1571.01 877.439L1570.71 863.484H1540.49C1540.63 853.064 1537.87 853.44 1531.66 847.199C1529.51 845.064 1527.84 843.145 1525.54 841.208L1520.47 836.742C1519.39 835.63 1519.68 836.078 1518.87 834.859L1571.77 834.877C1575.21 834.159 1574.47 833.262 1574.42 828.868C1574.37 825.664 1574.35 822.459 1574.35 819.254H1507.61C1507.61 851.037 1507.7 882.855 1507.61 914.656C1507.56 929.381 1501.71 925.919 1544 925.919C1552.09 925.919 1560.22 925.83 1568.29 925.937C1573.86 926.009 1576.52 927.408 1577.04 922.547C1577.34 919.696 1576.95 913.544 1576.95 910.315L1540.54 910.351Z" fill="#2C2E35"/>
</svg>
