<svg width="174" height="175" viewBox="0 0 174 175" fill="none" xmlns="http://www.w3.org/2000/svg">
<g clip-path="url(#clip0_2065_6253)">
<path d="M122.899 86.6C122.899 107.6 105.899 124.6 84.7988 124.6C63.7988 124.6 46.7988 107.6 46.7988 86.6C46.7988 65.6 63.7988 48.5 84.7988 48.5C105.899 48.5 122.899 65.6 122.899 86.6Z" fill="#FDD002"/>
<path d="M66.5 36.7C66.5 16.4 82.9 0 103.2 0C103.2 20.3 86.8 36.7 66.5 36.7Z" fill="#2C2E35"/>
<path d="M38.6993 60.2C25.6993 44.7 27.6993 21.5 43.1993 8.5C56.2993 24 54.2993 47.2 38.6993 60.2Z" fill="white"/>
<path d="M32.5996 96C12.5996 92.5 -0.800407 73.4 2.7996 53.5C22.6996 57 36.0996 76 32.5996 96Z" fill="#A6BB09"/>
<path d="M38.6993 60.2C25.6993 44.7 27.6993 21.5 43.1993 8.5C56.2993 24 54.2993 47.2 38.6993 60.2Z" fill="#A6BB09"/>
<path d="M50.7992 127.4C33.2992 137.6 10.7992 131.6 0.699219 114C18.1992 103.8 40.6992 109.9 50.7992 127.4Z" fill="white"/>
<path d="M50.7992 127.4C33.2992 137.6 10.7992 131.6 0.699219 114C18.1992 103.8 40.6992 109.9 50.7992 127.4Z" fill="#A6BB09"/>
<path d="M85 139.7C78.1 158.8 57 168.6 38 161.7C44.9 142.6 66 132.8 85 139.7Z" fill="white"/>
<path d="M85 139.7C78.1 158.8 57 168.6 38 161.7C44.9 142.6 66 132.8 85 139.7Z" fill="#2C2E35"/>
<path d="M119.199 127.2C126.099 146.2 116.299 167.3 97.1985 174.2C90.2985 155.2 100.099 134.1 119.199 127.2Z" fill="white"/>
<path d="M119.199 127.2C126.099 146.2 116.299 167.3 97.1985 174.2C90.2985 155.2 100.099 134.1 119.199 127.2Z" fill="#2C2E35"/>
<path d="M137.199 95.5996C154.799 105.8 160.799 128.2 150.599 145.8C133.099 135.7 127.099 113.2 137.199 95.5996Z" fill="white"/>
<path d="M137.199 95.5996C154.799 105.8 160.799 128.2 150.599 145.8C133.099 135.7 127.099 113.2 137.199 95.5996Z" fill="#A6BB09"/>
<path d="M130.699 59.7999C150.699 56.2999 169.799 69.6999 173.299 89.5999C153.299 93.1999 134.299 79.7999 130.699 59.7999Z" fill="white"/>
<path d="M130.699 59.7999C150.699 56.2999 169.799 69.6999 173.299 89.5999C153.299 93.1999 134.299 79.7999 130.699 59.7999Z" fill="#A6BB09"/>
<path d="M102.799 36.5999C115.899 21.0999 138.999 18.9999 154.599 32.0999C141.499 47.5999 118.399 49.5999 102.799 36.5999Z" fill="#2C2E35"/>
</g>
<defs>
<clipPath id="clip0_2065_6253">
<rect width="174" height="175" fill="white"/>
</clipPath>
</defs>
</svg>
