<svg width="1300" height="1652" viewBox="0 0 1300 1652" fill="none" xmlns="http://www.w3.org/2000/svg">
<path d="M650.08 0.163086H648.645C506.323 0.288574 360.02 14.3864 187.943 45.1823C0.0995752 78.7762 0.0996094 254.925 0.0996094 284.412V1039.08C0.0996094 1179.93 68.6148 1312.03 183.925 1392.85C341.779 1503.45 548.724 1608.98 622.494 1645.46C630.745 1649.57 639.677 1651.67 648.645 1651.85V1651.88L650.062 1651.86L651.443 1651.88V1651.85C660.429 1651.67 669.325 1649.57 677.594 1645.46C751.328 1608.98 958.327 1503.45 1116.14 1392.85C1231.49 1312.03 1300.01 1179.92 1300.01 1039.07V284.412C1300.01 254.925 1300.01 78.7762 1112.15 45.1823C940.05 14.3864 793.782 0.288574 651.443 0.163086H650.08Z" fill="#E4E9EB"/>
<path d="M1085.99 89.3751C923.639 60.3368 785.64 47.0283 651.389 46.9027H648.717C514.466 47.0283 376.449 60.3368 214.111 89.3751C36.9043 121.068 36.9043 287.262 36.9043 315.045V1027.03C36.9043 1159.9 101.528 1284.52 210.327 1360.76C359.213 1465.1 554.482 1564.66 624.055 1599.08C631.857 1602.93 640.269 1604.93 648.717 1605.12H650.044L651.389 1605.14C659.837 1604.94 668.249 1602.93 676.051 1599.08C745.625 1564.66 940.893 1465.1 1089.78 1360.76C1198.58 1284.52 1263.2 1159.88 1263.2 1027.01V315.045C1263.2 287.262 1263.2 121.068 1085.99 89.3751Z" fill="#EE2915"/>
<path d="M650.08 46.903H648.717C514.485 47.0286 376.468 60.337 214.13 89.3932C37.927 120.889 36.9047 285.307 36.8867 314.561V439.664C56.1499 433.369 77.7448 428.329 101.994 424.867C306.123 395.847 479.617 382.538 648.358 382.395H651.73C820.49 382.538 993.984 395.847 1198.09 424.867C1222.36 428.329 1243.94 433.369 1263.22 439.664V315.063C1263.22 287.262 1263.22 121.068 1085.98 89.3932C923.639 60.337 785.64 47.0286 651.408 46.903H650.08Z" fill="white"/>
<path d="M468.747 726.065L589.367 588.64L658.743 508.484H290.554L215.277 607.724H442.794L332.847 732.163L269.3 813.862H389.345C456.019 813.862 489.356 835.749 489.356 879.525C489.356 901.407 480.454 918.326 462.649 930.284C444.833 942.241 420.398 948.226 389.345 948.238C361.353 948.238 333.995 944.035 307.27 935.629C280.558 927.235 257.02 915.403 236.657 900.133L188.57 994.799C214.003 1013.12 244.919 1027.24 281.317 1037.16C317.703 1047.09 354.729 1052.05 392.394 1052.05C440.749 1052.05 481.596 1044.16 514.933 1028.39C548.269 1012.62 573.081 991.625 589.367 965.402C605.652 939.204 613.795 910.578 613.795 879.525C613.795 839.313 601.33 805.593 576.399 778.366C551.444 751.14 515.56 733.706 468.747 726.065Z" fill="white"/>
<path d="M964.478 910.035C945.897 938.027 920.32 952.023 887.749 952.023C855.679 952.023 830.36 938.027 811.79 910.035C793.208 882.055 783.917 838.793 783.917 780.25C783.917 721.731 793.208 678.47 811.79 650.466C830.36 622.486 855.679 608.49 887.749 608.478C920.32 608.478 945.897 622.474 964.478 650.466C983.048 678.47 992.339 721.731 992.351 780.25C992.351 838.793 983.06 882.055 964.478 910.035ZM1087.39 631.759C1067.78 590.279 1040.68 558.598 1006.09 536.716C971.473 514.834 932.026 503.887 887.749 503.875C843.459 503.875 804.018 514.822 769.425 536.716C734.809 558.598 707.702 590.279 688.104 631.759C668.518 673.25 658.725 722.748 658.725 780.25C658.725 837.765 668.518 887.262 688.104 928.742C707.714 970.234 734.821 1001.91 769.425 1023.78C804.018 1045.68 843.459 1056.62 887.749 1056.62C932.026 1056.62 971.473 1045.68 1006.09 1023.78C1040.69 1001.91 1067.8 970.234 1087.39 928.742C1106.99 887.262 1116.79 837.765 1116.79 780.25C1116.79 722.736 1106.99 673.239 1087.39 631.759Z" fill="white"/>
<path d="M397.633 143.415L405.04 142.787C410.887 142.309 414.917 141.107 417.129 139.182C419.353 137.245 420.364 134.907 420.16 132.169C419.945 129.515 418.743 127.338 416.555 125.64C414.343 123.966 410.397 123.357 404.717 123.811L396.036 124.528L397.633 143.415ZM363.859 110.09C384.181 108.153 394.35 107.256 414.708 105.678C425.792 104.817 434.252 106.455 440.087 110.592C445.91 114.729 449.097 120.965 449.647 129.299C450.209 137.837 447.692 144.73 442.096 149.979C436.524 155.193 427.681 158.272 415.569 159.216C408.968 159.737 405.686 160.006 399.103 160.58L401.758 191.985C389.813 193.008 383.84 193.546 371.913 194.676L363.859 110.09Z" fill="#2C2E35"/>
<path d="M499.669 142.989C500.111 151.55 502.245 157.613 506.072 161.176C509.898 164.739 514.938 166.389 521.192 166.126C527.637 165.839 532.557 163.801 535.953 160.01C539.349 156.208 540.873 149.553 540.527 140.047C540.24 132.048 538.159 126.279 534.285 122.739C530.387 119.188 525.239 117.55 518.842 117.825C512.696 118.088 507.853 120.186 504.314 124.12C500.787 128.054 499.238 134.344 499.669 142.989ZM469.447 144.549C468.622 130.685 472.406 119.636 480.979 111.404C489.553 103.165 501.905 98.6872 518.035 97.9697C534.554 97.2523 547.45 100.606 556.579 107.924C565.715 115.254 570.45 125.758 570.785 139.438C571.048 149.362 569.356 157.559 565.709 164.028C562.074 170.485 556.723 175.602 549.656 179.381C542.601 183.147 533.729 185.252 523.039 185.694C512.182 186.185 503.106 185.097 495.812 182.43C488.518 179.752 482.456 175.25 477.625 168.924C472.783 162.587 470.056 154.462 469.447 144.549Z" fill="#2C2E35"/>
<path d="M582.785 97.287C594.444 97.0359 600.273 96.9283 611.931 96.7848C616.361 115.779 618.549 125.267 622.836 144.261C628.719 125.177 631.714 115.635 637.777 96.5875C649.399 96.5337 655.21 96.5516 666.833 96.6234C672.859 115.671 675.837 125.195 681.684 144.261C686.024 125.303 688.23 115.833 692.714 96.8924C704.319 97.0718 710.13 97.1794 721.717 97.4664C712.139 131.24 707.476 148.135 698.382 181.98C686.688 181.783 680.841 181.711 669.129 181.622C662.51 160.17 659.138 149.463 652.287 128.047C645.382 149.445 641.992 160.152 635.355 181.586C623.661 181.64 617.814 181.693 606.12 181.855C597.026 147.992 592.363 131.078 582.785 97.287Z" fill="#2C2E35"/>
<path d="M738.469 97.9136C771.345 98.9 787.793 99.6175 820.651 101.501L819.593 119.616C799.164 118.45 788.923 117.948 768.476 117.123L767.938 130.611C786.824 131.382 796.276 131.83 815.145 132.889L814.176 150.197C795.397 149.139 786.017 148.69 767.238 147.937L766.556 164.671C787.272 165.514 797.621 166.016 818.337 167.218L817.225 186.445C784.726 184.562 768.458 183.845 735.922 182.858L738.469 97.9136Z" fill="#2C2E35"/>
<path d="M873.973 139.577C879.085 139.953 881.632 140.169 886.726 140.581C888.137 140.665 890.845 140.498 894.851 140.079C896.884 139.888 898.594 139.14 899.981 137.837C901.38 136.522 902.157 134.937 902.312 133.084C902.551 130.346 901.72 128.164 899.819 126.537C897.93 124.899 894.211 123.853 888.663 123.399L875.283 122.34L873.973 139.577ZM840.254 187.86L845.832 103.059C866.243 104.404 876.467 105.158 896.86 106.844C906.33 107.645 913.498 108.966 918.365 110.808C923.243 112.649 927.028 115.59 929.718 119.632C932.409 123.674 933.491 128.385 932.965 133.766C932.51 138.465 930.968 142.405 928.337 145.585C925.695 148.766 922.263 151.235 918.042 152.993C915.34 154.105 911.711 154.9 907.155 155.378C910.646 156.742 913.163 158.015 914.706 159.199C915.746 160 917.217 161.632 919.118 164.095C920.995 166.558 922.227 168.442 922.813 169.745C927.71 180.094 930.131 185.278 934.92 195.645C921.486 194.317 914.778 193.69 901.326 192.524C895.873 181.619 893.111 176.184 887.551 165.315C885.781 161.764 884.143 159.438 882.637 158.338C880.58 156.855 878.17 156.006 875.408 155.791L872.754 155.594L870.135 189.977C858.172 189.062 852.199 188.65 840.254 187.86Z" fill="#2C2E35"/>
<path d="M201.27 274.242C212.264 272.502 217.771 271.659 228.783 270.027C235.545 288.267 238.899 297.397 245.517 315.656C248.495 295.998 250.037 286.169 253.212 266.493C264.207 264.969 269.695 264.233 280.69 262.798C288.976 280.896 293.066 289.953 301.137 308.105C302.715 288.752 303.522 279.084 305.226 259.731C316.221 258.404 321.709 257.758 332.704 256.539C328.166 291.245 326.014 308.607 321.96 343.313C310.894 344.622 305.37 345.304 294.303 346.739C285.174 326.328 280.546 316.14 271.166 295.819C267.525 317.898 265.785 328.946 262.395 351.025C251.347 352.586 245.822 353.393 234.792 355.043C221.627 322.669 214.919 306.49 201.27 274.242Z" fill="#2C2E35"/>
<path d="M405.128 302.187C399.98 290.367 397.38 284.466 392.142 272.664C389.165 285.22 387.694 291.479 384.806 304.034C392.931 303.263 397.003 302.904 405.128 302.187ZM412.607 319.979C399.711 321.091 393.254 321.665 380.358 322.921L377.255 337.305C365.705 338.435 359.929 339.045 348.396 340.301C358.459 305.003 363.696 287.39 374.619 252.182C387.335 250.962 393.685 250.388 406.419 249.294C423.476 281.973 431.799 298.367 448.031 331.279C436.157 332.122 430.238 332.588 418.382 333.575C416.087 328.14 414.939 325.414 412.607 319.979Z" fill="#2C2E35"/>
<path d="M489.249 277.974L501.409 277.31C502.736 277.214 505.265 276.7 508.996 275.768C510.885 275.313 512.404 274.351 513.552 272.88C514.7 271.385 515.232 269.717 515.148 267.876C515.017 265.126 513.952 263.063 511.956 261.688C509.959 260.313 506.318 259.763 501.033 260.038L488.28 260.719L489.249 277.974ZM463.654 330.203L457.986 245.402C477.447 244.093 487.186 243.537 506.647 242.568C515.674 242.126 522.604 242.502 527.434 243.698C532.265 244.894 536.211 247.315 539.272 250.962C542.321 254.621 543.941 259.153 544.133 264.558C544.312 269.269 543.361 273.376 541.281 276.88C539.2 280.371 536.277 283.259 532.51 285.543C530.107 287.001 526.789 288.269 522.556 289.345C526.023 290.242 528.564 291.181 530.178 292.161C531.255 292.807 532.839 294.23 534.931 296.43C537.024 298.63 538.429 300.334 539.146 301.542C545.083 311.173 548.025 315.998 553.854 325.647C541.03 326.078 534.627 326.347 521.82 326.921C515.292 316.823 511.991 311.783 505.337 301.721C503.239 298.474 501.391 296.34 499.831 295.461C497.702 294.242 495.317 293.709 492.674 293.865L490.145 294.008L492.1 328.445C480.711 329.091 475.025 329.432 463.654 330.203Z" fill="#2C2E35"/>
<path d="M597.133 273.937L609.312 273.74C610.639 273.704 613.18 273.286 616.934 272.485C618.836 272.114 620.396 271.211 621.616 269.776C622.811 268.341 623.397 266.691 623.373 264.826C623.361 262.088 622.381 259.995 620.432 258.548C618.495 257.09 614.878 256.39 609.581 256.45L596.81 256.665L597.133 273.937ZM569.566 325.145L567.162 240.2C586.641 239.644 596.38 239.447 615.858 239.213C624.898 239.13 631.809 239.775 636.592 241.151C641.375 242.526 645.219 245.096 648.125 248.863C651.042 252.63 652.489 257.221 652.465 262.638C652.465 267.349 651.359 271.414 649.147 274.834C646.923 278.254 643.892 281.034 640.054 283.174C637.602 284.526 634.242 285.662 629.974 286.582C633.405 287.599 635.905 288.627 637.471 289.667C638.523 290.373 640.054 291.855 642.063 294.115C644.071 296.399 645.411 298.157 646.08 299.389C651.64 309.253 654.385 314.168 659.855 324.05C647.031 323.997 640.628 324.015 627.803 324.104C621.669 313.755 618.566 308.608 612.307 298.294C610.322 294.946 608.564 292.788 607.034 291.82C604.965 290.54 602.604 289.918 599.949 289.954L597.42 290.008L598.048 324.481C586.658 324.696 580.973 324.822 569.566 325.145Z" fill="#2C2E35"/>
<path d="M726.65 292.699C722.883 280.377 720.982 274.207 717.126 261.885C712.731 274.009 710.561 280.072 706.256 292.214C714.399 292.376 718.489 292.465 726.65 292.699ZM732.03 311.244C719.099 310.85 712.624 310.688 699.692 310.455L694.957 324.409C683.37 324.212 677.577 324.14 665.99 324.069C679.998 290.17 687.226 273.256 702.077 239.536C714.83 239.77 721.215 239.931 733.967 240.308C747.168 274.709 753.553 291.945 765.893 326.508C754.02 326.006 748.083 325.772 736.209 325.414L732.03 311.244Z" fill="#2C2E35"/>
<path d="M785.443 242.316C796.348 242.836 801.818 243.123 812.723 243.751C825.87 263.355 832.327 273.184 844.99 292.932L848.272 246.029C859.285 246.8 864.773 247.195 875.768 248.074L869.024 332.785C858.352 331.942 853.025 331.548 842.335 330.794C829.924 311.226 823.592 301.469 810.696 282.026L808.024 328.606C797.37 327.996 792.025 327.709 781.371 327.207L785.443 242.316Z" fill="#2C2E35"/>
<path d="M894.958 249.687C930.399 252.754 948.102 254.566 983.454 258.745L980.997 279.586C969.231 278.187 963.348 277.523 951.546 276.25L944.712 339.887C933.431 338.685 927.781 338.111 916.481 337.017L922.651 273.309C910.867 272.161 904.966 271.623 893.146 270.6L894.958 249.687Z" fill="#2C2E35"/>
<path d="M993.57 259.948C1006.48 261.508 1012.94 262.334 1025.84 264.055C1031.9 276.431 1034.89 282.637 1040.8 295.049C1049.89 284.736 1054.48 279.588 1063.74 269.364C1076.54 271.23 1082.95 272.216 1095.73 274.243C1078.07 291.444 1069.37 300.125 1052.18 317.594L1047.06 352.82C1035.79 351.17 1030.14 350.381 1018.84 348.874L1023.6 313.594C1011.85 292.071 1005.86 281.346 993.57 259.948Z" fill="#2C2E35"/>
</svg>
